G04*
G04 #@! TF.GenerationSoftware,Altium Limited,Altium Designer,21.7.2 (23)*
G04*
G04 Layer_Color=2752767*
%FSLAX25Y25*%
%MOIN*%
G70*
G04*
G04 #@! TF.SameCoordinates,468C8543-70E2-46C5-B46D-702049A88486*
G04*
G04*
G04 #@! TF.FilePolarity,Positive*
G04*
G01*
G75*
%ADD66C,0.00200*%
%ADD67C,0.00267*%
G54D66*
X5401Y74298D02*
Y75898D01*
X7001D01*
Y74298D01*
X5401D01*
Y64298D02*
Y65898D01*
X7001D01*
Y64298D01*
X5401D01*
Y54298D02*
Y55898D01*
X7001D01*
Y54298D01*
X5401D01*
Y44298D02*
Y45898D01*
X7001D01*
Y44298D01*
X5401D01*
Y34298D02*
Y35898D01*
X7001D01*
Y34298D01*
X5401D01*
Y24298D02*
Y25898D01*
X7001D01*
Y24298D01*
X5401D01*
G54D67*
X50469Y57823D02*
X49916Y58584D01*
X49022Y58293D01*
Y57353D01*
X49916Y57062D01*
X50469Y57823D01*
X56473D02*
X55920Y58584D01*
X55026Y58293D01*
Y57353D01*
X55920Y57062D01*
X56473Y57823D01*
X42355Y49654D02*
X41802Y50414D01*
X40908Y50124D01*
Y49183D01*
X41802Y48893D01*
X42355Y49654D01*
X15229Y59299D02*
X14676Y60060D01*
X13782Y59769D01*
Y58829D01*
X14676Y58538D01*
X15229Y59299D01*
X60115Y54772D02*
X59562Y55532D01*
X58668Y55242D01*
Y54301D01*
X59562Y54011D01*
X60115Y54772D01*
X95355Y26425D02*
X94802Y27186D01*
X93908Y26895D01*
Y25955D01*
X94802Y25664D01*
X95355Y26425D01*
X118355Y43925D02*
X117802Y44686D01*
X116908Y44395D01*
Y43455D01*
X117802Y43164D01*
X118355Y43925D01*
X42355Y38925D02*
X41802Y39686D01*
X40908Y39395D01*
Y38455D01*
X41802Y38164D01*
X42355Y38925D01*
Y31925D02*
X41802Y32686D01*
X40908Y32395D01*
Y31455D01*
X41802Y31164D01*
X42355Y31925D01*
Y45425D02*
X41802Y46186D01*
X40908Y45895D01*
Y44955D01*
X41802Y44664D01*
X42355Y45425D01*
Y42425D02*
X41802Y43186D01*
X40908Y42895D01*
Y41955D01*
X41802Y41664D01*
X42355Y42425D01*
X25855Y28925D02*
X25302Y29686D01*
X24408Y29395D01*
Y28455D01*
X25302Y28164D01*
X25855Y28925D01*
X21355Y64425D02*
X20802Y65186D01*
X19908Y64895D01*
Y63955D01*
X20802Y63664D01*
X21355Y64425D01*
X25355Y74425D02*
X24802Y75186D01*
X23908Y74895D01*
Y73955D01*
X24802Y73664D01*
X25355Y74425D01*
X28855Y76425D02*
X28302Y77186D01*
X27408Y76895D01*
Y75955D01*
X28302Y75664D01*
X28855Y76425D01*
Y82425D02*
X28302Y83186D01*
X27408Y82895D01*
Y81955D01*
X28302Y81664D01*
X28855Y82425D01*
Y88425D02*
X28302Y89186D01*
X27408Y88895D01*
Y87955D01*
X28302Y87664D01*
X28855Y88425D01*
X16855Y74425D02*
X16302Y75186D01*
X15408Y74895D01*
Y73955D01*
X16302Y73664D01*
X16855Y74425D01*
X52855Y52425D02*
X52302Y53186D01*
X51408Y52895D01*
Y51955D01*
X52302Y51664D01*
X52855Y52425D01*
X73855Y55925D02*
X73302Y56686D01*
X72408Y56395D01*
Y55455D01*
X73302Y55164D01*
X73855Y55925D01*
X67355Y42425D02*
X66802Y43186D01*
X65908Y42895D01*
Y41955D01*
X66802Y41664D01*
X67355Y42425D01*
X82855Y53925D02*
X82302Y54686D01*
X81408Y54395D01*
Y53455D01*
X82302Y53164D01*
X82855Y53925D01*
X118355Y26425D02*
X117802Y27186D01*
X116908Y26895D01*
Y25955D01*
X117802Y25664D01*
X118355Y26425D01*
X100355Y52425D02*
X99802Y53186D01*
X98908Y52895D01*
Y51955D01*
X99802Y51664D01*
X100355Y52425D01*
X80855Y36425D02*
X80302Y37186D01*
X79408Y36895D01*
Y35955D01*
X80302Y35664D01*
X80855Y36425D01*
X79355Y64425D02*
X78802Y65186D01*
X77908Y64895D01*
Y63955D01*
X78802Y63664D01*
X79355Y64425D01*
X17355Y33425D02*
X16802Y34186D01*
X15908Y33895D01*
Y32955D01*
X16802Y32664D01*
X17355Y33425D01*
Y53925D02*
X16802Y54686D01*
X15908Y54395D01*
Y53455D01*
X16802Y53164D01*
X17355Y53925D01*
X35855Y26925D02*
X35302Y27686D01*
X34408Y27395D01*
Y26455D01*
X35302Y26164D01*
X35855Y26925D01*
X95843Y60579D02*
X95290Y61340D01*
X94396Y61049D01*
Y60109D01*
X95290Y59818D01*
X95843Y60579D01*
X66253Y47736D02*
X65700Y48497D01*
X64806Y48206D01*
Y47266D01*
X65700Y46975D01*
X66253Y47736D01*
X93312Y82480D02*
X92759Y83241D01*
X91865Y82951D01*
Y82010D01*
X92759Y81719D01*
X93312Y82480D01*
X95682Y88287D02*
X95129Y89048D01*
X94235Y88758D01*
Y87817D01*
X95129Y87527D01*
X95682Y88287D01*
X88300Y82480D02*
X87747Y83241D01*
X86853Y82951D01*
Y82010D01*
X87747Y81719D01*
X88300Y82480D01*
X85150Y18799D02*
X84598Y19560D01*
X83703Y19269D01*
Y18329D01*
X84598Y18038D01*
X85150Y18799D01*
X111036Y80315D02*
X110483Y81076D01*
X109589Y80785D01*
Y79845D01*
X110483Y79554D01*
X111036Y80315D01*
X104835Y39370D02*
X104283Y40131D01*
X103388Y39840D01*
Y38900D01*
X104283Y38609D01*
X104835Y39370D01*
X60249Y30610D02*
X59696Y31371D01*
X58802Y31080D01*
Y30140D01*
X59696Y29849D01*
X60249Y30610D01*
X65072Y17224D02*
X64519Y17985D01*
X63624Y17695D01*
Y16754D01*
X64519Y16464D01*
X65072Y17224D01*
X75800Y17126D02*
X75247Y17887D01*
X74353Y17596D01*
Y16656D01*
X75247Y16365D01*
X75800Y17126D01*
X56213Y14370D02*
X55661Y15131D01*
X54766Y14840D01*
Y13900D01*
X55661Y13609D01*
X56213Y14370D01*
X60938Y18012D02*
X60385Y18773D01*
X59491Y18482D01*
Y17542D01*
X60385Y17251D01*
X60938Y18012D01*
X70977D02*
X70424Y18773D01*
X69530Y18482D01*
Y17542D01*
X70424Y17251D01*
X70977Y18012D01*
X80524Y18110D02*
X79972Y18871D01*
X79077Y18580D01*
Y17640D01*
X79972Y17349D01*
X80524Y18110D01*
X20682Y14567D02*
X20129Y15328D01*
X19235Y15037D01*
Y14097D01*
X20129Y13806D01*
X20682Y14567D01*
X15564Y19390D02*
X15011Y20151D01*
X14117Y19860D01*
Y18920D01*
X15011Y18629D01*
X15564Y19390D01*
X10544Y30020D02*
X9991Y30781D01*
X9097Y30490D01*
Y29550D01*
X9991Y29259D01*
X10544Y30020D01*
X44993Y57972D02*
X44440Y58733D01*
X43546Y58443D01*
Y57502D01*
X44440Y57212D01*
X44993Y57972D01*
X90957Y94488D02*
X90405Y95249D01*
X89510Y94958D01*
Y94018D01*
X90405Y93727D01*
X90957Y94488D01*
M02*
