G04*
G04 #@! TF.GenerationSoftware,Altium Limited,Altium Designer,21.7.2 (23)*
G04*
G04 Layer_Physical_Order=2*
G04 Layer_Color=16711680*
%FSLAX25Y25*%
%MOIN*%
G70*
G04*
G04 #@! TF.SameCoordinates,468C8543-70E2-46C5-B46D-702049A88486*
G04*
G04*
G04 #@! TF.FilePolarity,Positive*
G04*
G01*
G75*
%ADD11C,0.01000*%
%ADD49C,0.01181*%
%ADD61C,0.05906*%
%ADD62R,0.05906X0.05906*%
%ADD63C,0.01968*%
%ADD64R,0.03625X0.05150*%
%ADD65R,0.06594X0.06693*%
G36*
X121026Y1313D02*
X1313D01*
Y97113D01*
X36562D01*
Y68242D01*
X14914D01*
X9607Y73549D01*
X9845Y74122D01*
X9973Y75098D01*
X9845Y76075D01*
X9468Y76985D01*
X8868Y77766D01*
X8087Y78365D01*
X7177Y78742D01*
X6201Y78871D01*
X5224Y78742D01*
X4315Y78365D01*
X3533Y77766D01*
X2934Y76985D01*
X2557Y76075D01*
X2428Y75098D01*
X2557Y74122D01*
X2934Y73212D01*
X3533Y72431D01*
X4315Y71831D01*
X5224Y71455D01*
X6201Y71326D01*
X7177Y71455D01*
X7751Y71692D01*
X13442Y66001D01*
X13868Y65716D01*
X14370Y65617D01*
X18690D01*
X18926Y65175D01*
X18886Y65117D01*
X18749Y64425D01*
X18886Y63734D01*
X19278Y63148D01*
X19864Y62756D01*
X20555Y62619D01*
X21246Y62756D01*
X21779Y63113D01*
X55060D01*
X55205Y62634D01*
X55139Y62590D01*
X51507Y58957D01*
X51009Y59007D01*
X50947Y59100D01*
X50361Y59492D01*
X49669Y59629D01*
X48978Y59492D01*
X48392Y59100D01*
X48000Y58514D01*
X47863Y57823D01*
X48000Y57132D01*
X48264Y56737D01*
Y55330D01*
X41637D01*
X39049Y57919D01*
X38593Y58223D01*
X38055Y58330D01*
X17271D01*
X16219Y59382D01*
X16098Y59991D01*
X15706Y60576D01*
X15120Y60968D01*
X14429Y61106D01*
X13738Y60968D01*
X13152Y60576D01*
X12760Y59991D01*
X12623Y59299D01*
X12760Y58608D01*
X13152Y58022D01*
X13738Y57630D01*
X14061Y57566D01*
X15687Y55941D01*
X15638Y55443D01*
X15278Y55203D01*
X14886Y54616D01*
X14749Y53925D01*
X14886Y53234D01*
X15278Y52648D01*
X15864Y52256D01*
X16555Y52119D01*
X17246Y52256D01*
X17779Y52613D01*
X36783D01*
X39750Y49645D01*
X39886Y48962D01*
X40278Y48376D01*
X40864Y47985D01*
X41555Y47847D01*
X42246Y47985D01*
X42832Y48376D01*
X43224Y48962D01*
X43361Y49654D01*
X43224Y50345D01*
X42832Y50931D01*
X42246Y51322D01*
X41672Y51437D01*
X40978Y52131D01*
X41055Y52520D01*
X48264D01*
Y33697D01*
X48264Y33697D01*
X48264D01*
X48371Y33159D01*
X48676Y32703D01*
X51762Y29617D01*
X52218Y29312D01*
X52756Y29205D01*
X58363D01*
X58758Y28941D01*
X59449Y28804D01*
X60140Y28941D01*
X60726Y29333D01*
X60906Y29602D01*
X61384Y29457D01*
Y18799D01*
X61484Y18297D01*
X61769Y17871D01*
X62478Y17162D01*
X62603Y16533D01*
X62683Y16413D01*
X62448Y15972D01*
X56205D01*
X56105Y16039D01*
X55413Y16176D01*
X54722Y16039D01*
X54622Y15972D01*
X20968D01*
X20573Y16236D01*
X19882Y16373D01*
X19191Y16236D01*
X18605Y15844D01*
X18213Y15258D01*
X18076Y14567D01*
X18213Y13876D01*
X18605Y13290D01*
X19191Y12898D01*
X19882Y12761D01*
X20573Y12898D01*
X20968Y13162D01*
X54090D01*
X54136Y13093D01*
X54722Y12701D01*
X55413Y12564D01*
X56105Y12701D01*
X56691Y13093D01*
X56737Y13162D01*
X80512D01*
X81050Y13269D01*
X81505Y13574D01*
X85103Y17172D01*
X85628Y17522D01*
X86019Y18108D01*
X86157Y18799D01*
X86019Y19490D01*
X85628Y20076D01*
X85042Y20468D01*
X84350Y20606D01*
X83659Y20468D01*
X83073Y20076D01*
X82682Y19490D01*
X82544Y18799D01*
X82579Y18621D01*
X79930Y15972D01*
X76890D01*
X76654Y16413D01*
X76669Y16435D01*
X76806Y17126D01*
X76669Y17817D01*
X76277Y18403D01*
X75691Y18795D01*
X75000Y18932D01*
X74385Y18810D01*
X73655Y19540D01*
Y49025D01*
X80281Y55651D01*
X80541Y55543D01*
X80686Y55064D01*
X80386Y54616D01*
X80249Y53925D01*
X80386Y53234D01*
X80778Y52648D01*
X81364Y52256D01*
X82055Y52119D01*
X82746Y52256D01*
X83332Y52648D01*
X83724Y53234D01*
X83862Y53925D01*
X83724Y54616D01*
X83368Y55150D01*
Y56118D01*
X95712Y68462D01*
X95996Y68887D01*
X96096Y69390D01*
X96096Y69390D01*
X96096Y69390D01*
Y69390D01*
Y86968D01*
X96159Y87010D01*
X96551Y87596D01*
X96688Y88287D01*
X96551Y88979D01*
X96159Y89565D01*
X95927Y89720D01*
Y97113D01*
X121026D01*
Y1313D01*
D02*
G37*
G36*
X80804Y59887D02*
X71414Y50497D01*
X71130Y50071D01*
X71030Y49569D01*
Y18996D01*
X71130Y18494D01*
X71414Y18068D01*
X73048Y16434D01*
X72857Y15972D01*
X66096D01*
X65860Y16413D01*
X65940Y16533D01*
X66078Y17224D01*
X65940Y17916D01*
X65549Y18502D01*
X64963Y18893D01*
X64334Y19018D01*
X64009Y19343D01*
Y44435D01*
X63910Y44937D01*
X63625Y45363D01*
X56986Y52002D01*
Y56598D01*
X57342Y57132D01*
X57480Y57823D01*
X57342Y58514D01*
X56950Y59100D01*
X56365Y59492D01*
X56222Y59961D01*
X56611Y60349D01*
X80613D01*
X80804Y59887D01*
D02*
G37*
%LPC*%
G36*
X9746Y94839D02*
X8382Y94659D01*
X7111Y94133D01*
X6020Y93295D01*
X5182Y92204D01*
X4656Y90933D01*
X4476Y89569D01*
X4656Y88205D01*
X5182Y86934D01*
X6020Y85843D01*
X7111Y85005D01*
X8382Y84479D01*
X9746Y84299D01*
X11110Y84479D01*
X12381Y85005D01*
X13472Y85843D01*
X14309Y86934D01*
X14836Y88205D01*
X15015Y89569D01*
X14836Y90933D01*
X14309Y92204D01*
X13472Y93295D01*
X12381Y94133D01*
X11110Y94659D01*
X9746Y94839D01*
D02*
G37*
G36*
X112055Y94695D02*
X110691Y94515D01*
X109420Y93989D01*
X108329Y93151D01*
X107492Y92060D01*
X106965Y90789D01*
X106786Y89425D01*
X106965Y88061D01*
X107492Y86791D01*
X108329Y85699D01*
X109420Y84862D01*
X110691Y84335D01*
X112055Y84156D01*
X113419Y84335D01*
X114690Y84862D01*
X115781Y85699D01*
X116619Y86791D01*
X117145Y88061D01*
X117325Y89425D01*
X117145Y90789D01*
X116619Y92060D01*
X115781Y93151D01*
X114690Y93989D01*
X113419Y94515D01*
X112055Y94695D01*
D02*
G37*
G36*
X6201Y68871D02*
X5224Y68742D01*
X4315Y68365D01*
X3533Y67766D01*
X2934Y66985D01*
X2557Y66075D01*
X2428Y65098D01*
X2557Y64122D01*
X2934Y63212D01*
X3533Y62431D01*
X4315Y61831D01*
X5224Y61454D01*
X6201Y61326D01*
X7177Y61454D01*
X8087Y61831D01*
X8868Y62431D01*
X9468Y63212D01*
X9845Y64122D01*
X9973Y65098D01*
X9845Y66075D01*
X9468Y66985D01*
X8868Y67766D01*
X8087Y68365D01*
X7177Y68742D01*
X6201Y68871D01*
D02*
G37*
G36*
Y48871D02*
X5224Y48742D01*
X4315Y48365D01*
X3533Y47766D01*
X2934Y46985D01*
X2557Y46075D01*
X2428Y45098D01*
X2557Y44122D01*
X2934Y43212D01*
X3533Y42431D01*
X4315Y41831D01*
X5224Y41455D01*
X6201Y41326D01*
X7177Y41455D01*
X8087Y41831D01*
X8868Y42431D01*
X9468Y43212D01*
X9841Y44113D01*
X13170D01*
X13315Y43634D01*
X12895Y43353D01*
X7960Y38418D01*
X7177Y38742D01*
X6201Y38871D01*
X5224Y38742D01*
X4315Y38365D01*
X3533Y37766D01*
X2934Y36985D01*
X2557Y36075D01*
X2428Y35098D01*
X2557Y34122D01*
X2934Y33212D01*
X3533Y32431D01*
X4315Y31831D01*
X5224Y31455D01*
X6201Y31326D01*
X7177Y31455D01*
X8087Y31831D01*
X8868Y32431D01*
X9468Y33212D01*
X9845Y34122D01*
X9973Y35098D01*
X9845Y36075D01*
X9694Y36440D01*
X14367Y41113D01*
X40331D01*
X40611Y40925D01*
Y40425D01*
X40331Y40238D01*
X22055D01*
X21553Y40138D01*
X21127Y39853D01*
X16493Y35219D01*
X15864Y35094D01*
X15278Y34703D01*
X14886Y34117D01*
X14749Y33425D01*
X14886Y32734D01*
X15278Y32148D01*
X15864Y31756D01*
X16555Y31619D01*
X17246Y31756D01*
X17832Y32148D01*
X18224Y32734D01*
X18349Y33363D01*
X22599Y37613D01*
X40331D01*
X40864Y37256D01*
X41555Y37119D01*
X42246Y37256D01*
X42832Y37648D01*
X43224Y38234D01*
X43259Y38410D01*
X43268Y38423D01*
X43368Y38925D01*
X43268Y39428D01*
X43259Y39441D01*
X43224Y39617D01*
X42832Y40203D01*
X42246Y40594D01*
X42832Y41148D01*
X42832D01*
Y41148D01*
D01*
D01*
X42832D01*
X43224Y41734D01*
X43361Y42425D01*
X43224Y43117D01*
X42832Y43703D01*
Y44148D01*
X43224Y44734D01*
X43361Y45425D01*
X43224Y46117D01*
X42832Y46703D01*
X42246Y47094D01*
X41555Y47232D01*
X40864Y47094D01*
X40331Y46738D01*
X9570D01*
X9468Y46985D01*
X8868Y47766D01*
X8087Y48365D01*
X7177Y48742D01*
X6201Y48871D01*
D02*
G37*
G36*
X41555Y33732D02*
X40864Y33594D01*
X40331Y33238D01*
X28055D01*
X27553Y33138D01*
X27127Y32853D01*
X24993Y30719D01*
X24364Y30594D01*
X23778Y30202D01*
X23386Y29616D01*
X23249Y28925D01*
X23386Y28234D01*
X23778Y27648D01*
X24364Y27256D01*
X25055Y27119D01*
X25746Y27256D01*
X26332Y27648D01*
X26724Y28234D01*
X26849Y28863D01*
X28599Y30613D01*
X40331D01*
X40864Y30256D01*
X41555Y30119D01*
X42246Y30256D01*
X42832Y30648D01*
X43224Y31234D01*
X43361Y31925D01*
X43224Y32616D01*
X42832Y33202D01*
X42246Y33594D01*
X41555Y33732D01*
D02*
G37*
G36*
X117555Y28232D02*
X116864Y28094D01*
X116469Y27830D01*
X95641D01*
X95246Y28094D01*
X94555Y28232D01*
X93864Y28094D01*
X93278Y27703D01*
X92886Y27117D01*
X92749Y26425D01*
X92886Y25734D01*
X93278Y25148D01*
X93864Y24756D01*
X94555Y24619D01*
X95246Y24756D01*
X95641Y25020D01*
X116469D01*
X116864Y24756D01*
X117555Y24619D01*
X118246Y24756D01*
X118832Y25148D01*
X119224Y25734D01*
X119361Y26425D01*
X119224Y27117D01*
X118832Y27703D01*
X118246Y28094D01*
X117555Y28232D01*
D02*
G37*
G36*
X9744Y31826D02*
X9053Y31688D01*
X8467Y31297D01*
X8075Y30711D01*
X7938Y30020D01*
X8075Y29328D01*
X8108Y29280D01*
X7872Y28839D01*
X2461D01*
Y21358D01*
X9941D01*
Y27848D01*
X10188Y27965D01*
X10504Y27753D01*
Y20768D01*
X10611Y20230D01*
X10916Y19774D01*
X12294Y18396D01*
X12750Y18092D01*
X13287Y17985D01*
X13678D01*
X14073Y17721D01*
X14764Y17583D01*
X15455Y17721D01*
X16041Y18113D01*
X16433Y18699D01*
X16570Y19390D01*
X16433Y20081D01*
X16041Y20667D01*
X15455Y21059D01*
X14764Y21196D01*
X14073Y21059D01*
X13792Y20872D01*
X13314Y21350D01*
Y28642D01*
X13207Y29179D01*
X12903Y29635D01*
X11525Y31013D01*
X11069Y31318D01*
X10957Y31340D01*
X10435Y31688D01*
X9744Y31826D01*
D02*
G37*
G36*
X112108Y15901D02*
X110744Y15722D01*
X109473Y15195D01*
X108382Y14358D01*
X107545Y13267D01*
X107018Y11996D01*
X106839Y10632D01*
X107018Y9268D01*
X107545Y7997D01*
X108382Y6906D01*
X109473Y6069D01*
X110744Y5542D01*
X112108Y5362D01*
X113472Y5542D01*
X114743Y6069D01*
X115834Y6906D01*
X116672Y7997D01*
X117198Y9268D01*
X117378Y10632D01*
X117198Y11996D01*
X116672Y13267D01*
X115834Y14358D01*
X114743Y15195D01*
X113472Y15722D01*
X112108Y15901D01*
D02*
G37*
G36*
X9647D02*
X8284Y15722D01*
X7013Y15195D01*
X5921Y14358D01*
X5084Y13267D01*
X4558Y11996D01*
X4378Y10632D01*
X4558Y9268D01*
X5084Y7997D01*
X5921Y6906D01*
X7013Y6069D01*
X8284Y5542D01*
X9647Y5362D01*
X11011Y5542D01*
X12282Y6069D01*
X13374Y6906D01*
X14211Y7997D01*
X14737Y9268D01*
X14917Y10632D01*
X14737Y11996D01*
X14211Y13267D01*
X13374Y14358D01*
X12282Y15195D01*
X11011Y15722D01*
X9647Y15901D01*
D02*
G37*
G36*
X59315Y56578D02*
X58624Y56441D01*
X58038Y56049D01*
X57646Y55463D01*
X57509Y54772D01*
X57646Y54080D01*
X58038Y53494D01*
X58624Y53103D01*
X59253Y52978D01*
X63792Y48439D01*
X63784Y48428D01*
X63646Y47736D01*
X63784Y47045D01*
X64175Y46459D01*
X64762Y46067D01*
X65453Y45930D01*
X66144Y46067D01*
X66730Y46459D01*
X67122Y47045D01*
X67259Y47736D01*
X67122Y48428D01*
X66730Y49014D01*
X66513Y49159D01*
X66480Y49321D01*
X66196Y49747D01*
X61109Y54834D01*
X60984Y55463D01*
X60592Y56049D01*
X60006Y56441D01*
X59315Y56578D01*
D02*
G37*
%LPD*%
G54D11*
X22055Y38925D02*
X41555D01*
X16555Y33425D02*
X22055Y38925D01*
X25055Y28925D02*
X28055Y31925D01*
X41555D01*
X52055Y57650D02*
X56067Y61661D01*
X52055Y52425D02*
Y57650D01*
X37327Y53925D02*
X41598Y49654D01*
X6823Y45425D02*
X41555D01*
X13823Y42425D02*
X41555D01*
X16555Y53925D02*
X37327D01*
X41555Y38925D02*
X42055D01*
X20555Y64425D02*
X78555D01*
X6004Y34606D02*
X13823Y42425D01*
X6004Y44606D02*
X6823Y45425D01*
X55673Y51459D02*
Y57823D01*
X65267Y47921D02*
X65453Y47736D01*
X65267Y47921D02*
Y48819D01*
X59315Y54772D02*
X65267Y48819D01*
X94784Y88189D02*
X94882Y88287D01*
X87500Y72441D02*
Y82480D01*
X62697Y18799D02*
Y44435D01*
X55673Y51459D02*
X62697Y44435D01*
X72342Y18996D02*
Y49569D01*
X56067Y61661D02*
X81791D01*
X90240Y70110D01*
X72342Y49569D02*
X92512Y69738D01*
Y82480D01*
X82055Y53925D02*
Y56661D01*
X94784Y69390D01*
Y88189D01*
X6201Y75098D02*
X14370Y66929D01*
X81988D01*
X87500Y72441D01*
X62697Y18799D02*
X64272Y17224D01*
X74213Y17126D02*
X75000D01*
X72342Y18996D02*
X74213Y17126D01*
X90240Y70110D02*
Y94740D01*
G54D49*
X19882Y14567D02*
X80512D01*
X37700Y58894D02*
X43972D01*
X45142Y57724D01*
X14429Y59185D02*
X16689Y56925D01*
X14429Y59185D02*
Y59299D01*
X38055Y56925D02*
X41055Y53925D01*
X94555Y26425D02*
X117555D01*
X48977Y53925D02*
X49669Y54617D01*
X41055Y53925D02*
X48977D01*
X49669Y54617D02*
Y57823D01*
X84350Y18406D02*
Y18799D01*
X16689Y56925D02*
X38055D01*
X80512Y14567D02*
X84350Y18406D01*
X52756Y30610D02*
X59449D01*
X49669Y33697D02*
Y54617D01*
Y33697D02*
X52756Y30610D01*
X11909Y20768D02*
Y28642D01*
Y20768D02*
X13287Y19390D01*
X14764D01*
X10531Y30020D02*
X11909Y28642D01*
X9744Y30020D02*
X10531D01*
G54D61*
X6201Y75098D02*
D03*
Y65098D02*
D03*
Y55098D02*
D03*
Y45098D02*
D03*
Y35098D02*
D03*
G54D62*
Y25098D02*
D03*
G54D63*
X49669Y57823D02*
D03*
X55673D02*
D03*
X41555Y49654D02*
D03*
X14429Y59299D02*
D03*
X59315Y54772D02*
D03*
X94555Y26425D02*
D03*
X117555Y43925D02*
D03*
X41555Y38925D02*
D03*
Y31925D02*
D03*
Y45425D02*
D03*
Y42425D02*
D03*
X25055Y28925D02*
D03*
X20555Y64425D02*
D03*
X24555Y74425D02*
D03*
X28055Y76425D02*
D03*
Y82425D02*
D03*
Y88425D02*
D03*
X16055Y74425D02*
D03*
X52055Y52425D02*
D03*
X73055Y55925D02*
D03*
X66555Y42425D02*
D03*
X82055Y53925D02*
D03*
X117555Y26425D02*
D03*
X99555Y52425D02*
D03*
X80055Y36425D02*
D03*
X78555Y64425D02*
D03*
X16555Y33425D02*
D03*
Y53925D02*
D03*
X35055Y26925D02*
D03*
X95043Y60579D02*
D03*
X65453Y47736D02*
D03*
X92512Y82480D02*
D03*
X94882Y88287D02*
D03*
X87500Y82480D02*
D03*
X84350Y18799D02*
D03*
X110236Y80315D02*
D03*
X104035Y39370D02*
D03*
X59449Y30610D02*
D03*
X64272Y17224D02*
D03*
X75000Y17126D02*
D03*
X55413Y14370D02*
D03*
X60138Y18012D02*
D03*
X70177D02*
D03*
X79724Y18110D02*
D03*
X19882Y14567D02*
D03*
X14764Y19390D02*
D03*
X9744Y30020D02*
D03*
X44193Y57972D02*
D03*
X90158Y94488D02*
D03*
G54D64*
X43903Y57937D02*
D03*
G54D65*
X109955Y80264D02*
D03*
M02*
