G04*
G04 #@! TF.GenerationSoftware,Altium Limited,Altium Designer,21.7.2 (23)*
G04*
G04 Layer_Color=32896*
%FSLAX25Y25*%
%MOIN*%
G70*
G04*
G04 #@! TF.SameCoordinates,468C8543-70E2-46C5-B46D-702049A88486*
G04*
G04*
G04 #@! TF.FilePolarity,Positive*
G04*
G01*
G75*
%ADD11C,0.01000*%
G54D11*
X92323Y7645D02*
X91667D01*
X91011Y8301D01*
Y11581D01*
X88387D02*
Y9613D01*
X87731Y8957D01*
X85763D01*
Y11581D01*
X84451Y8957D02*
X82484D01*
X81827Y9613D01*
X82484Y10269D01*
X83795D01*
X84451Y10925D01*
X83795Y11581D01*
X81827D01*
X79860Y12236D02*
Y11581D01*
X80516D01*
X79204D01*
X79860D01*
Y9613D01*
X79204Y8957D01*
X77236Y12892D02*
Y8957D01*
Y10269D01*
X74612Y12892D01*
X76580Y10925D01*
X74612Y8957D01*
X70676Y12892D02*
X73300D01*
Y8957D01*
X70676D01*
X73300Y10925D02*
X71988D01*
X69364Y12892D02*
Y12236D01*
X68052Y10925D01*
X66741Y12236D01*
Y12892D01*
X68052Y10925D02*
Y8957D01*
X65429Y12892D02*
Y8957D01*
X62805D01*
X58869Y12892D02*
X61493D01*
Y8957D01*
X58869D01*
X61493Y10925D02*
X60181D01*
X54933Y12236D02*
X55589Y12892D01*
X56901D01*
X57557Y12236D01*
Y11581D01*
X56901Y10925D01*
X55589D01*
X54933Y10269D01*
Y9613D01*
X55589Y8957D01*
X56901D01*
X57557Y9613D01*
X50998Y12236D02*
X51653Y12892D01*
X52965D01*
X53621Y12236D01*
Y11581D01*
X52965Y10925D01*
X51653D01*
X50998Y10269D01*
Y9613D01*
X51653Y8957D01*
X52965D01*
X53621Y9613D01*
X45750Y12892D02*
Y10269D01*
X44438Y8957D01*
X43126Y10269D01*
Y12892D01*
X41814Y8957D02*
X40502D01*
X41158D01*
Y12892D01*
X41814Y12236D01*
X38534Y8957D02*
Y9613D01*
X37878D01*
Y8957D01*
X38534D01*
X35255Y12236D02*
X34599Y12892D01*
X33287D01*
X32631Y12236D01*
Y9613D01*
X33287Y8957D01*
X34599D01*
X35255Y9613D01*
Y12236D01*
X31319D02*
X30663Y12892D01*
X29351D01*
X28695Y12236D01*
Y9613D01*
X29351Y8957D01*
X30663D01*
X31319Y9613D01*
Y12236D01*
M02*
