G04*
G04 #@! TF.GenerationSoftware,Altium Limited,Altium Designer,21.7.2 (23)*
G04*
G04 Layer_Color=65535*
%FSLAX25Y25*%
%MOIN*%
G70*
G04*
G04 #@! TF.SameCoordinates,468C8543-70E2-46C5-B46D-702049A88486*
G04*
G04*
G04 #@! TF.FilePolarity,Positive*
G04*
G01*
G75*
%ADD10C,0.00787*%
%ADD11C,0.01000*%
%ADD12C,0.00984*%
%ADD13C,0.00500*%
%ADD14C,0.00394*%
G36*
X22291Y12996D02*
Y11323D01*
X17370D01*
Y12996D01*
X22291D01*
D02*
G37*
G36*
X108264Y63039D02*
X109937D01*
Y58118D01*
X108264D01*
Y63039D01*
D02*
G37*
G54D10*
X110354Y50449D02*
X109567D01*
X110354D01*
X37772Y60795D02*
X36984D01*
X37772D01*
X30406Y94362D02*
X29618D01*
X30406D01*
X84201Y57732D02*
X83413D01*
X84201D01*
X41476Y24902D02*
X40689D01*
X41476D01*
X81394Y34461D02*
Y39579D01*
X88874D02*
X93205D01*
X88874Y34461D02*
X93205D01*
Y39579D01*
X81394Y34461D02*
X85724D01*
X81394Y39579D02*
X85724D01*
X67894Y52484D02*
X72224D01*
X67894Y47366D02*
X72224D01*
X79705D02*
Y52484D01*
X75374Y47366D02*
X79705D01*
X75374Y52484D02*
X79705D01*
X67894Y47366D02*
Y52484D01*
X21996Y61264D02*
Y65595D01*
X27114Y61264D02*
Y65595D01*
X21996Y73075D02*
X27114D01*
Y68744D02*
Y73075D01*
X21996Y68744D02*
Y73075D01*
Y61264D02*
X27114D01*
X114996Y28264D02*
Y32594D01*
X120114Y28264D02*
Y32594D01*
X114996Y40075D02*
X120114D01*
Y35744D02*
Y40075D01*
X114996Y35744D02*
Y40075D01*
Y28264D02*
X120114D01*
X13496Y61264D02*
Y65595D01*
X18614Y61264D02*
Y65595D01*
X13496Y73075D02*
X18614D01*
Y68744D02*
Y73075D01*
X13496Y68744D02*
Y73075D01*
Y61264D02*
X18614D01*
X103886Y77866D02*
X108217D01*
X103886Y82984D02*
X108217D01*
X96406Y77866D02*
Y82984D01*
X100736D01*
X96406Y77866D02*
X100736D01*
X108217D02*
Y82984D01*
X96394Y74984D02*
X100724D01*
X96394Y69866D02*
X100724D01*
X108205D02*
Y74984D01*
X103874Y69866D02*
X108205D01*
X103874Y74984D02*
X108205D01*
X96394Y69866D02*
Y74984D01*
X50886Y36366D02*
X55216D01*
X50886Y41484D02*
X55216D01*
X43406Y36366D02*
Y41484D01*
X47736D01*
X43406Y36366D02*
X47736D01*
X55216D02*
Y41484D01*
X50886Y29366D02*
X55216D01*
X50886Y34484D02*
X55216D01*
X43406Y29366D02*
Y34484D01*
X47736D01*
X43406Y29366D02*
X47736D01*
X55216D02*
Y34484D01*
X50886Y45866D02*
X55216D01*
X50886Y50984D02*
X55216D01*
X43406Y45866D02*
Y50984D01*
X47736D01*
X43406Y45866D02*
X47736D01*
X55216D02*
Y50984D01*
X74496Y45087D02*
X79614D01*
Y33276D02*
Y37606D01*
X74496Y33276D02*
Y37606D01*
Y33276D02*
X79614D01*
X74496Y40756D02*
Y45087D01*
X79614Y40756D02*
Y45087D01*
X99410Y21555D02*
Y26673D01*
X106890D02*
X111221D01*
X106890Y21555D02*
X111221D01*
Y26673D01*
X99410Y21555D02*
X103740D01*
X99410Y26673D02*
X103740D01*
X1201Y80098D02*
X11201D01*
X1201Y50098D02*
X11201D01*
X1201D02*
Y79823D01*
X11201Y50098D02*
Y80020D01*
X1201Y20098D02*
X11201D01*
X1201D02*
Y60098D01*
X11201Y20098D02*
Y60098D01*
X1201D02*
X11201D01*
X60917Y34327D02*
X64067D01*
X60917D02*
Y37476D01*
X69579Y34327D02*
X72728D01*
Y37476D01*
G54D11*
X117961Y89425D02*
X117876Y90423D01*
X117623Y91393D01*
X117211Y92305D01*
X116650Y93135D01*
X115957Y93858D01*
X115151Y94454D01*
X114257Y94905D01*
X113299Y95198D01*
X112306Y95325D01*
X111305Y95283D01*
X110326Y95072D01*
X109397Y94698D01*
X108544Y94173D01*
X107792Y93511D01*
X107162Y92732D01*
X106674Y91858D01*
X106340Y90913D01*
X106171Y89926D01*
Y88924D01*
X106340Y87937D01*
X106674Y86993D01*
X107162Y86118D01*
X107792Y85339D01*
X108544Y84677D01*
X109397Y84152D01*
X110326Y83779D01*
X111305Y83568D01*
X112306Y83525D01*
X113299Y83652D01*
X114257Y83946D01*
X115151Y84396D01*
X115957Y84992D01*
X116650Y85715D01*
X117211Y86545D01*
X117623Y87458D01*
X117876Y88427D01*
X117961Y89425D01*
X118014Y10632D02*
X117929Y11630D01*
X117676Y12599D01*
X117264Y13512D01*
X116703Y14342D01*
X116010Y15065D01*
X115204Y15661D01*
X114310Y16112D01*
X113352Y16405D01*
X112359Y16532D01*
X111358Y16490D01*
X110379Y16279D01*
X109449Y15905D01*
X108597Y15380D01*
X107845Y14718D01*
X107215Y13939D01*
X106727Y13065D01*
X106393Y12120D01*
X106224Y11133D01*
Y10131D01*
X106393Y9144D01*
X106727Y8200D01*
X107215Y7325D01*
X107845Y6546D01*
X108597Y5884D01*
X109449Y5359D01*
X110379Y4985D01*
X111358Y4774D01*
X112359Y4732D01*
X113352Y4859D01*
X114310Y5152D01*
X115204Y5603D01*
X116010Y6199D01*
X116703Y6922D01*
X117264Y7752D01*
X117676Y8665D01*
X117929Y9634D01*
X118014Y10632D01*
X15553D02*
X15468Y11630D01*
X15216Y12599D01*
X14803Y13512D01*
X14242Y14342D01*
X13549Y15065D01*
X12744Y15661D01*
X11849Y16112D01*
X10892Y16405D01*
X9898Y16532D01*
X8897Y16490D01*
X7918Y16279D01*
X6989Y15905D01*
X6136Y15380D01*
X5384Y14718D01*
X4755Y13939D01*
X4266Y13065D01*
X3932Y12120D01*
X3763Y11133D01*
Y10131D01*
X3932Y9144D01*
X4266Y8200D01*
X4755Y7325D01*
X5384Y6546D01*
X6136Y5884D01*
X6989Y5359D01*
X7918Y4985D01*
X8897Y4774D01*
X9898Y4732D01*
X10892Y4859D01*
X11849Y5152D01*
X12744Y5603D01*
X13549Y6199D01*
X14242Y6922D01*
X14803Y7752D01*
X15216Y8665D01*
X15468Y9634D01*
X15553Y10632D01*
X15651Y89569D02*
X15566Y90567D01*
X15314Y91536D01*
X14901Y92449D01*
X14341Y93279D01*
X13647Y94002D01*
X12842Y94598D01*
X11948Y95049D01*
X10990Y95342D01*
X9996Y95469D01*
X8996Y95427D01*
X8017Y95216D01*
X7087Y94842D01*
X6234Y94317D01*
X5482Y93655D01*
X4853Y92876D01*
X4365Y92001D01*
X4031Y91057D01*
X3862Y90070D01*
Y89068D01*
X4031Y88081D01*
X4365Y87137D01*
X4853Y86262D01*
X5482Y85483D01*
X6234Y84821D01*
X7087Y84296D01*
X8017Y83922D01*
X8996Y83711D01*
X9996Y83669D01*
X10990Y83796D01*
X11948Y84089D01*
X12842Y84540D01*
X13647Y85136D01*
X14341Y85859D01*
X14901Y86689D01*
X15314Y87602D01*
X15566Y88571D01*
X15651Y89569D01*
X39862Y19488D02*
X43209D01*
X40059Y2165D02*
Y4134D01*
X39862Y18602D02*
Y19488D01*
X82382D02*
X85827D01*
Y18602D02*
Y19488D01*
X40059Y2165D02*
X85532D01*
Y4429D01*
X101378Y54625D02*
Y51345D01*
X102034Y50689D01*
X103346D01*
X104002Y51345D01*
Y54625D01*
X107938Y50689D02*
X105314D01*
X107938Y53313D01*
Y53969D01*
X107282Y54625D01*
X105970D01*
X105314Y53969D01*
X13056Y41386D02*
X16336D01*
X16992Y42042D01*
Y43354D01*
X16336Y44010D01*
X13056D01*
X13712Y45322D02*
X13056Y45978D01*
Y47289D01*
X13712Y47945D01*
X14368D01*
X15024Y47289D01*
Y46633D01*
Y47289D01*
X15680Y47945D01*
X16336D01*
X16992Y47289D01*
Y45978D01*
X16336Y45322D01*
X116275Y44549D02*
X115619Y43893D01*
Y42581D01*
X116275Y41925D01*
X118899D01*
X119555Y42581D01*
Y43893D01*
X118899Y44549D01*
X119555Y48485D02*
Y45861D01*
X116931Y48485D01*
X116275D01*
X115619Y47829D01*
Y46517D01*
X116275Y45861D01*
X15025Y79362D02*
X14369Y80018D01*
X13058D01*
X12402Y79362D01*
Y76739D01*
X13058Y76083D01*
X14369D01*
X15025Y76739D01*
X16337Y79362D02*
X16993Y80018D01*
X18305D01*
X18961Y79362D01*
Y78707D01*
X18305Y78051D01*
X17649D01*
X18305D01*
X18961Y77395D01*
Y76739D01*
X18305Y76083D01*
X16993D01*
X16337Y76739D01*
X22899Y79362D02*
X22243Y80018D01*
X20932D01*
X20276Y79362D01*
Y76739D01*
X20932Y76083D01*
X22243D01*
X22899Y76739D01*
X26179Y76083D02*
Y80018D01*
X24211Y78051D01*
X26835D01*
X111555Y70425D02*
Y74361D01*
X113523D01*
X114179Y73705D01*
Y72393D01*
X113523Y71737D01*
X111555D01*
X112867D02*
X114179Y70425D01*
X115491Y74361D02*
X118115D01*
Y73705D01*
X115491Y71081D01*
Y70425D01*
X111555Y77925D02*
Y81861D01*
X113523D01*
X114179Y81205D01*
Y79893D01*
X113523Y79237D01*
X111555D01*
X112867D02*
X114179Y77925D01*
X115491Y81205D02*
X116147Y81861D01*
X117459D01*
X118115Y81205D01*
Y80549D01*
X117459Y79893D01*
X118115Y79237D01*
Y78581D01*
X117459Y77925D01*
X116147D01*
X115491Y78581D01*
Y79237D01*
X116147Y79893D01*
X115491Y80549D01*
Y81205D01*
X116147Y79893D02*
X117459D01*
X71716Y53295D02*
Y57231D01*
X73684D01*
X74340Y56575D01*
Y55263D01*
X73684Y54607D01*
X71716D01*
X73028D02*
X74340Y53295D01*
X75652D02*
X76964D01*
X76308D01*
Y57231D01*
X75652Y56575D01*
X56201Y29134D02*
Y33070D01*
X58169D01*
X58825Y32414D01*
Y31102D01*
X58169Y30446D01*
X56201D01*
X57513D02*
X58825Y29134D01*
X62104D02*
Y33070D01*
X60136Y31102D01*
X62760D01*
X60055Y34925D02*
X56119D01*
Y36893D01*
X56775Y37549D01*
X58087D01*
X58743Y36893D01*
Y34925D01*
Y36237D02*
X60055Y37549D01*
X56119Y41485D02*
X56775Y40173D01*
X58087Y38861D01*
X59399D01*
X60055Y39517D01*
Y40829D01*
X59399Y41485D01*
X58743D01*
X58087Y40829D01*
Y38861D01*
X60555Y44925D02*
X56619D01*
Y46893D01*
X57275Y47549D01*
X58587D01*
X59243Y46893D01*
Y44925D01*
Y46237D02*
X60555Y47549D01*
X56619Y51485D02*
Y48861D01*
X58587D01*
X57931Y50173D01*
Y50829D01*
X58587Y51485D01*
X59899D01*
X60555Y50829D01*
Y49517D01*
X59899Y48861D01*
X21555Y95361D02*
Y92081D01*
X22211Y91425D01*
X23523D01*
X24179Y92081D01*
Y95361D01*
X25491Y91425D02*
X26803D01*
X26147D01*
Y95361D01*
X25491Y94705D01*
X87500Y28928D02*
Y32864D01*
X89468D01*
X90124Y32208D01*
Y30896D01*
X89468Y30240D01*
X87500D01*
X88812D02*
X90124Y28928D01*
X94060D02*
X91436D01*
X94060Y31552D01*
Y32208D01*
X93404Y32864D01*
X92092D01*
X91436Y32208D01*
X91762Y56215D02*
Y58839D01*
X91106Y59495D01*
X89794D01*
X89138Y58839D01*
Y56215D01*
X89794Y55559D01*
X91106D01*
X90450Y56871D02*
X91762Y55559D01*
X91106D02*
X91762Y56215D01*
X95697Y55559D02*
X93073D01*
X95697Y58183D01*
Y58839D01*
X95041Y59495D01*
X93730D01*
X93073Y58839D01*
X80610Y40945D02*
Y44881D01*
X82578D01*
X83234Y44225D01*
Y42913D01*
X82578Y42257D01*
X80610D01*
X81922D02*
X83234Y40945D01*
X84546Y44225D02*
X85202Y44881D01*
X86514D01*
X87170Y44225D01*
Y43569D01*
X86514Y42913D01*
X85858D01*
X86514D01*
X87170Y42257D01*
Y41601D01*
X86514Y40945D01*
X85202D01*
X84546Y41601D01*
X104494Y19520D02*
X103838Y20176D01*
X102526D01*
X101870Y19520D01*
Y16896D01*
X102526Y16240D01*
X103838D01*
X104494Y16896D01*
X105806Y16240D02*
X107118D01*
X106462D01*
Y20176D01*
X105806Y19520D01*
X98032Y68306D02*
Y64370D01*
X99999D01*
X100655Y65026D01*
Y67650D01*
X99999Y68306D01*
X98032D01*
X104591Y64370D02*
X101967D01*
X104591Y66994D01*
Y67650D01*
X103935Y68306D01*
X102623D01*
X101967Y67650D01*
X74797Y28632D02*
Y31256D01*
X74141Y31912D01*
X72829D01*
X72173Y31256D01*
Y28632D01*
X72829Y27976D01*
X74141D01*
X73485Y29288D02*
X74797Y27976D01*
X74141D02*
X74797Y28632D01*
X76109Y27976D02*
X77421D01*
X76765D01*
Y31912D01*
X76109Y31256D01*
X23720Y23818D02*
Y19882D01*
X25688D01*
X26344Y20538D01*
Y23162D01*
X25688Y23818D01*
X23720D01*
X27656Y19882D02*
X28968D01*
X28312D01*
Y23818D01*
X27656Y23162D01*
G54D12*
X70661Y31768D02*
X69923Y32194D01*
Y31341D01*
X70661Y31768D01*
G54D13*
X112535Y34307D02*
X113110D01*
Y44543D01*
X112535D02*
X113110D01*
X95000D02*
X95575D01*
X95000Y34307D02*
Y44543D01*
Y34307D02*
X95575D01*
X37476Y36051D02*
Y51799D01*
X17634Y36051D02*
Y51799D01*
X33949Y61882D02*
Y67512D01*
Y61882D02*
X40563D01*
X76547D02*
X83161D01*
Y67512D01*
X81091Y51295D02*
Y54661D01*
X92508Y51295D02*
Y54661D01*
X89260D02*
X92508D01*
X81091D02*
X84339D01*
X39665Y19783D02*
X42520D01*
X83071D02*
X85925D01*
G54D14*
X87005Y23471D02*
X86661Y23814D01*
X85974D01*
X85630Y23471D01*
Y22096D01*
X85974Y21752D01*
X86661D01*
X87005Y22096D01*
X88723Y23814D02*
X88036D01*
X87692Y23471D01*
Y22096D01*
X88036Y21752D01*
X88723D01*
X89067Y22096D01*
Y23471D01*
X88723Y23814D01*
X89755Y21752D02*
Y23814D01*
X91129Y21752D01*
Y23814D01*
X91817Y21752D02*
X92504D01*
X92161D01*
Y23814D01*
X91817Y23471D01*
M02*
