M48
;Layer_Color=9474304
;FILE_FORMAT=2:5
INCH,LZ
;TYPE=PLATED
T1F00S00C0.01181
T2F00S00C0.03543
%
T01
X0014764Y001939
X0019882Y0014567
X0025055Y0028925
X0035055Y0026925
X0041555Y0031925
Y0038925
Y0042425
Y0045425
Y0049654
X0044193Y0057972
X0049669Y0057823
X0055673
X0059315Y0054772
X0052055Y0052425
X0065453Y0047736
X0059449Y003061
X0060138Y0018012
X0064272Y0017224
X0055413Y001437
X0016555Y0033425
X0009744Y003002
X0016555Y0053925
X0014429Y0059299
X0020555Y0064425
X0024555Y0074425
X0028055Y0076425
Y0082425
Y0088425
X0016055Y0074425
X0078555Y0064425
X0073055Y0055925
X0082055Y0053925
X0099555Y0052425
X0095043Y0060579
X0092512Y008248
X00875
X0094882Y0088287
X0090158Y0094488
X0110236Y0080315
X0117555Y0043925
Y0026425
X0094555
X008435Y0018799
X0079724Y001811
X0075Y0017126
X0070177Y0018012
X0066555Y0042425
X0080055Y0036425
X0104035Y003937
T02
X0006201Y0025098
Y0035098
Y0045098
Y0055098
Y0065098
Y0075098
M30
