%FSTAX23Y23*%
%MOIN*%
%SFA1B1*%

%IPPOS*%
%AMD36*
4,1,8,0.015600,-0.029800,0.015600,0.029800,0.008700,0.036700,-0.008700,0.036700,-0.015600,0.029800,-0.015600,-0.029800,-0.008700,-0.036700,0.008700,-0.036700,0.015600,-0.029800,0.0*
1,1,0.013800,0.008700,-0.029800*
1,1,0.013800,0.008700,0.029800*
1,1,0.013800,-0.008700,0.029800*
1,1,0.013800,-0.008700,-0.029800*
%
%AMD40*
4,1,8,-0.016000,0.018500,-0.016000,-0.018500,-0.009000,-0.025500,0.009000,-0.025500,0.016000,-0.018500,0.016000,0.018500,0.009000,0.025500,-0.009000,0.025500,-0.016000,0.018500,0.0*
1,1,0.014000,-0.009000,0.018500*
1,1,0.014000,-0.009000,-0.018500*
1,1,0.014000,0.009000,-0.018500*
1,1,0.014000,0.009000,0.018500*
%
%ADD30R,0.049340X0.031620*%
%ADD31R,0.047370X0.039500*%
%ADD32R,0.003940X0.003940*%
%ADD33O,0.086740X0.047370*%
%ADD34C,0.068000*%
%ADD35R,0.034770X0.067060*%
G04~CAMADD=36~8~0.0~0.0~733.5~312.3~69.0~0.0~15~0.0~0.0~0.0~0.0~0~0.0~0.0~0.0~0.0~0~0.0~0.0~0.0~270.0~313.0~734.0*
%ADD36D36*%
%ADD37R,0.039500X0.047370*%
%ADD38O,0.047370X0.086740*%
%ADD39R,0.086740X0.047370*%
G04~CAMADD=40~8~0.0~0.0~509.1~320.2~70.0~0.0~15~0.0~0.0~0.0~0.0~0~0.0~0.0~0.0~0.0~0~0.0~0.0~0.0~90.0~322.0~509.0*
%ADD40D40*%
%ADD41R,0.031620X0.065090*%
%ADD42R,0.031620X0.049340*%
%ADD43R,0.130050X0.126110*%
%ADD44R,0.039500X0.070990*%
%ADD45R,0.090680X0.126110*%
%ADD46C,0.067060*%
%ADD47R,0.067060X0.067060*%
%ADD48C,0.027690*%
%LNsrt-wren-25-22-v103-1*%
%LPD*%
G36*
X00998Y00311D02*
Y00439D01*
X01023*
Y00486*
X01057*
Y00439*
X01082*
Y00311*
X00998*
G37*
G54D30*
X01019Y00605D03*
X01129D03*
G54D31*
X00845Y0037D03*
X009D03*
X00765Y00499D03*
X0071D03*
X00995Y00804D03*
X0105D03*
Y00724D03*
X00995D03*
X00465Y00389D03*
X0052D03*
X00465Y00319D03*
X0052D03*
X00465Y00484D03*
X0052D03*
X01025Y00241D03*
X0108D03*
G54D32*
X00811Y00707D03*
G54D33*
X00811Y00707D03*
Y00766D03*
Y00825D03*
Y00884D03*
Y00943D03*
X00359Y00707D03*
Y00766D03*
Y00825D03*
Y00884D03*
G54D34*
X0104Y00382D03*
G54D35*
X01099Y00459D03*
X00981D03*
Y00329D03*
X01099D03*
G54D36*
X0035Y00542D03*
X003D03*
X0025D03*
X002D03*
Y00335D03*
X0025D03*
X003D03*
X0035D03*
G54D37*
X00245Y00699D03*
Y00644D03*
X01175Y00369D03*
Y00314D03*
X0016Y00699D03*
Y00644D03*
X0077Y00419D03*
Y00364D03*
G54D38*
X00733Y00638D03*
X00674D03*
X00615D03*
X00556D03*
X00496D03*
X00437D03*
G54D39*
X00359Y00943D03*
G54D40*
X00867Y00563D03*
X00904Y00478D03*
X00831D03*
G54D41*
X00668Y00324D03*
X0063Y00417D03*
X00705D03*
G54D42*
X00198Y00192D03*
Y00082D03*
G54D43*
X0094Y00106D03*
X00315D03*
G54D44*
X00554Y00229D03*
X00603D03*
X00504D03*
X00455D03*
X00652D03*
X00701D03*
X0075D03*
X008D03*
G54D45*
X00355Y00115D03*
X009D03*
G54D46*
X00062Y0075D03*
Y0065D03*
Y0055D03*
Y0045D03*
Y0035D03*
G54D47*
X00062Y0025D03*
G54D48*
X00496Y00578D03*
X00556D03*
X00415Y00496D03*
X00144Y00592D03*
X00593Y00547D03*
X00945Y00264D03*
X01175Y00439D03*
X00415Y00389D03*
Y00319D03*
Y00454D03*
Y00424D03*
X0025Y00289D03*
X00205Y00644D03*
X00245Y00744D03*
X0028Y00764D03*
Y00824D03*
Y00884D03*
X0016Y00744D03*
X0052Y00524D03*
X0073Y00559D03*
X00665Y00424D03*
X0082Y00539D03*
X01175Y00264D03*
X00995Y00524D03*
X008Y00364D03*
X00785Y00644D03*
X00165Y00334D03*
Y00539D03*
X0035Y00269D03*
X0095Y00605D03*
X00654Y00477D03*
X00925Y00824D03*
X00948Y00882D03*
X00875Y00824D03*
X00843Y00187D03*
X01102Y00803D03*
X0104Y00393D03*
X00594Y00306D03*
X00642Y00172D03*
X0075Y00171D03*
X00554Y00143D03*
X00601Y0018D03*
X00701D03*
X00797Y00181D03*
X00198Y00145D03*
X00147Y00193D03*
X00097Y003D03*
X00441Y00579D03*
X00901Y00944D03*
M02*