%FSTAX23Y23*%
%MOIN*%
%SFA1B1*%

%IPPOS*%
%AMD20*
4,1,8,0.011600,-0.029800,0.011600,0.029800,0.008700,0.032700,-0.008700,0.032700,-0.011600,0.029800,-0.011600,-0.029800,-0.008700,-0.032700,0.008700,-0.032700,0.011600,-0.029800,0.0*
1,1,0.005800,0.008700,-0.029800*
1,1,0.005800,0.008700,0.029800*
1,1,0.005800,-0.008700,0.029800*
1,1,0.005800,-0.008700,-0.029800*
%
%AMD24*
4,1,8,-0.012000,0.018500,-0.012000,-0.018500,-0.009000,-0.021500,0.009000,-0.021500,0.012000,-0.018500,0.012000,0.018500,0.009000,0.021500,-0.009000,0.021500,-0.012000,0.018500,0.0*
1,1,0.006000,-0.009000,0.018500*
1,1,0.006000,-0.009000,-0.018500*
1,1,0.006000,0.009000,-0.018500*
1,1,0.006000,0.009000,0.018500*
%
%ADD15R,0.041340X0.023620*%
%ADD16R,0.039370X0.031500*%
%ADD17O,0.078740X0.039370*%
%ADD18C,0.060000*%
%ADD19R,0.026770X0.059060*%
G04~CAMADD=20~8~0.0~0.0~653.5~232.3~29.0~0.0~15~0.0~0.0~0.0~0.0~0~0.0~0.0~0.0~0.0~0~0.0~0.0~0.0~270.0~233.0~654.0*
%ADD20D20*%
%ADD21R,0.031500X0.039370*%
%ADD22O,0.039370X0.078740*%
%ADD23R,0.078740X0.039370*%
G04~CAMADD=24~8~0.0~0.0~429.1~240.2~30.0~0.0~15~0.0~0.0~0.0~0.0~0~0.0~0.0~0.0~0.0~0~0.0~0.0~0.0~90.0~242.0~429.0*
%ADD24D24*%
%ADD25R,0.023620X0.057090*%
%ADD26R,0.023620X0.041340*%
%ADD27R,0.122050X0.118110*%
%ADD28R,0.031500X0.062990*%
%ADD29R,0.082680X0.118110*%
%ADD32R,0.003940X0.003940*%
%ADD61C,0.059060*%
%ADD62R,0.059060X0.059060*%
%LNsrt-wren-25-22-v103-1*%
%LPD*%
G54D15*
X01019Y00605D03*
X01129D03*
G54D16*
X00845Y0037D03*
X009D03*
X00765Y00499D03*
X0071D03*
X00995Y00804D03*
X0105D03*
Y00724D03*
X00995D03*
X00465Y00389D03*
X0052D03*
X00465Y00319D03*
X0052D03*
X00465Y00484D03*
X0052D03*
X01025Y00241D03*
X0108D03*
G54D17*
X00811Y00707D03*
Y00766D03*
Y00825D03*
Y00884D03*
Y00943D03*
X00359Y00707D03*
Y00766D03*
Y00825D03*
Y00884D03*
G54D18*
X0104Y00382D03*
G54D19*
X01099Y00459D03*
X0104D03*
X00981D03*
Y00329D03*
X01099D03*
G54D20*
X0035Y00542D03*
X003D03*
X0025D03*
X002D03*
Y00335D03*
X0025D03*
X003D03*
X0035D03*
G54D21*
X00245Y00699D03*
Y00644D03*
X01175Y00369D03*
Y00314D03*
X0016Y00699D03*
Y00644D03*
X0077Y00419D03*
Y00364D03*
G54D22*
X00733Y00638D03*
X00674D03*
X00615D03*
X00556D03*
X00496D03*
X00437D03*
G54D23*
X00359Y00943D03*
G54D24*
X00867Y00563D03*
X00904Y00478D03*
X00831D03*
G54D25*
X00668Y00324D03*
X0063Y00417D03*
X00705D03*
G54D26*
X00198Y00192D03*
Y00082D03*
G54D27*
X0094Y00106D03*
X00315D03*
G54D28*
X00554Y00229D03*
X00603D03*
X00504D03*
X00455D03*
X00652D03*
X00701D03*
X0075D03*
X008D03*
G54D29*
X00355Y00115D03*
X009D03*
G54D32*
X00811Y00707D03*
Y00943D03*
Y00884D03*
Y00825D03*
Y00766D03*
X00733Y00638D03*
X00674D03*
X00615D03*
X00556D03*
X00496D03*
X00437D03*
X00359Y00707D03*
Y00766D03*
Y00825D03*
Y00884D03*
Y00943D03*
G54D61*
X00062Y0075D03*
Y0065D03*
Y0055D03*
Y0045D03*
Y0035D03*
G54D62*
X00062Y0025D03*
M02*