%FSTAX23Y23*%
%MOIN*%
%SFA1B1*%

%IPPOS*%
%ADD46C,0.005000*%
%ADD67C,0.006670*%
%LNsrt-wren-25-22-v103-1*%
%LPD*%
G54D46*
X00042Y0073D02*
Y0077D01*
X00082*
Y0073*
X00042*
Y0063D02*
Y0067D01*
X00082*
Y0063*
X00042*
Y0053D02*
Y0057D01*
X00082*
Y0053*
X00042*
Y0043D02*
Y0047D01*
X00082*
Y0043*
X00042*
Y0033D02*
Y0037D01*
X00082*
Y0033*
X00042*
Y0023D02*
Y0027D01*
X00082*
Y0023*
X00042*
G54D67*
X00516Y00578D02*
D01*
X00516Y00579*
X00516Y00581*
X00516Y00582*
X00515Y00583*
X00515Y00585*
X00514Y00586*
X00514Y00587*
X00513Y00588*
X00512Y00589*
X00512Y00591*
X00511Y00592*
X0051Y00593*
X00509Y00593*
X00507Y00594*
X00506Y00595*
X00505Y00596*
X00504Y00596*
X00502Y00597*
X00501Y00597*
X005Y00597*
X00498Y00598*
X00497Y00598*
X00495*
X00494Y00598*
X00493Y00597*
X00491Y00597*
X0049Y00597*
X00489Y00596*
X00487Y00596*
X00486Y00595*
X00485Y00594*
X00484Y00593*
X00483Y00593*
X00482Y00592*
X00481Y00591*
X0048Y00589*
X00479Y00588*
X00479Y00587*
X00478Y00586*
X00477Y00585*
X00477Y00583*
X00477Y00582*
X00476Y00581*
X00476Y00579*
X00476Y00578*
X00476Y00576*
X00476Y00575*
X00477Y00574*
X00477Y00572*
X00477Y00571*
X00478Y0057*
X00479Y00568*
X00479Y00567*
X0048Y00566*
X00481Y00565*
X00482Y00564*
X00483Y00563*
X00484Y00562*
X00485Y00561*
X00486Y0056*
X00487Y0056*
X00489Y00559*
X0049Y00559*
X00491Y00558*
X00493Y00558*
X00494Y00558*
X00495Y00558*
X00497*
X00498Y00558*
X005Y00558*
X00501Y00558*
X00502Y00559*
X00504Y00559*
X00505Y0056*
X00506Y0056*
X00507Y00561*
X00509Y00562*
X0051Y00563*
X00511Y00564*
X00512Y00565*
X00512Y00566*
X00513Y00567*
X00514Y00568*
X00514Y0057*
X00515Y00571*
X00515Y00572*
X00516Y00574*
X00516Y00575*
X00516Y00576*
X00516Y00578*
X00576D02*
D01*
X00576Y00579*
X00576Y00581*
X00576Y00582*
X00575Y00583*
X00575Y00585*
X00575Y00586*
X00574Y00587*
X00573Y00588*
X00572Y00589*
X00572Y00591*
X00571Y00592*
X0057Y00593*
X00569Y00593*
X00567Y00594*
X00566Y00595*
X00565Y00596*
X00564Y00596*
X00562Y00597*
X00561Y00597*
X0056Y00597*
X00558Y00598*
X00557Y00598*
X00556*
X00554Y00598*
X00553Y00597*
X00551Y00597*
X0055Y00597*
X00549Y00596*
X00547Y00596*
X00546Y00595*
X00545Y00594*
X00544Y00593*
X00543Y00593*
X00542Y00592*
X00541Y00591*
X0054Y00589*
X00539Y00588*
X00539Y00587*
X00538Y00586*
X00537Y00585*
X00537Y00583*
X00537Y00582*
X00536Y00581*
X00536Y00579*
X00536Y00578*
X00536Y00576*
X00536Y00575*
X00537Y00574*
X00537Y00572*
X00537Y00571*
X00538Y0057*
X00539Y00568*
X00539Y00567*
X0054Y00566*
X00541Y00565*
X00542Y00564*
X00543Y00563*
X00544Y00562*
X00545Y00561*
X00546Y0056*
X00547Y0056*
X00549Y00559*
X0055Y00559*
X00551Y00558*
X00553Y00558*
X00554Y00558*
X00556Y00558*
X00557*
X00558Y00558*
X0056Y00558*
X00561Y00558*
X00562Y00559*
X00564Y00559*
X00565Y0056*
X00566Y0056*
X00567Y00561*
X00569Y00562*
X0057Y00563*
X00571Y00564*
X00572Y00565*
X00572Y00566*
X00573Y00567*
X00574Y00568*
X00575Y0057*
X00575Y00571*
X00575Y00572*
X00576Y00574*
X00576Y00575*
X00576Y00576*
X00576Y00578*
X00435Y00496D02*
D01*
X00435Y00497*
X00435Y00499*
X00435Y005*
X00434Y00502*
X00434Y00503*
X00433Y00504*
X00433Y00505*
X00432Y00507*
X00431Y00508*
X0043Y00509*
X00429Y0051*
X00428Y00511*
X00427Y00512*
X00426Y00513*
X00425Y00513*
X00424Y00514*
X00423Y00515*
X00421Y00515*
X0042Y00515*
X00419Y00516*
X00417Y00516*
X00416Y00516*
X00414*
X00413Y00516*
X00412Y00516*
X0041Y00515*
X00409Y00515*
X00408Y00515*
X00406Y00514*
X00405Y00513*
X00404Y00513*
X00403Y00512*
X00402Y00511*
X00401Y0051*
X004Y00509*
X00399Y00508*
X00398Y00507*
X00397Y00505*
X00397Y00504*
X00396Y00503*
X00396Y00502*
X00395Y005*
X00395Y00499*
X00395Y00497*
X00395Y00496*
X00395Y00495*
X00395Y00493*
X00395Y00492*
X00396Y00491*
X00396Y00489*
X00397Y00488*
X00397Y00487*
X00398Y00485*
X00399Y00484*
X004Y00483*
X00401Y00482*
X00402Y00481*
X00403Y0048*
X00404Y00479*
X00405Y00479*
X00406Y00478*
X00408Y00477*
X00409Y00477*
X0041Y00477*
X00412Y00476*
X00413Y00476*
X00414Y00476*
X00416*
X00417Y00476*
X00419Y00476*
X0042Y00477*
X00421Y00477*
X00423Y00477*
X00424Y00478*
X00425Y00479*
X00426Y00479*
X00427Y0048*
X00428Y00481*
X00429Y00482*
X0043Y00483*
X00431Y00484*
X00432Y00485*
X00433Y00487*
X00433Y00488*
X00434Y00489*
X00434Y00491*
X00435Y00492*
X00435Y00493*
X00435Y00495*
X00435Y00496*
X00164Y00592D02*
D01*
X00164Y00594*
X00164Y00595*
X00163Y00597*
X00163Y00598*
X00163Y00599*
X00162Y00601*
X00161Y00602*
X00161Y00603*
X0016Y00604*
X00159Y00605*
X00158Y00606*
X00157Y00607*
X00156Y00608*
X00155Y00609*
X00154Y0061*
X00153Y0061*
X00151Y00611*
X0015Y00612*
X00149Y00612*
X00147Y00612*
X00146Y00612*
X00144Y00612*
X00143*
X00142Y00612*
X0014Y00612*
X00139Y00612*
X00138Y00612*
X00136Y00611*
X00135Y0061*
X00134Y0061*
X00133Y00609*
X00131Y00608*
X0013Y00607*
X00129Y00606*
X00128Y00605*
X00128Y00604*
X00127Y00603*
X00126Y00602*
X00126Y00601*
X00125Y00599*
X00125Y00598*
X00124Y00597*
X00124Y00595*
X00124Y00594*
X00124Y00592*
X00124Y00591*
X00124Y0059*
X00124Y00588*
X00125Y00587*
X00125Y00586*
X00126Y00584*
X00126Y00583*
X00127Y00582*
X00128Y00581*
X00128Y0058*
X00129Y00579*
X0013Y00578*
X00131Y00577*
X00133Y00576*
X00134Y00575*
X00135Y00575*
X00136Y00574*
X00138Y00573*
X00139Y00573*
X0014Y00573*
X00142Y00573*
X00143Y00573*
X00144*
X00146Y00573*
X00147Y00573*
X00149Y00573*
X0015Y00573*
X00151Y00574*
X00153Y00575*
X00154Y00575*
X00155Y00576*
X00156Y00577*
X00157Y00578*
X00158Y00579*
X00159Y0058*
X0016Y00581*
X00161Y00582*
X00161Y00583*
X00162Y00584*
X00163Y00586*
X00163Y00587*
X00163Y00588*
X00164Y0059*
X00164Y00591*
X00164Y00592*
X00613Y00547D02*
D01*
X00613Y00549*
X00612Y0055*
X00612Y00551*
X00612Y00553*
X00611Y00554*
X00611Y00555*
X0061Y00557*
X0061Y00558*
X00609Y00559*
X00608Y0056*
X00607Y00561*
X00606Y00562*
X00605Y00563*
X00604Y00564*
X00603Y00565*
X00601Y00565*
X006Y00566*
X00599Y00566*
X00597Y00567*
X00596Y00567*
X00595Y00567*
X00593Y00567*
X00592*
X00591Y00567*
X00589Y00567*
X00588Y00567*
X00586Y00566*
X00585Y00566*
X00584Y00565*
X00583Y00565*
X00581Y00564*
X0058Y00563*
X00579Y00562*
X00578Y00561*
X00577Y0056*
X00576Y00559*
X00576Y00558*
X00575Y00557*
X00574Y00555*
X00574Y00554*
X00573Y00553*
X00573Y00551*
X00573Y0055*
X00573Y00549*
X00573Y00547*
X00573Y00546*
X00573Y00544*
X00573Y00543*
X00573Y00542*
X00574Y0054*
X00574Y00539*
X00575Y00538*
X00576Y00537*
X00576Y00535*
X00577Y00534*
X00578Y00533*
X00579Y00532*
X0058Y00531*
X00581Y00531*
X00583Y0053*
X00584Y00529*
X00585Y00529*
X00586Y00528*
X00588Y00528*
X00589Y00528*
X00591Y00527*
X00592Y00527*
X00593*
X00595Y00527*
X00596Y00528*
X00597Y00528*
X00599Y00528*
X006Y00529*
X00601Y00529*
X00603Y0053*
X00604Y00531*
X00605Y00531*
X00606Y00532*
X00607Y00533*
X00608Y00534*
X00609Y00535*
X0061Y00537*
X0061Y00538*
X00611Y00539*
X00611Y0054*
X00612Y00542*
X00612Y00543*
X00612Y00544*
X00613Y00546*
X00613Y00547*
X00965Y00264D02*
D01*
X00965Y00265*
X00965Y00267*
X00965Y00268*
X00964Y00269*
X00964Y00271*
X00963Y00272*
X00963Y00273*
X00962Y00274*
X00961Y00276*
X0096Y00277*
X00959Y00278*
X00958Y00279*
X00957Y0028*
X00956Y0028*
X00955Y00281*
X00954Y00282*
X00953Y00282*
X00951Y00283*
X0095Y00283*
X00949Y00283*
X00947Y00284*
X00946Y00284*
X00944*
X00943Y00284*
X00942Y00283*
X0094Y00283*
X00939Y00283*
X00938Y00282*
X00936Y00282*
X00935Y00281*
X00934Y0028*
X00933Y0028*
X00932Y00279*
X00931Y00278*
X0093Y00277*
X00929Y00276*
X00928Y00274*
X00927Y00273*
X00927Y00272*
X00926Y00271*
X00926Y00269*
X00925Y00268*
X00925Y00267*
X00925Y00265*
X00925Y00264*
X00925Y00262*
X00925Y00261*
X00925Y0026*
X00926Y00258*
X00926Y00257*
X00927Y00256*
X00927Y00254*
X00928Y00253*
X00929Y00252*
X0093Y00251*
X00931Y0025*
X00932Y00249*
X00933Y00248*
X00934Y00247*
X00935Y00246*
X00936Y00246*
X00938Y00245*
X00939Y00245*
X0094Y00244*
X00942Y00244*
X00943Y00244*
X00944Y00244*
X00946*
X00947Y00244*
X00949Y00244*
X0095Y00244*
X00951Y00245*
X00953Y00245*
X00954Y00246*
X00955Y00246*
X00956Y00247*
X00957Y00248*
X00958Y00249*
X00959Y0025*
X0096Y00251*
X00961Y00252*
X00962Y00253*
X00963Y00254*
X00963Y00256*
X00964Y00257*
X00964Y00258*
X00965Y0026*
X00965Y00261*
X00965Y00262*
X00965Y00264*
X01195Y00439D02*
D01*
X01195Y0044*
X01195Y00442*
X01195Y00443*
X01194Y00444*
X01194Y00446*
X01193Y00447*
X01193Y00448*
X01192Y00449*
X01191Y00451*
X0119Y00452*
X01189Y00453*
X01188Y00454*
X01187Y00455*
X01186Y00455*
X01185Y00456*
X01184Y00457*
X01183Y00457*
X01181Y00458*
X0118Y00458*
X01179Y00458*
X01177Y00459*
X01176Y00459*
X01174*
X01173Y00459*
X01172Y00458*
X0117Y00458*
X01169Y00458*
X01168Y00457*
X01166Y00457*
X01165Y00456*
X01164Y00455*
X01163Y00455*
X01162Y00454*
X01161Y00453*
X0116Y00452*
X01159Y00451*
X01158Y00449*
X01157Y00448*
X01157Y00447*
X01156Y00446*
X01156Y00444*
X01155Y00443*
X01155Y00442*
X01155Y0044*
X01155Y00439*
X01155Y00437*
X01155Y00436*
X01155Y00435*
X01156Y00433*
X01156Y00432*
X01157Y00431*
X01157Y00429*
X01158Y00428*
X01159Y00427*
X0116Y00426*
X01161Y00425*
X01162Y00424*
X01163Y00423*
X01164Y00422*
X01165Y00421*
X01166Y00421*
X01168Y0042*
X01169Y0042*
X0117Y00419*
X01172Y00419*
X01173Y00419*
X01174Y00419*
X01176*
X01177Y00419*
X01179Y00419*
X0118Y00419*
X01181Y0042*
X01183Y0042*
X01184Y00421*
X01185Y00421*
X01186Y00422*
X01187Y00423*
X01188Y00424*
X01189Y00425*
X0119Y00426*
X01191Y00427*
X01192Y00428*
X01193Y00429*
X01193Y00431*
X01194Y00432*
X01194Y00433*
X01195Y00435*
X01195Y00436*
X01195Y00437*
X01195Y00439*
X00435Y00389D02*
D01*
X00435Y0039*
X00435Y00392*
X00435Y00393*
X00434Y00394*
X00434Y00396*
X00433Y00397*
X00433Y00398*
X00432Y00399*
X00431Y00401*
X0043Y00402*
X00429Y00403*
X00428Y00404*
X00427Y00405*
X00426Y00405*
X00425Y00406*
X00424Y00407*
X00423Y00407*
X00421Y00408*
X0042Y00408*
X00419Y00408*
X00417Y00409*
X00416Y00409*
X00414*
X00413Y00409*
X00412Y00408*
X0041Y00408*
X00409Y00408*
X00408Y00407*
X00406Y00407*
X00405Y00406*
X00404Y00405*
X00403Y00405*
X00402Y00404*
X00401Y00403*
X004Y00402*
X00399Y00401*
X00398Y00399*
X00397Y00398*
X00397Y00397*
X00396Y00396*
X00396Y00394*
X00395Y00393*
X00395Y00392*
X00395Y0039*
X00395Y00389*
X00395Y00387*
X00395Y00386*
X00395Y00385*
X00396Y00383*
X00396Y00382*
X00397Y00381*
X00397Y00379*
X00398Y00378*
X00399Y00377*
X004Y00376*
X00401Y00375*
X00402Y00374*
X00403Y00373*
X00404Y00372*
X00405Y00371*
X00406Y00371*
X00408Y0037*
X00409Y0037*
X0041Y00369*
X00412Y00369*
X00413Y00369*
X00414Y00369*
X00416*
X00417Y00369*
X00419Y00369*
X0042Y00369*
X00421Y0037*
X00423Y0037*
X00424Y00371*
X00425Y00371*
X00426Y00372*
X00427Y00373*
X00428Y00374*
X00429Y00375*
X0043Y00376*
X00431Y00377*
X00432Y00378*
X00433Y00379*
X00433Y00381*
X00434Y00382*
X00434Y00383*
X00435Y00385*
X00435Y00386*
X00435Y00387*
X00435Y00389*
Y00319D02*
D01*
X00435Y0032*
X00435Y00322*
X00435Y00323*
X00434Y00324*
X00434Y00326*
X00433Y00327*
X00433Y00328*
X00432Y00329*
X00431Y00331*
X0043Y00332*
X00429Y00333*
X00428Y00334*
X00427Y00335*
X00426Y00335*
X00425Y00336*
X00424Y00337*
X00423Y00337*
X00421Y00338*
X0042Y00338*
X00419Y00338*
X00417Y00339*
X00416Y00339*
X00414*
X00413Y00339*
X00412Y00338*
X0041Y00338*
X00409Y00338*
X00408Y00337*
X00406Y00337*
X00405Y00336*
X00404Y00335*
X00403Y00335*
X00402Y00334*
X00401Y00333*
X004Y00332*
X00399Y00331*
X00398Y00329*
X00397Y00328*
X00397Y00327*
X00396Y00326*
X00396Y00324*
X00395Y00323*
X00395Y00322*
X00395Y0032*
X00395Y00319*
X00395Y00317*
X00395Y00316*
X00395Y00315*
X00396Y00313*
X00396Y00312*
X00397Y00311*
X00397Y00309*
X00398Y00308*
X00399Y00307*
X004Y00306*
X00401Y00305*
X00402Y00304*
X00403Y00303*
X00404Y00302*
X00405Y00301*
X00406Y00301*
X00408Y003*
X00409Y003*
X0041Y00299*
X00412Y00299*
X00413Y00299*
X00414Y00299*
X00416*
X00417Y00299*
X00419Y00299*
X0042Y00299*
X00421Y003*
X00423Y003*
X00424Y00301*
X00425Y00301*
X00426Y00302*
X00427Y00303*
X00428Y00304*
X00429Y00305*
X0043Y00306*
X00431Y00307*
X00432Y00308*
X00433Y00309*
X00433Y00311*
X00434Y00312*
X00434Y00313*
X00435Y00315*
X00435Y00316*
X00435Y00317*
X00435Y00319*
Y00454D02*
D01*
X00435Y00455*
X00435Y00457*
X00435Y00458*
X00434Y00459*
X00434Y00461*
X00433Y00462*
X00433Y00463*
X00432Y00464*
X00431Y00466*
X0043Y00467*
X00429Y00468*
X00428Y00469*
X00427Y0047*
X00426Y0047*
X00425Y00471*
X00424Y00472*
X00423Y00472*
X00421Y00473*
X0042Y00473*
X00419Y00473*
X00417Y00474*
X00416Y00474*
X00414*
X00413Y00474*
X00412Y00473*
X0041Y00473*
X00409Y00473*
X00408Y00472*
X00406Y00472*
X00405Y00471*
X00404Y0047*
X00403Y0047*
X00402Y00469*
X00401Y00468*
X004Y00467*
X00399Y00466*
X00398Y00464*
X00397Y00463*
X00397Y00462*
X00396Y00461*
X00396Y00459*
X00395Y00458*
X00395Y00457*
X00395Y00455*
X00395Y00454*
X00395Y00452*
X00395Y00451*
X00395Y0045*
X00396Y00448*
X00396Y00447*
X00397Y00446*
X00397Y00444*
X00398Y00443*
X00399Y00442*
X004Y00441*
X00401Y0044*
X00402Y00439*
X00403Y00438*
X00404Y00437*
X00405Y00436*
X00406Y00436*
X00408Y00435*
X00409Y00435*
X0041Y00434*
X00412Y00434*
X00413Y00434*
X00414Y00434*
X00416*
X00417Y00434*
X00419Y00434*
X0042Y00434*
X00421Y00435*
X00423Y00435*
X00424Y00436*
X00425Y00436*
X00426Y00437*
X00427Y00438*
X00428Y00439*
X00429Y0044*
X0043Y00441*
X00431Y00442*
X00432Y00443*
X00433Y00444*
X00433Y00446*
X00434Y00447*
X00434Y00448*
X00435Y0045*
X00435Y00451*
X00435Y00452*
X00435Y00454*
Y00424D02*
D01*
X00435Y00425*
X00435Y00427*
X00435Y00428*
X00434Y00429*
X00434Y00431*
X00433Y00432*
X00433Y00433*
X00432Y00434*
X00431Y00436*
X0043Y00437*
X00429Y00438*
X00428Y00439*
X00427Y0044*
X00426Y0044*
X00425Y00441*
X00424Y00442*
X00423Y00442*
X00421Y00443*
X0042Y00443*
X00419Y00443*
X00417Y00444*
X00416Y00444*
X00414*
X00413Y00444*
X00412Y00443*
X0041Y00443*
X00409Y00443*
X00408Y00442*
X00406Y00442*
X00405Y00441*
X00404Y0044*
X00403Y0044*
X00402Y00439*
X00401Y00438*
X004Y00437*
X00399Y00436*
X00398Y00434*
X00397Y00433*
X00397Y00432*
X00396Y00431*
X00396Y00429*
X00395Y00428*
X00395Y00427*
X00395Y00425*
X00395Y00424*
X00395Y00422*
X00395Y00421*
X00395Y0042*
X00396Y00418*
X00396Y00417*
X00397Y00416*
X00397Y00414*
X00398Y00413*
X00399Y00412*
X004Y00411*
X00401Y0041*
X00402Y00409*
X00403Y00408*
X00404Y00407*
X00405Y00406*
X00406Y00406*
X00408Y00405*
X00409Y00405*
X0041Y00404*
X00412Y00404*
X00413Y00404*
X00414Y00404*
X00416*
X00417Y00404*
X00419Y00404*
X0042Y00404*
X00421Y00405*
X00423Y00405*
X00424Y00406*
X00425Y00406*
X00426Y00407*
X00427Y00408*
X00428Y00409*
X00429Y0041*
X0043Y00411*
X00431Y00412*
X00432Y00413*
X00433Y00414*
X00433Y00416*
X00434Y00417*
X00434Y00418*
X00435Y0042*
X00435Y00421*
X00435Y00422*
X00435Y00424*
X0027Y00289D02*
D01*
X0027Y0029*
X0027Y00292*
X0027Y00293*
X00269Y00294*
X00269Y00296*
X00268Y00297*
X00268Y00298*
X00267Y00299*
X00266Y00301*
X00265Y00302*
X00264Y00303*
X00263Y00304*
X00262Y00305*
X00261Y00305*
X0026Y00306*
X00259Y00307*
X00258Y00307*
X00256Y00308*
X00255Y00308*
X00254Y00308*
X00252Y00309*
X00251Y00309*
X00249*
X00248Y00309*
X00247Y00308*
X00245Y00308*
X00244Y00308*
X00243Y00307*
X00241Y00307*
X0024Y00306*
X00239Y00305*
X00238Y00305*
X00237Y00304*
X00236Y00303*
X00235Y00302*
X00234Y00301*
X00233Y00299*
X00232Y00298*
X00232Y00297*
X00231Y00296*
X00231Y00294*
X0023Y00293*
X0023Y00292*
X0023Y0029*
X0023Y00289*
X0023Y00287*
X0023Y00286*
X0023Y00285*
X00231Y00283*
X00231Y00282*
X00232Y00281*
X00232Y00279*
X00233Y00278*
X00234Y00277*
X00235Y00276*
X00236Y00275*
X00237Y00274*
X00238Y00273*
X00239Y00272*
X0024Y00271*
X00241Y00271*
X00243Y0027*
X00244Y0027*
X00245Y00269*
X00247Y00269*
X00248Y00269*
X00249Y00269*
X00251*
X00252Y00269*
X00254Y00269*
X00255Y00269*
X00256Y0027*
X00258Y0027*
X00259Y00271*
X0026Y00271*
X00261Y00272*
X00262Y00273*
X00263Y00274*
X00264Y00275*
X00265Y00276*
X00266Y00277*
X00267Y00278*
X00268Y00279*
X00268Y00281*
X00269Y00282*
X00269Y00283*
X0027Y00285*
X0027Y00286*
X0027Y00287*
X0027Y00289*
X00225Y00644D02*
D01*
X00225Y00645*
X00225Y00647*
X00225Y00648*
X00224Y00649*
X00224Y00651*
X00223Y00652*
X00223Y00653*
X00222Y00654*
X00221Y00656*
X0022Y00657*
X00219Y00658*
X00218Y00659*
X00217Y0066*
X00216Y0066*
X00215Y00661*
X00214Y00662*
X00213Y00662*
X00211Y00663*
X0021Y00663*
X00209Y00663*
X00207Y00664*
X00206Y00664*
X00204*
X00203Y00664*
X00202Y00663*
X002Y00663*
X00199Y00663*
X00198Y00662*
X00196Y00662*
X00195Y00661*
X00194Y0066*
X00193Y0066*
X00192Y00659*
X00191Y00658*
X0019Y00657*
X00189Y00656*
X00188Y00654*
X00187Y00653*
X00187Y00652*
X00186Y00651*
X00186Y00649*
X00185Y00648*
X00185Y00647*
X00185Y00645*
X00185Y00644*
X00185Y00642*
X00185Y00641*
X00185Y0064*
X00186Y00638*
X00186Y00637*
X00187Y00636*
X00187Y00634*
X00188Y00633*
X00189Y00632*
X0019Y00631*
X00191Y0063*
X00192Y00629*
X00193Y00628*
X00194Y00627*
X00195Y00626*
X00196Y00626*
X00198Y00625*
X00199Y00625*
X002Y00624*
X00202Y00624*
X00203Y00624*
X00204Y00624*
X00206*
X00207Y00624*
X00209Y00624*
X0021Y00624*
X00211Y00625*
X00213Y00625*
X00214Y00626*
X00215Y00626*
X00216Y00627*
X00217Y00628*
X00218Y00629*
X00219Y0063*
X0022Y00631*
X00221Y00632*
X00222Y00633*
X00223Y00634*
X00223Y00636*
X00224Y00637*
X00224Y00638*
X00225Y0064*
X00225Y00641*
X00225Y00642*
X00225Y00644*
X00265Y00744D02*
D01*
X00265Y00745*
X00265Y00747*
X00265Y00748*
X00264Y00749*
X00264Y00751*
X00263Y00752*
X00263Y00753*
X00262Y00754*
X00261Y00756*
X0026Y00757*
X00259Y00758*
X00258Y00759*
X00257Y0076*
X00256Y0076*
X00255Y00761*
X00254Y00762*
X00253Y00762*
X00251Y00763*
X0025Y00763*
X00249Y00763*
X00247Y00764*
X00246Y00764*
X00244*
X00243Y00764*
X00242Y00763*
X0024Y00763*
X00239Y00763*
X00238Y00762*
X00236Y00762*
X00235Y00761*
X00234Y0076*
X00233Y0076*
X00232Y00759*
X00231Y00758*
X0023Y00757*
X00229Y00756*
X00228Y00754*
X00227Y00753*
X00227Y00752*
X00226Y00751*
X00226Y00749*
X00225Y00748*
X00225Y00747*
X00225Y00745*
X00225Y00744*
X00225Y00742*
X00225Y00741*
X00225Y0074*
X00226Y00738*
X00226Y00737*
X00227Y00736*
X00227Y00734*
X00228Y00733*
X00229Y00732*
X0023Y00731*
X00231Y0073*
X00232Y00729*
X00233Y00728*
X00234Y00727*
X00235Y00726*
X00236Y00726*
X00238Y00725*
X00239Y00725*
X0024Y00724*
X00242Y00724*
X00243Y00724*
X00244Y00724*
X00246*
X00247Y00724*
X00249Y00724*
X0025Y00724*
X00251Y00725*
X00253Y00725*
X00254Y00726*
X00255Y00726*
X00256Y00727*
X00257Y00728*
X00258Y00729*
X00259Y0073*
X0026Y00731*
X00261Y00732*
X00262Y00733*
X00263Y00734*
X00263Y00736*
X00264Y00737*
X00264Y00738*
X00265Y0074*
X00265Y00741*
X00265Y00742*
X00265Y00744*
X003Y00764D02*
D01*
X003Y00765*
X003Y00767*
X003Y00768*
X00299Y00769*
X00299Y00771*
X00298Y00772*
X00298Y00773*
X00297Y00774*
X00296Y00776*
X00295Y00777*
X00294Y00778*
X00293Y00779*
X00292Y0078*
X00291Y0078*
X0029Y00781*
X00289Y00782*
X00288Y00782*
X00286Y00783*
X00285Y00783*
X00284Y00783*
X00282Y00784*
X00281Y00784*
X00279*
X00278Y00784*
X00277Y00783*
X00275Y00783*
X00274Y00783*
X00273Y00782*
X00271Y00782*
X0027Y00781*
X00269Y0078*
X00268Y0078*
X00267Y00779*
X00266Y00778*
X00265Y00777*
X00264Y00776*
X00263Y00774*
X00262Y00773*
X00262Y00772*
X00261Y00771*
X00261Y00769*
X0026Y00768*
X0026Y00767*
X0026Y00765*
X0026Y00764*
X0026Y00762*
X0026Y00761*
X0026Y0076*
X00261Y00758*
X00261Y00757*
X00262Y00756*
X00262Y00754*
X00263Y00753*
X00264Y00752*
X00265Y00751*
X00266Y0075*
X00267Y00749*
X00268Y00748*
X00269Y00747*
X0027Y00746*
X00271Y00746*
X00273Y00745*
X00274Y00745*
X00275Y00744*
X00277Y00744*
X00278Y00744*
X00279Y00744*
X00281*
X00282Y00744*
X00284Y00744*
X00285Y00744*
X00286Y00745*
X00288Y00745*
X00289Y00746*
X0029Y00746*
X00291Y00747*
X00292Y00748*
X00293Y00749*
X00294Y0075*
X00295Y00751*
X00296Y00752*
X00297Y00753*
X00298Y00754*
X00298Y00756*
X00299Y00757*
X00299Y00758*
X003Y0076*
X003Y00761*
X003Y00762*
X003Y00764*
Y00824D02*
D01*
X003Y00825*
X003Y00827*
X003Y00828*
X00299Y00829*
X00299Y00831*
X00298Y00832*
X00298Y00833*
X00297Y00834*
X00296Y00836*
X00295Y00837*
X00294Y00838*
X00293Y00839*
X00292Y0084*
X00291Y0084*
X0029Y00841*
X00289Y00842*
X00288Y00842*
X00286Y00843*
X00285Y00843*
X00284Y00843*
X00282Y00844*
X00281Y00844*
X00279*
X00278Y00844*
X00277Y00843*
X00275Y00843*
X00274Y00843*
X00273Y00842*
X00271Y00842*
X0027Y00841*
X00269Y0084*
X00268Y0084*
X00267Y00839*
X00266Y00838*
X00265Y00837*
X00264Y00836*
X00263Y00834*
X00262Y00833*
X00262Y00832*
X00261Y00831*
X00261Y00829*
X0026Y00828*
X0026Y00827*
X0026Y00825*
X0026Y00824*
X0026Y00822*
X0026Y00821*
X0026Y0082*
X00261Y00818*
X00261Y00817*
X00262Y00816*
X00262Y00814*
X00263Y00813*
X00264Y00812*
X00265Y00811*
X00266Y0081*
X00267Y00809*
X00268Y00808*
X00269Y00807*
X0027Y00806*
X00271Y00806*
X00273Y00805*
X00274Y00805*
X00275Y00804*
X00277Y00804*
X00278Y00804*
X00279Y00804*
X00281*
X00282Y00804*
X00284Y00804*
X00285Y00804*
X00286Y00805*
X00288Y00805*
X00289Y00806*
X0029Y00806*
X00291Y00807*
X00292Y00808*
X00293Y00809*
X00294Y0081*
X00295Y00811*
X00296Y00812*
X00297Y00813*
X00298Y00814*
X00298Y00816*
X00299Y00817*
X00299Y00818*
X003Y0082*
X003Y00821*
X003Y00822*
X003Y00824*
Y00884D02*
D01*
X003Y00885*
X003Y00887*
X003Y00888*
X00299Y00889*
X00299Y00891*
X00298Y00892*
X00298Y00893*
X00297Y00894*
X00296Y00896*
X00295Y00897*
X00294Y00898*
X00293Y00899*
X00292Y009*
X00291Y009*
X0029Y00901*
X00289Y00902*
X00288Y00902*
X00286Y00903*
X00285Y00903*
X00284Y00903*
X00282Y00904*
X00281Y00904*
X00279*
X00278Y00904*
X00277Y00903*
X00275Y00903*
X00274Y00903*
X00273Y00902*
X00271Y00902*
X0027Y00901*
X00269Y009*
X00268Y009*
X00267Y00899*
X00266Y00898*
X00265Y00897*
X00264Y00896*
X00263Y00894*
X00262Y00893*
X00262Y00892*
X00261Y00891*
X00261Y00889*
X0026Y00888*
X0026Y00887*
X0026Y00885*
X0026Y00884*
X0026Y00882*
X0026Y00881*
X0026Y0088*
X00261Y00878*
X00261Y00877*
X00262Y00876*
X00262Y00874*
X00263Y00873*
X00264Y00872*
X00265Y00871*
X00266Y0087*
X00267Y00869*
X00268Y00868*
X00269Y00867*
X0027Y00866*
X00271Y00866*
X00273Y00865*
X00274Y00865*
X00275Y00864*
X00277Y00864*
X00278Y00864*
X00279Y00864*
X00281*
X00282Y00864*
X00284Y00864*
X00285Y00864*
X00286Y00865*
X00288Y00865*
X00289Y00866*
X0029Y00866*
X00291Y00867*
X00292Y00868*
X00293Y00869*
X00294Y0087*
X00295Y00871*
X00296Y00872*
X00297Y00873*
X00298Y00874*
X00298Y00876*
X00299Y00877*
X00299Y00878*
X003Y0088*
X003Y00881*
X003Y00882*
X003Y00884*
X0018Y00744D02*
D01*
X0018Y00745*
X0018Y00747*
X0018Y00748*
X00179Y00749*
X00179Y00751*
X00178Y00752*
X00178Y00753*
X00177Y00754*
X00176Y00756*
X00175Y00757*
X00174Y00758*
X00173Y00759*
X00172Y0076*
X00171Y0076*
X0017Y00761*
X00169Y00762*
X00168Y00762*
X00166Y00763*
X00165Y00763*
X00164Y00763*
X00162Y00764*
X00161Y00764*
X00159*
X00158Y00764*
X00157Y00763*
X00155Y00763*
X00154Y00763*
X00153Y00762*
X00151Y00762*
X0015Y00761*
X00149Y0076*
X00148Y0076*
X00147Y00759*
X00146Y00758*
X00145Y00757*
X00144Y00756*
X00143Y00754*
X00142Y00753*
X00142Y00752*
X00141Y00751*
X00141Y00749*
X0014Y00748*
X0014Y00747*
X0014Y00745*
X0014Y00744*
X0014Y00742*
X0014Y00741*
X0014Y0074*
X00141Y00738*
X00141Y00737*
X00142Y00736*
X00142Y00734*
X00143Y00733*
X00144Y00732*
X00145Y00731*
X00146Y0073*
X00147Y00729*
X00148Y00728*
X00149Y00727*
X0015Y00726*
X00151Y00726*
X00153Y00725*
X00154Y00725*
X00155Y00724*
X00157Y00724*
X00158Y00724*
X00159Y00724*
X00161*
X00162Y00724*
X00164Y00724*
X00165Y00724*
X00166Y00725*
X00168Y00725*
X00169Y00726*
X0017Y00726*
X00171Y00727*
X00172Y00728*
X00173Y00729*
X00174Y0073*
X00175Y00731*
X00176Y00732*
X00177Y00733*
X00178Y00734*
X00178Y00736*
X00179Y00737*
X00179Y00738*
X0018Y0074*
X0018Y00741*
X0018Y00742*
X0018Y00744*
X0054Y00524D02*
D01*
X0054Y00525*
X0054Y00527*
X0054Y00528*
X00539Y00529*
X00539Y00531*
X00538Y00532*
X00538Y00533*
X00537Y00534*
X00536Y00536*
X00535Y00537*
X00534Y00538*
X00533Y00539*
X00532Y0054*
X00531Y0054*
X0053Y00541*
X00529Y00542*
X00528Y00542*
X00526Y00543*
X00525Y00543*
X00524Y00543*
X00522Y00544*
X00521Y00544*
X00519*
X00518Y00544*
X00517Y00543*
X00515Y00543*
X00514Y00543*
X00513Y00542*
X00511Y00542*
X0051Y00541*
X00509Y0054*
X00508Y0054*
X00507Y00539*
X00506Y00538*
X00505Y00537*
X00504Y00536*
X00503Y00534*
X00502Y00533*
X00502Y00532*
X00501Y00531*
X00501Y00529*
X005Y00528*
X005Y00527*
X005Y00525*
X005Y00524*
X005Y00522*
X005Y00521*
X005Y0052*
X00501Y00518*
X00501Y00517*
X00502Y00516*
X00502Y00514*
X00503Y00513*
X00504Y00512*
X00505Y00511*
X00506Y0051*
X00507Y00509*
X00508Y00508*
X00509Y00507*
X0051Y00506*
X00511Y00506*
X00513Y00505*
X00514Y00505*
X00515Y00504*
X00517Y00504*
X00518Y00504*
X00519Y00504*
X00521*
X00522Y00504*
X00524Y00504*
X00525Y00504*
X00526Y00505*
X00528Y00505*
X00529Y00506*
X0053Y00506*
X00531Y00507*
X00532Y00508*
X00533Y00509*
X00534Y0051*
X00535Y00511*
X00536Y00512*
X00537Y00513*
X00538Y00514*
X00538Y00516*
X00539Y00517*
X00539Y00518*
X0054Y0052*
X0054Y00521*
X0054Y00522*
X0054Y00524*
X0075Y00559D02*
D01*
X0075Y0056*
X0075Y00562*
X0075Y00563*
X00749Y00564*
X00749Y00566*
X00748Y00567*
X00748Y00568*
X00747Y00569*
X00746Y00571*
X00745Y00572*
X00744Y00573*
X00743Y00574*
X00742Y00575*
X00741Y00575*
X0074Y00576*
X00739Y00577*
X00738Y00577*
X00736Y00578*
X00735Y00578*
X00734Y00578*
X00732Y00579*
X00731Y00579*
X00729*
X00728Y00579*
X00727Y00578*
X00725Y00578*
X00724Y00578*
X00723Y00577*
X00721Y00577*
X0072Y00576*
X00719Y00575*
X00718Y00575*
X00717Y00574*
X00716Y00573*
X00715Y00572*
X00714Y00571*
X00713Y00569*
X00712Y00568*
X00712Y00567*
X00711Y00566*
X00711Y00564*
X0071Y00563*
X0071Y00562*
X0071Y0056*
X0071Y00559*
X0071Y00557*
X0071Y00556*
X0071Y00555*
X00711Y00553*
X00711Y00552*
X00712Y00551*
X00712Y00549*
X00713Y00548*
X00714Y00547*
X00715Y00546*
X00716Y00545*
X00717Y00544*
X00718Y00543*
X00719Y00542*
X0072Y00541*
X00721Y00541*
X00723Y0054*
X00724Y0054*
X00725Y00539*
X00727Y00539*
X00728Y00539*
X00729Y00539*
X00731*
X00732Y00539*
X00734Y00539*
X00735Y00539*
X00736Y0054*
X00738Y0054*
X00739Y00541*
X0074Y00541*
X00741Y00542*
X00742Y00543*
X00743Y00544*
X00744Y00545*
X00745Y00546*
X00746Y00547*
X00747Y00548*
X00748Y00549*
X00748Y00551*
X00749Y00552*
X00749Y00553*
X0075Y00555*
X0075Y00556*
X0075Y00557*
X0075Y00559*
X00685Y00424D02*
D01*
X00685Y00425*
X00685Y00427*
X00685Y00428*
X00684Y00429*
X00684Y00431*
X00683Y00432*
X00683Y00433*
X00682Y00434*
X00681Y00436*
X0068Y00437*
X00679Y00438*
X00678Y00439*
X00677Y0044*
X00676Y0044*
X00675Y00441*
X00674Y00442*
X00673Y00442*
X00671Y00443*
X0067Y00443*
X00669Y00443*
X00667Y00444*
X00666Y00444*
X00664*
X00663Y00444*
X00662Y00443*
X0066Y00443*
X00659Y00443*
X00658Y00442*
X00656Y00442*
X00655Y00441*
X00654Y0044*
X00653Y0044*
X00652Y00439*
X00651Y00438*
X0065Y00437*
X00649Y00436*
X00648Y00434*
X00647Y00433*
X00647Y00432*
X00646Y00431*
X00646Y00429*
X00645Y00428*
X00645Y00427*
X00645Y00425*
X00645Y00424*
X00645Y00422*
X00645Y00421*
X00645Y0042*
X00646Y00418*
X00646Y00417*
X00647Y00416*
X00647Y00414*
X00648Y00413*
X00649Y00412*
X0065Y00411*
X00651Y0041*
X00652Y00409*
X00653Y00408*
X00654Y00407*
X00655Y00406*
X00656Y00406*
X00658Y00405*
X00659Y00405*
X0066Y00404*
X00662Y00404*
X00663Y00404*
X00664Y00404*
X00666*
X00667Y00404*
X00669Y00404*
X0067Y00404*
X00671Y00405*
X00673Y00405*
X00674Y00406*
X00675Y00406*
X00676Y00407*
X00677Y00408*
X00678Y00409*
X00679Y0041*
X0068Y00411*
X00681Y00412*
X00682Y00413*
X00683Y00414*
X00683Y00416*
X00684Y00417*
X00684Y00418*
X00685Y0042*
X00685Y00421*
X00685Y00422*
X00685Y00424*
X0084Y00539D02*
D01*
X0084Y0054*
X0084Y00542*
X0084Y00543*
X00839Y00544*
X00839Y00546*
X00838Y00547*
X00838Y00548*
X00837Y00549*
X00836Y00551*
X00835Y00552*
X00834Y00553*
X00833Y00554*
X00832Y00555*
X00831Y00555*
X0083Y00556*
X00829Y00557*
X00828Y00557*
X00826Y00558*
X00825Y00558*
X00824Y00558*
X00822Y00559*
X00821Y00559*
X00819*
X00818Y00559*
X00817Y00558*
X00815Y00558*
X00814Y00558*
X00813Y00557*
X00811Y00557*
X0081Y00556*
X00809Y00555*
X00808Y00555*
X00807Y00554*
X00806Y00553*
X00805Y00552*
X00804Y00551*
X00803Y00549*
X00802Y00548*
X00802Y00547*
X00801Y00546*
X00801Y00544*
X008Y00543*
X008Y00542*
X008Y0054*
X008Y00539*
X008Y00537*
X008Y00536*
X008Y00535*
X00801Y00533*
X00801Y00532*
X00802Y00531*
X00802Y00529*
X00803Y00528*
X00804Y00527*
X00805Y00526*
X00806Y00525*
X00807Y00524*
X00808Y00523*
X00809Y00522*
X0081Y00521*
X00811Y00521*
X00813Y0052*
X00814Y0052*
X00815Y00519*
X00817Y00519*
X00818Y00519*
X00819Y00519*
X00821*
X00822Y00519*
X00824Y00519*
X00825Y00519*
X00826Y0052*
X00828Y0052*
X00829Y00521*
X0083Y00521*
X00831Y00522*
X00832Y00523*
X00833Y00524*
X00834Y00525*
X00835Y00526*
X00836Y00527*
X00837Y00528*
X00838Y00529*
X00838Y00531*
X00839Y00532*
X00839Y00533*
X0084Y00535*
X0084Y00536*
X0084Y00537*
X0084Y00539*
X01195Y00264D02*
D01*
X01195Y00265*
X01195Y00267*
X01195Y00268*
X01194Y00269*
X01194Y00271*
X01193Y00272*
X01193Y00273*
X01192Y00274*
X01191Y00276*
X0119Y00277*
X01189Y00278*
X01188Y00279*
X01187Y0028*
X01186Y0028*
X01185Y00281*
X01184Y00282*
X01183Y00282*
X01181Y00283*
X0118Y00283*
X01179Y00283*
X01177Y00284*
X01176Y00284*
X01174*
X01173Y00284*
X01172Y00283*
X0117Y00283*
X01169Y00283*
X01168Y00282*
X01166Y00282*
X01165Y00281*
X01164Y0028*
X01163Y0028*
X01162Y00279*
X01161Y00278*
X0116Y00277*
X01159Y00276*
X01158Y00274*
X01157Y00273*
X01157Y00272*
X01156Y00271*
X01156Y00269*
X01155Y00268*
X01155Y00267*
X01155Y00265*
X01155Y00264*
X01155Y00262*
X01155Y00261*
X01155Y0026*
X01156Y00258*
X01156Y00257*
X01157Y00256*
X01157Y00254*
X01158Y00253*
X01159Y00252*
X0116Y00251*
X01161Y0025*
X01162Y00249*
X01163Y00248*
X01164Y00247*
X01165Y00246*
X01166Y00246*
X01168Y00245*
X01169Y00245*
X0117Y00244*
X01172Y00244*
X01173Y00244*
X01174Y00244*
X01176*
X01177Y00244*
X01179Y00244*
X0118Y00244*
X01181Y00245*
X01183Y00245*
X01184Y00246*
X01185Y00246*
X01186Y00247*
X01187Y00248*
X01188Y00249*
X01189Y0025*
X0119Y00251*
X01191Y00252*
X01192Y00253*
X01193Y00254*
X01193Y00256*
X01194Y00257*
X01194Y00258*
X01195Y0026*
X01195Y00261*
X01195Y00262*
X01195Y00264*
X01015Y00524D02*
D01*
X01015Y00525*
X01015Y00527*
X01015Y00528*
X01014Y00529*
X01014Y00531*
X01013Y00532*
X01013Y00533*
X01012Y00534*
X01011Y00536*
X0101Y00537*
X01009Y00538*
X01008Y00539*
X01007Y0054*
X01006Y0054*
X01005Y00541*
X01004Y00542*
X01003Y00542*
X01001Y00543*
X01Y00543*
X00999Y00543*
X00997Y00544*
X00996Y00544*
X00994*
X00993Y00544*
X00992Y00543*
X0099Y00543*
X00989Y00543*
X00988Y00542*
X00986Y00542*
X00985Y00541*
X00984Y0054*
X00983Y0054*
X00982Y00539*
X00981Y00538*
X0098Y00537*
X00979Y00536*
X00978Y00534*
X00977Y00533*
X00977Y00532*
X00976Y00531*
X00976Y00529*
X00975Y00528*
X00975Y00527*
X00975Y00525*
X00975Y00524*
X00975Y00522*
X00975Y00521*
X00975Y0052*
X00976Y00518*
X00976Y00517*
X00977Y00516*
X00977Y00514*
X00978Y00513*
X00979Y00512*
X0098Y00511*
X00981Y0051*
X00982Y00509*
X00983Y00508*
X00984Y00507*
X00985Y00506*
X00986Y00506*
X00988Y00505*
X00989Y00505*
X0099Y00504*
X00992Y00504*
X00993Y00504*
X00994Y00504*
X00996*
X00997Y00504*
X00999Y00504*
X01Y00504*
X01001Y00505*
X01003Y00505*
X01004Y00506*
X01005Y00506*
X01006Y00507*
X01007Y00508*
X01008Y00509*
X01009Y0051*
X0101Y00511*
X01011Y00512*
X01012Y00513*
X01013Y00514*
X01013Y00516*
X01014Y00517*
X01014Y00518*
X01015Y0052*
X01015Y00521*
X01015Y00522*
X01015Y00524*
X0082Y00364D02*
D01*
X0082Y00365*
X0082Y00367*
X0082Y00368*
X00819Y00369*
X00819Y00371*
X00818Y00372*
X00818Y00373*
X00817Y00374*
X00816Y00376*
X00815Y00377*
X00814Y00378*
X00813Y00379*
X00812Y0038*
X00811Y0038*
X0081Y00381*
X00809Y00382*
X00808Y00382*
X00806Y00383*
X00805Y00383*
X00804Y00383*
X00802Y00384*
X00801Y00384*
X00799*
X00798Y00384*
X00797Y00383*
X00795Y00383*
X00794Y00383*
X00793Y00382*
X00791Y00382*
X0079Y00381*
X00789Y0038*
X00788Y0038*
X00787Y00379*
X00786Y00378*
X00785Y00377*
X00784Y00376*
X00783Y00374*
X00782Y00373*
X00782Y00372*
X00781Y00371*
X00781Y00369*
X0078Y00368*
X0078Y00367*
X0078Y00365*
X0078Y00364*
X0078Y00362*
X0078Y00361*
X0078Y0036*
X00781Y00358*
X00781Y00357*
X00782Y00356*
X00782Y00354*
X00783Y00353*
X00784Y00352*
X00785Y00351*
X00786Y0035*
X00787Y00349*
X00788Y00348*
X00789Y00347*
X0079Y00346*
X00791Y00346*
X00793Y00345*
X00794Y00345*
X00795Y00344*
X00797Y00344*
X00798Y00344*
X00799Y00344*
X00801*
X00802Y00344*
X00804Y00344*
X00805Y00344*
X00806Y00345*
X00808Y00345*
X00809Y00346*
X0081Y00346*
X00811Y00347*
X00812Y00348*
X00813Y00349*
X00814Y0035*
X00815Y00351*
X00816Y00352*
X00817Y00353*
X00818Y00354*
X00818Y00356*
X00819Y00357*
X00819Y00358*
X0082Y0036*
X0082Y00361*
X0082Y00362*
X0082Y00364*
X00805Y00644D02*
D01*
X00805Y00645*
X00805Y00647*
X00805Y00648*
X00804Y00649*
X00804Y00651*
X00803Y00652*
X00803Y00653*
X00802Y00654*
X00801Y00656*
X008Y00657*
X00799Y00658*
X00798Y00659*
X00797Y0066*
X00796Y0066*
X00795Y00661*
X00794Y00662*
X00793Y00662*
X00791Y00663*
X0079Y00663*
X00789Y00663*
X00787Y00664*
X00786Y00664*
X00784*
X00783Y00664*
X00782Y00663*
X0078Y00663*
X00779Y00663*
X00778Y00662*
X00776Y00662*
X00775Y00661*
X00774Y0066*
X00773Y0066*
X00772Y00659*
X00771Y00658*
X0077Y00657*
X00769Y00656*
X00768Y00654*
X00767Y00653*
X00767Y00652*
X00766Y00651*
X00766Y00649*
X00765Y00648*
X00765Y00647*
X00765Y00645*
X00765Y00644*
X00765Y00642*
X00765Y00641*
X00765Y0064*
X00766Y00638*
X00766Y00637*
X00767Y00636*
X00767Y00634*
X00768Y00633*
X00769Y00632*
X0077Y00631*
X00771Y0063*
X00772Y00629*
X00773Y00628*
X00774Y00627*
X00775Y00626*
X00776Y00626*
X00778Y00625*
X00779Y00625*
X0078Y00624*
X00782Y00624*
X00783Y00624*
X00784Y00624*
X00786*
X00787Y00624*
X00789Y00624*
X0079Y00624*
X00791Y00625*
X00793Y00625*
X00794Y00626*
X00795Y00626*
X00796Y00627*
X00797Y00628*
X00798Y00629*
X00799Y0063*
X008Y00631*
X00801Y00632*
X00802Y00633*
X00803Y00634*
X00803Y00636*
X00804Y00637*
X00804Y00638*
X00805Y0064*
X00805Y00641*
X00805Y00642*
X00805Y00644*
X00185Y00334D02*
D01*
X00185Y00335*
X00185Y00337*
X00185Y00338*
X00184Y00339*
X00184Y00341*
X00183Y00342*
X00183Y00343*
X00182Y00344*
X00181Y00346*
X0018Y00347*
X00179Y00348*
X00178Y00349*
X00177Y0035*
X00176Y0035*
X00175Y00351*
X00174Y00352*
X00173Y00352*
X00171Y00353*
X0017Y00353*
X00169Y00353*
X00167Y00354*
X00166Y00354*
X00164*
X00163Y00354*
X00162Y00353*
X0016Y00353*
X00159Y00353*
X00158Y00352*
X00156Y00352*
X00155Y00351*
X00154Y0035*
X00153Y0035*
X00152Y00349*
X00151Y00348*
X0015Y00347*
X00149Y00346*
X00148Y00344*
X00147Y00343*
X00147Y00342*
X00146Y00341*
X00146Y00339*
X00145Y00338*
X00145Y00337*
X00145Y00335*
X00145Y00334*
X00145Y00332*
X00145Y00331*
X00145Y0033*
X00146Y00328*
X00146Y00327*
X00147Y00326*
X00147Y00324*
X00148Y00323*
X00149Y00322*
X0015Y00321*
X00151Y0032*
X00152Y00319*
X00153Y00318*
X00154Y00317*
X00155Y00316*
X00156Y00316*
X00158Y00315*
X00159Y00315*
X0016Y00314*
X00162Y00314*
X00163Y00314*
X00164Y00314*
X00166*
X00167Y00314*
X00169Y00314*
X0017Y00314*
X00171Y00315*
X00173Y00315*
X00174Y00316*
X00175Y00316*
X00176Y00317*
X00177Y00318*
X00178Y00319*
X00179Y0032*
X0018Y00321*
X00181Y00322*
X00182Y00323*
X00183Y00324*
X00183Y00326*
X00184Y00327*
X00184Y00328*
X00185Y0033*
X00185Y00331*
X00185Y00332*
X00185Y00334*
Y00539D02*
D01*
X00185Y0054*
X00185Y00542*
X00185Y00543*
X00184Y00544*
X00184Y00546*
X00183Y00547*
X00183Y00548*
X00182Y00549*
X00181Y00551*
X0018Y00552*
X00179Y00553*
X00178Y00554*
X00177Y00555*
X00176Y00555*
X00175Y00556*
X00174Y00557*
X00173Y00557*
X00171Y00558*
X0017Y00558*
X00169Y00558*
X00167Y00559*
X00166Y00559*
X00164*
X00163Y00559*
X00162Y00558*
X0016Y00558*
X00159Y00558*
X00158Y00557*
X00156Y00557*
X00155Y00556*
X00154Y00555*
X00153Y00555*
X00152Y00554*
X00151Y00553*
X0015Y00552*
X00149Y00551*
X00148Y00549*
X00147Y00548*
X00147Y00547*
X00146Y00546*
X00146Y00544*
X00145Y00543*
X00145Y00542*
X00145Y0054*
X00145Y00539*
X00145Y00537*
X00145Y00536*
X00145Y00535*
X00146Y00533*
X00146Y00532*
X00147Y00531*
X00147Y00529*
X00148Y00528*
X00149Y00527*
X0015Y00526*
X00151Y00525*
X00152Y00524*
X00153Y00523*
X00154Y00522*
X00155Y00521*
X00156Y00521*
X00158Y0052*
X00159Y0052*
X0016Y00519*
X00162Y00519*
X00163Y00519*
X00164Y00519*
X00166*
X00167Y00519*
X00169Y00519*
X0017Y00519*
X00171Y0052*
X00173Y0052*
X00174Y00521*
X00175Y00521*
X00176Y00522*
X00177Y00523*
X00178Y00524*
X00179Y00525*
X0018Y00526*
X00181Y00527*
X00182Y00528*
X00183Y00529*
X00183Y00531*
X00184Y00532*
X00184Y00533*
X00185Y00535*
X00185Y00536*
X00185Y00537*
X00185Y00539*
X0037Y00269D02*
D01*
X0037Y0027*
X0037Y00272*
X0037Y00273*
X00369Y00274*
X00369Y00276*
X00368Y00277*
X00368Y00278*
X00367Y00279*
X00366Y00281*
X00365Y00282*
X00364Y00283*
X00363Y00284*
X00362Y00285*
X00361Y00285*
X0036Y00286*
X00359Y00287*
X00358Y00287*
X00356Y00288*
X00355Y00288*
X00354Y00288*
X00352Y00289*
X00351Y00289*
X00349*
X00348Y00289*
X00347Y00288*
X00345Y00288*
X00344Y00288*
X00343Y00287*
X00341Y00287*
X0034Y00286*
X00339Y00285*
X00338Y00285*
X00337Y00284*
X00336Y00283*
X00335Y00282*
X00334Y00281*
X00333Y00279*
X00332Y00278*
X00332Y00277*
X00331Y00276*
X00331Y00274*
X0033Y00273*
X0033Y00272*
X0033Y0027*
X0033Y00269*
X0033Y00267*
X0033Y00266*
X0033Y00265*
X00331Y00263*
X00331Y00262*
X00332Y00261*
X00332Y00259*
X00333Y00258*
X00334Y00257*
X00335Y00256*
X00336Y00255*
X00337Y00254*
X00338Y00253*
X00339Y00252*
X0034Y00251*
X00341Y00251*
X00343Y0025*
X00344Y0025*
X00345Y00249*
X00347Y00249*
X00348Y00249*
X00349Y00249*
X00351*
X00352Y00249*
X00354Y00249*
X00355Y00249*
X00356Y0025*
X00358Y0025*
X00359Y00251*
X0036Y00251*
X00361Y00252*
X00362Y00253*
X00363Y00254*
X00364Y00255*
X00365Y00256*
X00366Y00257*
X00367Y00258*
X00368Y00259*
X00368Y00261*
X00369Y00262*
X00369Y00263*
X0037Y00265*
X0037Y00266*
X0037Y00267*
X0037Y00269*
X0097Y00605D02*
D01*
X0097Y00607*
X0097Y00608*
X00969Y00609*
X00969Y00611*
X00969Y00612*
X00968Y00613*
X00968Y00615*
X00967Y00616*
X00966Y00617*
X00965Y00618*
X00964Y00619*
X00963Y0062*
X00962Y00621*
X00961Y00622*
X0096Y00623*
X00959Y00623*
X00957Y00624*
X00956Y00624*
X00955Y00625*
X00953Y00625*
X00952Y00625*
X00951Y00625*
X00949*
X00948Y00625*
X00946Y00625*
X00945Y00625*
X00944Y00624*
X00942Y00624*
X00941Y00623*
X0094Y00623*
X00939Y00622*
X00938Y00621*
X00937Y0062*
X00936Y00619*
X00935Y00618*
X00934Y00617*
X00933Y00616*
X00932Y00615*
X00932Y00613*
X00931Y00612*
X00931Y00611*
X0093Y00609*
X0093Y00608*
X0093Y00607*
X0093Y00605*
X0093Y00604*
X0093Y00603*
X0093Y00601*
X00931Y006*
X00931Y00598*
X00932Y00597*
X00932Y00596*
X00933Y00595*
X00934Y00594*
X00935Y00592*
X00936Y00591*
X00937Y0059*
X00938Y0059*
X00939Y00589*
X0094Y00588*
X00941Y00587*
X00942Y00587*
X00944Y00586*
X00945Y00586*
X00946Y00586*
X00948Y00585*
X00949Y00585*
X00951*
X00952Y00585*
X00953Y00586*
X00955Y00586*
X00956Y00586*
X00957Y00587*
X00959Y00587*
X0096Y00588*
X00961Y00589*
X00962Y0059*
X00963Y0059*
X00964Y00591*
X00965Y00592*
X00966Y00594*
X00967Y00595*
X00968Y00596*
X00968Y00597*
X00969Y00598*
X00969Y006*
X00969Y00601*
X0097Y00603*
X0097Y00604*
X0097Y00605*
X00674Y00477D02*
D01*
X00674Y00478*
X00674Y0048*
X00674Y00481*
X00673Y00482*
X00673Y00484*
X00672Y00485*
X00672Y00486*
X00671Y00487*
X0067Y00489*
X00669Y0049*
X00668Y00491*
X00667Y00492*
X00666Y00493*
X00665Y00493*
X00664Y00494*
X00663Y00495*
X00662Y00495*
X0066Y00496*
X00659Y00496*
X00658Y00497*
X00656Y00497*
X00655Y00497*
X00653*
X00652Y00497*
X00651Y00497*
X00649Y00496*
X00648Y00496*
X00647Y00495*
X00645Y00495*
X00644Y00494*
X00643Y00493*
X00642Y00493*
X00641Y00492*
X0064Y00491*
X00639Y0049*
X00638Y00489*
X00637Y00487*
X00636Y00486*
X00636Y00485*
X00635Y00484*
X00635Y00482*
X00634Y00481*
X00634Y0048*
X00634Y00478*
X00634Y00477*
X00634Y00475*
X00634Y00474*
X00634Y00473*
X00635Y00471*
X00635Y0047*
X00636Y00469*
X00636Y00467*
X00637Y00466*
X00638Y00465*
X00639Y00464*
X0064Y00463*
X00641Y00462*
X00642Y00461*
X00643Y0046*
X00644Y0046*
X00645Y00459*
X00647Y00458*
X00648Y00458*
X00649Y00457*
X00651Y00457*
X00652Y00457*
X00653Y00457*
X00655*
X00656Y00457*
X00658Y00457*
X00659Y00457*
X0066Y00458*
X00662Y00458*
X00663Y00459*
X00664Y0046*
X00665Y0046*
X00666Y00461*
X00667Y00462*
X00668Y00463*
X00669Y00464*
X0067Y00465*
X00671Y00466*
X00672Y00467*
X00672Y00469*
X00673Y0047*
X00673Y00471*
X00674Y00473*
X00674Y00474*
X00674Y00475*
X00674Y00477*
X00945Y00824D02*
D01*
X00945Y00826*
X00944Y00827*
X00944Y00828*
X00944Y0083*
X00943Y00831*
X00943Y00832*
X00942Y00834*
X00942Y00835*
X00941Y00836*
X0094Y00837*
X00939Y00838*
X00938Y00839*
X00937Y0084*
X00936Y00841*
X00935Y00842*
X00933Y00842*
X00932Y00843*
X00931Y00843*
X00929Y00844*
X00928Y00844*
X00927Y00844*
X00925Y00844*
X00924*
X00923Y00844*
X00921Y00844*
X0092Y00844*
X00918Y00843*
X00917Y00843*
X00916Y00842*
X00915Y00842*
X00913Y00841*
X00912Y0084*
X00911Y00839*
X0091Y00838*
X00909Y00837*
X00908Y00836*
X00908Y00835*
X00907Y00834*
X00906Y00832*
X00906Y00831*
X00905Y0083*
X00905Y00828*
X00905Y00827*
X00905Y00826*
X00905Y00824*
X00905Y00823*
X00905Y00822*
X00905Y0082*
X00905Y00819*
X00906Y00817*
X00906Y00816*
X00907Y00815*
X00908Y00814*
X00908Y00813*
X00909Y00811*
X0091Y0081*
X00911Y00809*
X00912Y00809*
X00913Y00808*
X00915Y00807*
X00916Y00806*
X00917Y00806*
X00918Y00805*
X0092Y00805*
X00921Y00805*
X00923Y00804*
X00924Y00804*
X00925*
X00927Y00804*
X00928Y00805*
X00929Y00805*
X00931Y00805*
X00932Y00806*
X00933Y00806*
X00935Y00807*
X00936Y00808*
X00937Y00809*
X00938Y00809*
X00939Y0081*
X0094Y00811*
X00941Y00813*
X00942Y00814*
X00942Y00815*
X00943Y00816*
X00943Y00817*
X00944Y00819*
X00944Y0082*
X00944Y00822*
X00945Y00823*
X00945Y00824*
X00968Y00882D02*
D01*
X00968Y00884*
X00968Y00885*
X00968Y00887*
X00968Y00888*
X00967Y00889*
X00967Y00891*
X00966Y00892*
X00965Y00893*
X00965Y00894*
X00964Y00895*
X00963Y00896*
X00962Y00897*
X00961Y00898*
X0096Y00899*
X00958Y009*
X00957Y009*
X00956Y00901*
X00955Y00901*
X00953Y00902*
X00952Y00902*
X0095Y00902*
X00949Y00902*
X00948*
X00946Y00902*
X00945Y00902*
X00943Y00902*
X00942Y00901*
X00941Y00901*
X0094Y009*
X00938Y009*
X00937Y00899*
X00936Y00898*
X00935Y00897*
X00934Y00896*
X00933Y00895*
X00932Y00894*
X00931Y00893*
X00931Y00892*
X0093Y00891*
X0093Y00889*
X00929Y00888*
X00929Y00887*
X00929Y00885*
X00928Y00884*
X00928Y00882*
X00928Y00881*
X00929Y0088*
X00929Y00878*
X00929Y00877*
X0093Y00876*
X0093Y00874*
X00931Y00873*
X00931Y00872*
X00932Y00871*
X00933Y0087*
X00934Y00868*
X00935Y00868*
X00936Y00867*
X00937Y00866*
X00938Y00865*
X0094Y00864*
X00941Y00864*
X00942Y00863*
X00943Y00863*
X00945Y00863*
X00946Y00862*
X00948Y00862*
X00949*
X0095Y00862*
X00952Y00863*
X00953Y00863*
X00955Y00863*
X00956Y00864*
X00957Y00864*
X00958Y00865*
X0096Y00866*
X00961Y00867*
X00962Y00868*
X00963Y00868*
X00964Y0087*
X00965Y00871*
X00965Y00872*
X00966Y00873*
X00967Y00874*
X00967Y00876*
X00968Y00877*
X00968Y00878*
X00968Y0088*
X00968Y00881*
X00968Y00882*
X00895Y00824D02*
D01*
X00894Y00826*
X00894Y00827*
X00894Y00828*
X00894Y0083*
X00893Y00831*
X00893Y00832*
X00892Y00834*
X00891Y00835*
X00891Y00836*
X0089Y00837*
X00889Y00838*
X00888Y00839*
X00887Y0084*
X00886Y00841*
X00885Y00842*
X00883Y00842*
X00882Y00843*
X00881Y00843*
X00879Y00844*
X00878Y00844*
X00877Y00844*
X00875Y00844*
X00874*
X00872Y00844*
X00871Y00844*
X0087Y00844*
X00868Y00843*
X00867Y00843*
X00866Y00842*
X00865Y00842*
X00863Y00841*
X00862Y0084*
X00861Y00839*
X0086Y00838*
X00859Y00837*
X00858Y00836*
X00858Y00835*
X00857Y00834*
X00856Y00832*
X00856Y00831*
X00855Y0083*
X00855Y00828*
X00855Y00827*
X00855Y00826*
X00855Y00824*
X00855Y00823*
X00855Y00822*
X00855Y0082*
X00855Y00819*
X00856Y00817*
X00856Y00816*
X00857Y00815*
X00858Y00814*
X00858Y00813*
X00859Y00811*
X0086Y0081*
X00861Y00809*
X00862Y00809*
X00863Y00808*
X00865Y00807*
X00866Y00806*
X00867Y00806*
X00868Y00805*
X0087Y00805*
X00871Y00805*
X00872Y00804*
X00874Y00804*
X00875*
X00877Y00804*
X00878Y00805*
X00879Y00805*
X00881Y00805*
X00882Y00806*
X00883Y00806*
X00885Y00807*
X00886Y00808*
X00887Y00809*
X00888Y00809*
X00889Y0081*
X0089Y00811*
X00891Y00813*
X00891Y00814*
X00892Y00815*
X00893Y00816*
X00893Y00817*
X00894Y00819*
X00894Y0082*
X00894Y00822*
X00894Y00823*
X00895Y00824*
X00863Y00187D02*
D01*
X00863Y00189*
X00863Y0019*
X00863Y00192*
X00862Y00193*
X00862Y00194*
X00861Y00196*
X00861Y00197*
X0086Y00198*
X00859Y00199*
X00858Y002*
X00857Y00201*
X00856Y00202*
X00855Y00203*
X00854Y00204*
X00853Y00205*
X00852Y00205*
X0085Y00206*
X00849Y00207*
X00848Y00207*
X00846Y00207*
X00845Y00207*
X00844Y00207*
X00842*
X00841Y00207*
X0084Y00207*
X00838Y00207*
X00837Y00207*
X00836Y00206*
X00834Y00205*
X00833Y00205*
X00832Y00204*
X00831Y00203*
X0083Y00202*
X00829Y00201*
X00828Y002*
X00827Y00199*
X00826Y00198*
X00825Y00197*
X00825Y00196*
X00824Y00194*
X00824Y00193*
X00823Y00192*
X00823Y0019*
X00823Y00189*
X00823Y00187*
X00823Y00186*
X00823Y00185*
X00823Y00183*
X00824Y00182*
X00824Y00181*
X00825Y00179*
X00825Y00178*
X00826Y00177*
X00827Y00176*
X00828Y00175*
X00829Y00174*
X0083Y00173*
X00831Y00172*
X00832Y00171*
X00833Y0017*
X00834Y0017*
X00836Y00169*
X00837Y00168*
X00838Y00168*
X0084Y00168*
X00841Y00168*
X00842Y00168*
X00844*
X00845Y00168*
X00846Y00168*
X00848Y00168*
X00849Y00168*
X0085Y00169*
X00852Y0017*
X00853Y0017*
X00854Y00171*
X00855Y00172*
X00856Y00173*
X00857Y00174*
X00858Y00175*
X00859Y00176*
X0086Y00177*
X00861Y00178*
X00861Y00179*
X00862Y00181*
X00862Y00182*
X00863Y00183*
X00863Y00185*
X00863Y00186*
X00863Y00187*
X01122Y00803D02*
D01*
X01122Y00804*
X01122Y00805*
X01121Y00807*
X01121Y00808*
X01121Y00809*
X0112Y00811*
X0112Y00812*
X01119Y00813*
X01118Y00814*
X01117Y00816*
X01116Y00817*
X01115Y00818*
X01114Y00818*
X01113Y00819*
X01112Y0082*
X01111Y00821*
X01109Y00821*
X01108Y00822*
X01107Y00822*
X01105Y00822*
X01104Y00823*
X01103Y00823*
X01101*
X011Y00823*
X01098Y00822*
X01097Y00822*
X01096Y00822*
X01094Y00821*
X01093Y00821*
X01092Y0082*
X01091Y00819*
X0109Y00818*
X01088Y00818*
X01087Y00817*
X01087Y00816*
X01086Y00814*
X01085Y00813*
X01084Y00812*
X01084Y00811*
X01083Y00809*
X01083Y00808*
X01082Y00807*
X01082Y00805*
X01082Y00804*
X01082Y00803*
X01082Y00801*
X01082Y008*
X01082Y00798*
X01083Y00797*
X01083Y00796*
X01084Y00795*
X01084Y00793*
X01085Y00792*
X01086Y00791*
X01087Y0079*
X01087Y00789*
X01088Y00788*
X0109Y00787*
X01091Y00786*
X01092Y00785*
X01093Y00785*
X01094Y00784*
X01096Y00784*
X01097Y00783*
X01098Y00783*
X011Y00783*
X01101Y00783*
X01103*
X01104Y00783*
X01105Y00783*
X01107Y00783*
X01108Y00784*
X01109Y00784*
X01111Y00785*
X01112Y00785*
X01113Y00786*
X01114Y00787*
X01115Y00788*
X01116Y00789*
X01117Y0079*
X01118Y00791*
X01119Y00792*
X0112Y00793*
X0112Y00795*
X01121Y00796*
X01121Y00797*
X01121Y00798*
X01122Y008*
X01122Y00801*
X01122Y00803*
X0106Y00393D02*
D01*
X0106Y00395*
X0106Y00396*
X01059Y00397*
X01059Y00399*
X01059Y004*
X01058Y00401*
X01058Y00403*
X01057Y00404*
X01056Y00405*
X01055Y00406*
X01054Y00407*
X01053Y00408*
X01052Y00409*
X01051Y0041*
X0105Y00411*
X01049Y00411*
X01047Y00412*
X01046Y00412*
X01045Y00413*
X01043Y00413*
X01042Y00413*
X01041Y00413*
X01039*
X01038Y00413*
X01036Y00413*
X01035Y00413*
X01034Y00412*
X01032Y00412*
X01031Y00411*
X0103Y00411*
X01029Y0041*
X01028Y00409*
X01026Y00408*
X01025Y00407*
X01025Y00406*
X01024Y00405*
X01023Y00404*
X01022Y00403*
X01022Y00401*
X01021Y004*
X01021Y00399*
X0102Y00397*
X0102Y00396*
X0102Y00395*
X0102Y00393*
X0102Y00392*
X0102Y0039*
X0102Y00389*
X01021Y00388*
X01021Y00386*
X01022Y00385*
X01022Y00384*
X01023Y00383*
X01024Y00381*
X01025Y0038*
X01025Y00379*
X01026Y00378*
X01028Y00377*
X01029Y00377*
X0103Y00376*
X01031Y00375*
X01032Y00375*
X01034Y00374*
X01035Y00374*
X01036Y00374*
X01038Y00373*
X01039Y00373*
X01041*
X01042Y00373*
X01043Y00374*
X01045Y00374*
X01046Y00374*
X01047Y00375*
X01049Y00375*
X0105Y00376*
X01051Y00377*
X01052Y00377*
X01053Y00378*
X01054Y00379*
X01055Y0038*
X01056Y00381*
X01057Y00383*
X01058Y00384*
X01058Y00385*
X01059Y00386*
X01059Y00388*
X01059Y00389*
X0106Y0039*
X0106Y00392*
X0106Y00393*
X00614Y00306D02*
D01*
X00614Y00307*
X00614Y00308*
X00614Y0031*
X00613Y00311*
X00613Y00312*
X00612Y00314*
X00612Y00315*
X00611Y00316*
X0061Y00317*
X00609Y00318*
X00608Y00319*
X00607Y0032*
X00606Y00321*
X00605Y00322*
X00604Y00323*
X00603Y00324*
X00601Y00324*
X006Y00325*
X00599Y00325*
X00597Y00325*
X00596Y00325*
X00595Y00326*
X00593*
X00592Y00325*
X00591Y00325*
X00589Y00325*
X00588Y00325*
X00586Y00324*
X00585Y00324*
X00584Y00323*
X00583Y00322*
X00582Y00321*
X00581Y0032*
X0058Y00319*
X00579Y00318*
X00578Y00317*
X00577Y00316*
X00576Y00315*
X00576Y00314*
X00575Y00312*
X00575Y00311*
X00574Y0031*
X00574Y00308*
X00574Y00307*
X00574Y00306*
X00574Y00304*
X00574Y00303*
X00574Y00301*
X00575Y003*
X00575Y00299*
X00576Y00297*
X00576Y00296*
X00577Y00295*
X00578Y00294*
X00579Y00293*
X0058Y00292*
X00581Y00291*
X00582Y0029*
X00583Y00289*
X00584Y00288*
X00585Y00288*
X00586Y00287*
X00588Y00287*
X00589Y00286*
X00591Y00286*
X00592Y00286*
X00593Y00286*
X00595*
X00596Y00286*
X00597Y00286*
X00599Y00286*
X006Y00287*
X00601Y00287*
X00603Y00288*
X00604Y00288*
X00605Y00289*
X00606Y0029*
X00607Y00291*
X00608Y00292*
X00609Y00293*
X0061Y00294*
X00611Y00295*
X00612Y00296*
X00612Y00297*
X00613Y00299*
X00613Y003*
X00614Y00301*
X00614Y00303*
X00614Y00304*
X00614Y00306*
X00662Y00172D02*
D01*
X00662Y00173*
X00662Y00175*
X00662Y00176*
X00661Y00177*
X00661Y00179*
X0066Y0018*
X0066Y00181*
X00659Y00182*
X00658Y00183*
X00658Y00185*
X00657Y00186*
X00656Y00187*
X00655Y00188*
X00653Y00188*
X00652Y00189*
X00651Y0019*
X0065Y0019*
X00648Y00191*
X00647Y00191*
X00646Y00191*
X00644Y00192*
X00643Y00192*
X00642*
X0064Y00192*
X00639Y00191*
X00637Y00191*
X00636Y00191*
X00635Y0019*
X00633Y0019*
X00632Y00189*
X00631Y00188*
X0063Y00188*
X00629Y00187*
X00628Y00186*
X00627Y00185*
X00626Y00183*
X00625Y00182*
X00625Y00181*
X00624Y0018*
X00623Y00179*
X00623Y00177*
X00623Y00176*
X00622Y00175*
X00622Y00173*
X00622Y00172*
X00622Y0017*
X00622Y00169*
X00623Y00168*
X00623Y00166*
X00623Y00165*
X00624Y00164*
X00625Y00162*
X00625Y00161*
X00626Y0016*
X00627Y00159*
X00628Y00158*
X00629Y00157*
X0063Y00156*
X00631Y00155*
X00632Y00154*
X00633Y00154*
X00635Y00153*
X00636Y00153*
X00637Y00152*
X00639Y00152*
X0064Y00152*
X00642Y00152*
X00643*
X00644Y00152*
X00646Y00152*
X00647Y00152*
X00648Y00153*
X0065Y00153*
X00651Y00154*
X00652Y00154*
X00653Y00155*
X00655Y00156*
X00656Y00157*
X00657Y00158*
X00658Y00159*
X00658Y0016*
X00659Y00161*
X0066Y00162*
X0066Y00164*
X00661Y00165*
X00661Y00166*
X00662Y00168*
X00662Y00169*
X00662Y0017*
X00662Y00172*
X0077Y00171D02*
D01*
X00769Y00172*
X00769Y00174*
X00769Y00175*
X00769Y00176*
X00768Y00178*
X00768Y00179*
X00767Y0018*
X00766Y00181*
X00766Y00183*
X00765Y00184*
X00764Y00185*
X00763Y00186*
X00762Y00187*
X00761Y00187*
X0076Y00188*
X00758Y00189*
X00757Y00189*
X00756Y0019*
X00754Y0019*
X00753Y0019*
X00752Y00191*
X0075Y00191*
X00749*
X00747Y00191*
X00746Y0019*
X00745Y0019*
X00743Y0019*
X00742Y00189*
X00741Y00189*
X0074Y00188*
X00738Y00187*
X00737Y00187*
X00736Y00186*
X00735Y00185*
X00734Y00184*
X00733Y00183*
X00733Y00181*
X00732Y0018*
X00731Y00179*
X00731Y00178*
X0073Y00176*
X0073Y00175*
X0073Y00174*
X0073Y00172*
X0073Y00171*
X0073Y00169*
X0073Y00168*
X0073Y00167*
X0073Y00165*
X00731Y00164*
X00731Y00163*
X00732Y00161*
X00733Y0016*
X00733Y00159*
X00734Y00158*
X00735Y00157*
X00736Y00156*
X00737Y00155*
X00738Y00154*
X0074Y00153*
X00741Y00153*
X00742Y00152*
X00743Y00152*
X00745Y00151*
X00746Y00151*
X00747Y00151*
X00749Y00151*
X0075*
X00752Y00151*
X00753Y00151*
X00754Y00151*
X00756Y00152*
X00757Y00152*
X00758Y00153*
X0076Y00153*
X00761Y00154*
X00762Y00155*
X00763Y00156*
X00764Y00157*
X00765Y00158*
X00766Y00159*
X00766Y0016*
X00767Y00161*
X00768Y00163*
X00768Y00164*
X00769Y00165*
X00769Y00167*
X00769Y00168*
X00769Y00169*
X0077Y00171*
X00574Y00143D02*
D01*
X00574Y00145*
X00573Y00146*
X00573Y00147*
X00573Y00149*
X00572Y0015*
X00572Y00151*
X00571Y00153*
X00571Y00154*
X0057Y00155*
X00569Y00156*
X00568Y00157*
X00567Y00158*
X00566Y00159*
X00565Y0016*
X00564Y00161*
X00562Y00161*
X00561Y00162*
X0056Y00162*
X00558Y00163*
X00557Y00163*
X00556Y00163*
X00554Y00163*
X00553*
X00552Y00163*
X0055Y00163*
X00549Y00163*
X00547Y00162*
X00546Y00162*
X00545Y00161*
X00544Y00161*
X00542Y0016*
X00541Y00159*
X0054Y00158*
X00539Y00157*
X00538Y00156*
X00537Y00155*
X00537Y00154*
X00536Y00153*
X00535Y00151*
X00535Y0015*
X00534Y00149*
X00534Y00147*
X00534Y00146*
X00534Y00145*
X00534Y00143*
X00534Y00142*
X00534Y0014*
X00534Y00139*
X00534Y00138*
X00535Y00136*
X00535Y00135*
X00536Y00134*
X00537Y00133*
X00537Y00131*
X00538Y0013*
X00539Y00129*
X0054Y00128*
X00541Y00127*
X00542Y00127*
X00544Y00126*
X00545Y00125*
X00546Y00125*
X00547Y00124*
X00549Y00124*
X0055Y00124*
X00552Y00123*
X00553Y00123*
X00554*
X00556Y00123*
X00557Y00124*
X00558Y00124*
X0056Y00124*
X00561Y00125*
X00562Y00125*
X00564Y00126*
X00565Y00127*
X00566Y00127*
X00567Y00128*
X00568Y00129*
X00569Y0013*
X0057Y00131*
X00571Y00133*
X00571Y00134*
X00572Y00135*
X00572Y00136*
X00573Y00138*
X00573Y00139*
X00573Y0014*
X00574Y00142*
X00574Y00143*
X00621Y0018D02*
D01*
X00621Y00181*
X00621Y00182*
X0062Y00184*
X0062Y00185*
X0062Y00186*
X00619Y00188*
X00619Y00189*
X00618Y0019*
X00617Y00191*
X00616Y00192*
X00615Y00194*
X00614Y00194*
X00613Y00195*
X00612Y00196*
X00611Y00197*
X0061Y00198*
X00608Y00198*
X00607Y00199*
X00606Y00199*
X00604Y00199*
X00603Y002*
X00602Y002*
X006*
X00599Y002*
X00597Y00199*
X00596Y00199*
X00595Y00199*
X00593Y00198*
X00592Y00198*
X00591Y00197*
X0059Y00196*
X00589Y00195*
X00587Y00194*
X00586Y00194*
X00586Y00192*
X00585Y00191*
X00584Y0019*
X00583Y00189*
X00583Y00188*
X00582Y00186*
X00582Y00185*
X00581Y00184*
X00581Y00182*
X00581Y00181*
X00581Y0018*
X00581Y00178*
X00581Y00177*
X00581Y00175*
X00582Y00174*
X00582Y00173*
X00583Y00171*
X00583Y0017*
X00584Y00169*
X00585Y00168*
X00586Y00167*
X00586Y00166*
X00587Y00165*
X00589Y00164*
X0059Y00163*
X00591Y00162*
X00592Y00162*
X00593Y00161*
X00595Y00161*
X00596Y0016*
X00597Y0016*
X00599Y0016*
X006Y0016*
X00602*
X00603Y0016*
X00604Y0016*
X00606Y0016*
X00607Y00161*
X00608Y00161*
X0061Y00162*
X00611Y00162*
X00612Y00163*
X00613Y00164*
X00614Y00165*
X00615Y00166*
X00616Y00167*
X00617Y00168*
X00618Y00169*
X00619Y0017*
X00619Y00171*
X0062Y00173*
X0062Y00174*
X0062Y00175*
X00621Y00177*
X00621Y00178*
X00621Y0018*
X00721D02*
D01*
X00721Y00181*
X00721Y00182*
X00721Y00184*
X0072Y00185*
X0072Y00186*
X0072Y00188*
X00719Y00189*
X00718Y0019*
X00717Y00191*
X00717Y00192*
X00716Y00194*
X00715Y00194*
X00714Y00195*
X00712Y00196*
X00711Y00197*
X0071Y00198*
X00709Y00198*
X00707Y00199*
X00706Y00199*
X00705Y00199*
X00703Y002*
X00702Y002*
X00701*
X00699Y002*
X00698Y00199*
X00696Y00199*
X00695Y00199*
X00694Y00198*
X00693Y00198*
X00691Y00197*
X0069Y00196*
X00689Y00195*
X00688Y00194*
X00687Y00194*
X00686Y00192*
X00685Y00191*
X00684Y0019*
X00684Y00189*
X00683Y00188*
X00682Y00186*
X00682Y00185*
X00682Y00184*
X00681Y00182*
X00681Y00181*
X00681Y0018*
X00681Y00178*
X00681Y00177*
X00682Y00175*
X00682Y00174*
X00682Y00173*
X00683Y00171*
X00684Y0017*
X00684Y00169*
X00685Y00168*
X00686Y00167*
X00687Y00166*
X00688Y00165*
X00689Y00164*
X0069Y00163*
X00691Y00162*
X00693Y00162*
X00694Y00161*
X00695Y00161*
X00696Y0016*
X00698Y0016*
X00699Y0016*
X00701Y0016*
X00702*
X00703Y0016*
X00705Y0016*
X00706Y0016*
X00707Y00161*
X00709Y00161*
X0071Y00162*
X00711Y00162*
X00712Y00163*
X00714Y00164*
X00715Y00165*
X00716Y00166*
X00717Y00167*
X00717Y00168*
X00718Y00169*
X00719Y0017*
X0072Y00171*
X0072Y00173*
X0072Y00174*
X00721Y00175*
X00721Y00177*
X00721Y00178*
X00721Y0018*
X00817Y00181D02*
D01*
X00817Y00182*
X00817Y00183*
X00816Y00185*
X00816Y00186*
X00816Y00187*
X00815Y00189*
X00814Y0019*
X00814Y00191*
X00813Y00192*
X00812Y00193*
X00811Y00194*
X0081Y00195*
X00809Y00196*
X00808Y00197*
X00807Y00198*
X00806Y00199*
X00804Y00199*
X00803Y002*
X00802Y002*
X008Y002*
X00799Y002*
X00797Y00201*
X00796*
X00795Y002*
X00793Y002*
X00792Y002*
X00791Y002*
X00789Y00199*
X00788Y00199*
X00787Y00198*
X00786Y00197*
X00784Y00196*
X00783Y00195*
X00782Y00194*
X00781Y00193*
X00781Y00192*
X0078Y00191*
X00779Y0019*
X00778Y00189*
X00778Y00187*
X00778Y00186*
X00777Y00185*
X00777Y00183*
X00777Y00182*
X00777Y00181*
X00777Y00179*
X00777Y00178*
X00777Y00176*
X00778Y00175*
X00778Y00174*
X00778Y00172*
X00779Y00171*
X0078Y0017*
X00781Y00169*
X00781Y00168*
X00782Y00167*
X00783Y00166*
X00784Y00165*
X00786Y00164*
X00787Y00163*
X00788Y00163*
X00789Y00162*
X00791Y00162*
X00792Y00161*
X00793Y00161*
X00795Y00161*
X00796Y00161*
X00797*
X00799Y00161*
X008Y00161*
X00802Y00161*
X00803Y00162*
X00804Y00162*
X00806Y00163*
X00807Y00163*
X00808Y00164*
X00809Y00165*
X0081Y00166*
X00811Y00167*
X00812Y00168*
X00813Y00169*
X00814Y0017*
X00814Y00171*
X00815Y00172*
X00816Y00174*
X00816Y00175*
X00816Y00176*
X00817Y00178*
X00817Y00179*
X00817Y00181*
X00218Y00145D02*
D01*
X00218Y00147*
X00218Y00148*
X00218Y00149*
X00218Y00151*
X00217Y00152*
X00217Y00153*
X00216Y00155*
X00215Y00156*
X00215Y00157*
X00214Y00158*
X00213Y00159*
X00212Y0016*
X00211Y00161*
X0021Y00162*
X00208Y00162*
X00207Y00163*
X00206Y00164*
X00205Y00164*
X00203Y00165*
X00202Y00165*
X002Y00165*
X00199Y00165*
X00198*
X00196Y00165*
X00195Y00165*
X00193Y00165*
X00192Y00164*
X00191Y00164*
X0019Y00163*
X00188Y00162*
X00187Y00162*
X00186Y00161*
X00185Y0016*
X00184Y00159*
X00183Y00158*
X00182Y00157*
X00181Y00156*
X00181Y00155*
X0018Y00153*
X0018Y00152*
X00179Y00151*
X00179Y00149*
X00179Y00148*
X00178Y00147*
X00178Y00145*
X00178Y00144*
X00179Y00142*
X00179Y00141*
X00179Y0014*
X0018Y00138*
X0018Y00137*
X00181Y00136*
X00181Y00135*
X00182Y00133*
X00183Y00132*
X00184Y00131*
X00185Y0013*
X00186Y00129*
X00187Y00129*
X00188Y00128*
X0019Y00127*
X00191Y00127*
X00192Y00126*
X00193Y00126*
X00195Y00125*
X00196Y00125*
X00198Y00125*
X00199*
X002Y00125*
X00202Y00125*
X00203Y00126*
X00205Y00126*
X00206Y00127*
X00207Y00127*
X00208Y00128*
X0021Y00129*
X00211Y00129*
X00212Y0013*
X00213Y00131*
X00214Y00132*
X00215Y00133*
X00215Y00135*
X00216Y00136*
X00217Y00137*
X00217Y00138*
X00218Y0014*
X00218Y00141*
X00218Y00142*
X00218Y00144*
X00218Y00145*
X00167Y00193D02*
D01*
X00167Y00195*
X00167Y00196*
X00167Y00198*
X00166Y00199*
X00166Y002*
X00165Y00202*
X00165Y00203*
X00164Y00204*
X00163Y00205*
X00162Y00206*
X00162Y00207*
X00161Y00208*
X00159Y00209*
X00158Y0021*
X00157Y00211*
X00156Y00211*
X00155Y00212*
X00153Y00212*
X00152Y00213*
X00151Y00213*
X00149Y00213*
X00148Y00213*
X00146*
X00145Y00213*
X00144Y00213*
X00142Y00213*
X00141Y00212*
X0014Y00212*
X00138Y00211*
X00137Y00211*
X00136Y0021*
X00135Y00209*
X00134Y00208*
X00133Y00207*
X00132Y00206*
X00131Y00205*
X0013Y00204*
X00129Y00203*
X00129Y00202*
X00128Y002*
X00128Y00199*
X00128Y00198*
X00127Y00196*
X00127Y00195*
X00127Y00193*
X00127Y00192*
X00127Y00191*
X00128Y00189*
X00128Y00188*
X00128Y00187*
X00129Y00185*
X00129Y00184*
X0013Y00183*
X00131Y00182*
X00132Y00181*
X00133Y0018*
X00134Y00179*
X00135Y00178*
X00136Y00177*
X00137Y00176*
X00138Y00175*
X0014Y00175*
X00141Y00174*
X00142Y00174*
X00144Y00174*
X00145Y00174*
X00146Y00173*
X00148*
X00149Y00174*
X00151Y00174*
X00152Y00174*
X00153Y00174*
X00155Y00175*
X00156Y00175*
X00157Y00176*
X00158Y00177*
X00159Y00178*
X00161Y00179*
X00162Y0018*
X00162Y00181*
X00163Y00182*
X00164Y00183*
X00165Y00184*
X00165Y00185*
X00166Y00187*
X00166Y00188*
X00167Y00189*
X00167Y00191*
X00167Y00192*
X00167Y00193*
X00117Y003D02*
D01*
X00117Y00301*
X00117Y00302*
X00117Y00304*
X00116Y00305*
X00116Y00307*
X00115Y00308*
X00115Y00309*
X00114Y0031*
X00113Y00311*
X00112Y00313*
X00111Y00314*
X0011Y00315*
X00109Y00315*
X00108Y00316*
X00107Y00317*
X00106Y00318*
X00104Y00318*
X00103Y00319*
X00102Y00319*
X001Y00319*
X00099Y0032*
X00098Y0032*
X00096*
X00095Y0032*
X00093Y00319*
X00092Y00319*
X00091Y00319*
X00089Y00318*
X00088Y00318*
X00087Y00317*
X00086Y00316*
X00085Y00315*
X00084Y00315*
X00083Y00314*
X00082Y00313*
X00081Y00311*
X0008Y0031*
X00079Y00309*
X00079Y00308*
X00078Y00307*
X00078Y00305*
X00077Y00304*
X00077Y00302*
X00077Y00301*
X00077Y003*
X00077Y00298*
X00077Y00297*
X00077Y00296*
X00078Y00294*
X00078Y00293*
X00079Y00292*
X00079Y0029*
X0008Y00289*
X00081Y00288*
X00082Y00287*
X00083Y00286*
X00084Y00285*
X00085Y00284*
X00086Y00283*
X00087Y00282*
X00088Y00282*
X00089Y00281*
X00091Y00281*
X00092Y0028*
X00093Y0028*
X00095Y0028*
X00096Y0028*
X00098*
X00099Y0028*
X001Y0028*
X00102Y0028*
X00103Y00281*
X00104Y00281*
X00106Y00282*
X00107Y00282*
X00108Y00283*
X00109Y00284*
X0011Y00285*
X00111Y00286*
X00112Y00287*
X00113Y00288*
X00114Y00289*
X00115Y0029*
X00115Y00292*
X00116Y00293*
X00116Y00294*
X00117Y00296*
X00117Y00297*
X00117Y00298*
X00117Y003*
X00461Y00579D02*
D01*
X00461Y00581*
X00461Y00582*
X00461Y00583*
X00461Y00585*
X0046Y00586*
X0046Y00587*
X00459Y00589*
X00458Y0059*
X00458Y00591*
X00457Y00592*
X00456Y00593*
X00455Y00594*
X00454Y00595*
X00453Y00596*
X00451Y00597*
X0045Y00597*
X00449Y00598*
X00448Y00598*
X00446Y00599*
X00445Y00599*
X00444Y00599*
X00442Y00599*
X00441*
X00439Y00599*
X00438Y00599*
X00437Y00599*
X00435Y00598*
X00434Y00598*
X00433Y00597*
X00431Y00597*
X0043Y00596*
X00429Y00595*
X00428Y00594*
X00427Y00593*
X00426Y00592*
X00425Y00591*
X00424Y0059*
X00424Y00589*
X00423Y00587*
X00423Y00586*
X00422Y00585*
X00422Y00583*
X00422Y00582*
X00421Y00581*
X00421Y00579*
X00421Y00578*
X00422Y00576*
X00422Y00575*
X00422Y00574*
X00423Y00572*
X00423Y00571*
X00424Y0057*
X00424Y00569*
X00425Y00567*
X00426Y00566*
X00427Y00565*
X00428Y00564*
X00429Y00563*
X0043Y00563*
X00431Y00562*
X00433Y00561*
X00434Y00561*
X00435Y0056*
X00437Y0056*
X00438Y0056*
X00439Y00559*
X00441Y00559*
X00442*
X00444Y00559*
X00445Y0056*
X00446Y0056*
X00448Y0056*
X00449Y00561*
X0045Y00561*
X00451Y00562*
X00453Y00563*
X00454Y00563*
X00455Y00564*
X00456Y00565*
X00457Y00566*
X00458Y00567*
X00458Y00569*
X00459Y0057*
X0046Y00571*
X0046Y00572*
X00461Y00574*
X00461Y00575*
X00461Y00576*
X00461Y00578*
X00461Y00579*
X00921Y00944D02*
D01*
X00921Y00946*
X00921Y00947*
X00921Y00949*
X0092Y0095*
X0092Y00951*
X00919Y00953*
X00919Y00954*
X00918Y00955*
X00917Y00956*
X00916Y00957*
X00915Y00958*
X00914Y00959*
X00913Y0096*
X00912Y00961*
X00911Y00962*
X0091Y00962*
X00909Y00963*
X00907Y00963*
X00906Y00964*
X00905Y00964*
X00903Y00964*
X00902Y00964*
X009*
X00899Y00964*
X00898Y00964*
X00896Y00964*
X00895Y00963*
X00894Y00963*
X00892Y00962*
X00891Y00962*
X0089Y00961*
X00889Y0096*
X00888Y00959*
X00887Y00958*
X00886Y00957*
X00885Y00956*
X00884Y00955*
X00883Y00954*
X00883Y00953*
X00882Y00951*
X00882Y0095*
X00882Y00949*
X00881Y00947*
X00881Y00946*
X00881Y00944*
X00881Y00943*
X00881Y00942*
X00882Y0094*
X00882Y00939*
X00882Y00938*
X00883Y00936*
X00883Y00935*
X00884Y00934*
X00885Y00933*
X00886Y00932*
X00887Y0093*
X00888Y0093*
X00889Y00929*
X0089Y00928*
X00891Y00927*
X00892Y00926*
X00894Y00926*
X00895Y00925*
X00896Y00925*
X00898Y00925*
X00899Y00924*
X009Y00924*
X00902*
X00903Y00924*
X00905Y00925*
X00906Y00925*
X00907Y00925*
X00909Y00926*
X0091Y00926*
X00911Y00927*
X00912Y00928*
X00913Y00929*
X00914Y0093*
X00915Y0093*
X00916Y00932*
X00917Y00933*
X00918Y00934*
X00919Y00935*
X00919Y00936*
X0092Y00938*
X0092Y00939*
X00921Y0094*
X00921Y00942*
X00921Y00943*
X00921Y00944*
M02*