%FSTAX23Y23*%
%MOIN*%
%SFA1B1*%

%IPPOS*%
%ADD46C,0.005000*%
%ADD47C,0.003940*%
%ADD66C,0.001970*%
%LNsrt-wren-25-22-v103-1*%
%LPD*%
G54D46*
X00986Y0057D02*
X01163D01*
X00986D02*
Y00641D01*
X01163*
Y0057D02*
Y00641D01*
X00162Y00049D02*
Y00226D01*
X00233*
Y00049D02*
Y00226D01*
X00162Y00049D02*
X00233D01*
G54D47*
X00648Y0037D02*
X00687D01*
X00668Y00351D02*
Y0039D01*
X00589Y00276D02*
Y00465D01*
X00746Y00276D02*
Y00465D01*
X00589Y00276D02*
X00746D01*
X00589Y00465D02*
X00746D01*
G54D66*
X0114Y00333D02*
Y00455D01*
X01122Y00333D02*
X0114D01*
X01122Y00295D02*
Y00333D01*
X00958Y00295D02*
X01122D01*
X00958D02*
Y00333D01*
X0094D02*
X00958D01*
X0094D02*
Y00455D01*
X00958*
Y00492*
X01122*
Y00455D02*
Y00492D01*
Y00455D02*
X0114D01*
X00383Y00293D02*
Y00585D01*
X00167Y00293D02*
Y00585D01*
X00383*
X00167Y00293D02*
X00383D01*
X00801Y00594D02*
X00934D01*
Y00447D02*
Y00594D01*
X00801Y00447D02*
X00934D01*
X00801D02*
Y00594D01*
X00304Y0027D02*
X00951D01*
Y00022D02*
Y0027D01*
X00304Y00022D02*
X00951D01*
X00304D02*
Y0027D01*
M02*