%FSTAX23Y23*%
%MOIN*%
%SFA1B1*%

%IPPOS*%
%ADD46C,0.005000*%
%LNsrt-wren-25-22-v103-1*%
%LPD*%
G54D46*
X00044Y0075D02*
X00079D01*
X00062Y00733D02*
Y00768D01*
X00044Y0065D02*
X00079D01*
X00062Y00633D02*
Y00668D01*
X00044Y0055D02*
X00079D01*
X00062Y00533D02*
Y00568D01*
X00044Y0045D02*
X00079D01*
X00062Y00433D02*
Y00468D01*
X00044Y0035D02*
X00079D01*
X00062Y00333D02*
Y00368D01*
X00044Y0025D02*
X00079D01*
X00062Y00233D02*
Y00268D01*
X0049Y00578D02*
X00502D01*
X00496Y00572D02*
Y00584D01*
X0055Y00578D02*
X00562D01*
X00556Y00572D02*
Y00584D01*
X00409Y00496D02*
X00421D01*
X00415Y0049D02*
Y00502D01*
X00138Y00592D02*
X0015D01*
X00144Y00587D02*
Y00598D01*
X00587Y00547D02*
X00599D01*
X00593Y00541D02*
Y00553D01*
X00939Y00264D02*
X00951D01*
X00945Y00258D02*
Y0027D01*
X01169Y00439D02*
X01181D01*
X01175Y00433D02*
Y00445D01*
X00409Y00389D02*
X00421D01*
X00415Y00383D02*
Y00395D01*
X00409Y00319D02*
X00421D01*
X00415Y00313D02*
Y00325D01*
X00409Y00454D02*
X00421D01*
X00415Y00448D02*
Y0046D01*
X00409Y00424D02*
X00421D01*
X00415Y00418D02*
Y0043D01*
X00244Y00289D02*
X00256D01*
X0025Y00283D02*
Y00295D01*
X00199Y00644D02*
X00211D01*
X00205Y00638D02*
Y0065D01*
X00239Y00744D02*
X00251D01*
X00245Y00738D02*
Y0075D01*
X00274Y00764D02*
X00286D01*
X0028Y00758D02*
Y0077D01*
X00274Y00824D02*
X00286D01*
X0028Y00818D02*
Y0083D01*
X00274Y00884D02*
X00286D01*
X0028Y00878D02*
Y0089D01*
X00154Y00744D02*
X00166D01*
X0016Y00738D02*
Y0075D01*
X00514Y00524D02*
X00526D01*
X0052Y00518D02*
Y0053D01*
X00724Y00559D02*
X00736D01*
X0073Y00553D02*
Y00565D01*
X00659Y00424D02*
X00671D01*
X00665Y00418D02*
Y0043D01*
X00814Y00539D02*
X00826D01*
X0082Y00533D02*
Y00545D01*
X01169Y00264D02*
X01181D01*
X01175Y00258D02*
Y0027D01*
X00989Y00524D02*
X01001D01*
X00995Y00518D02*
Y0053D01*
X00794Y00364D02*
X00806D01*
X008Y00358D02*
Y0037D01*
X00779Y00644D02*
X00791D01*
X00785Y00638D02*
Y0065D01*
X00159Y00334D02*
X00171D01*
X00165Y00328D02*
Y0034D01*
X00159Y00539D02*
X00171D01*
X00165Y00533D02*
Y00545D01*
X00344Y00269D02*
X00356D01*
X0035Y00263D02*
Y00275D01*
X00944Y00605D02*
X00956D01*
X0095Y00599D02*
Y00611D01*
X00648Y00477D02*
X0066D01*
X00654Y00471D02*
Y00483D01*
X00919Y00824D02*
X00931D01*
X00925Y00818D02*
Y0083D01*
X00942Y00882D02*
X00954D01*
X00948Y00876D02*
Y00888D01*
X00869Y00824D02*
X0088D01*
X00875Y00818D02*
Y0083D01*
X00837Y00187D02*
X00849D01*
X00843Y00182D02*
Y00193D01*
X01096Y00803D02*
X01108D01*
X01102Y00797D02*
Y00809D01*
X01034Y00393D02*
X01046D01*
X0104Y00387D02*
Y00399D01*
X00588Y00306D02*
X006D01*
X00594Y003D02*
Y00312D01*
X00636Y00172D02*
X00648D01*
X00642Y00166D02*
Y00178D01*
X00744Y00171D02*
X00755D01*
X0075Y00165D02*
Y00177D01*
X00548Y00143D02*
X0056D01*
X00554Y00137D02*
Y00149D01*
X00595Y0018D02*
X00607D01*
X00601Y00174D02*
Y00186D01*
X00695Y0018D02*
X00707D01*
X00701Y00174D02*
Y00186D01*
X00791Y00181D02*
X00803D01*
X00797Y00175D02*
Y00187D01*
X00192Y00145D02*
X00204D01*
X00198Y00139D02*
Y00151D01*
X00141Y00193D02*
X00153D01*
X00147Y00187D02*
Y00199D01*
X00091Y003D02*
X00103D01*
X00097Y00294D02*
Y00306D01*
X00436Y00579D02*
X00447D01*
X00441Y00573D02*
Y00585D01*
X00895Y00944D02*
X00907D01*
X00901Y00938D02*
Y0095D01*
M02*