%FSTAX23Y23*%
%MOIN*%
%SFA1B1*%

%IPPOS*%
%ADD26C,0.010000*%
%ADD44C,0.007870*%
%ADD45C,0.009840*%
%ADD46C,0.005000*%
%ADD47C,0.003940*%
%LNsrt-wren-25-22-v103-1*%
%LPD*%
G36*
X00222Y00113D02*
X00173D01*
Y00129*
X00222*
Y00113*
G37*
G36*
X01099Y00581D02*
X01082D01*
Y0063*
X01099*
Y00581*
G37*
G54D26*
X01179Y00894D02*
D01*
X01179Y00898*
X01179Y00902*
X01178Y00906*
X01177Y0091*
X01176Y00914*
X01174Y00918*
X01172Y00921*
X0117Y00925*
X01168Y00928*
X01165Y00932*
X01163Y00935*
X0116Y00938*
X01156Y0094*
X01153Y00943*
X0115Y00945*
X01146Y00947*
X01142Y00949*
X01138Y0095*
X01134Y00951*
X0113Y00952*
X01126Y00952*
X01122Y00953*
X01118*
X01114Y00952*
X0111Y00952*
X01106Y00951*
X01102Y0095*
X01098Y00949*
X01094Y00947*
X01091Y00945*
X01087Y00943*
X01084Y0094*
X01081Y00938*
X01078Y00935*
X01075Y00932*
X01072Y00928*
X0107Y00925*
X01068Y00921*
X01066Y00918*
X01065Y00914*
X01063Y0091*
X01062Y00906*
X01062Y00902*
X01061Y00898*
X01061Y00894*
X01061Y0089*
X01062Y00886*
X01062Y00881*
X01063Y00877*
X01065Y00874*
X01066Y0087*
X01068Y00866*
X0107Y00862*
X01072Y00859*
X01075Y00856*
X01078Y00853*
X01081Y0085*
X01084Y00847*
X01087Y00845*
X01091Y00843*
X01094Y00841*
X01098Y00839*
X01102Y00838*
X01106Y00836*
X0111Y00836*
X01114Y00835*
X01118Y00835*
X01122*
X01126Y00835*
X0113Y00836*
X01134Y00836*
X01138Y00838*
X01142Y00839*
X01146Y00841*
X0115Y00843*
X01153Y00845*
X01156Y00847*
X0116Y0085*
X01163Y00853*
X01165Y00856*
X01168Y00859*
X0117Y00862*
X01172Y00866*
X01174Y0087*
X01176Y00874*
X01177Y00877*
X01178Y00881*
X01179Y00886*
X01179Y0089*
X01179Y00894*
X0118Y00106D02*
D01*
X01179Y0011*
X01179Y00114*
X01178Y00118*
X01177Y00122*
X01176Y00126*
X01175Y0013*
X01173Y00134*
X01171Y00137*
X01168Y00141*
X01166Y00144*
X01163Y00147*
X0116Y0015*
X01157Y00152*
X01154Y00155*
X0115Y00157*
X01146Y00159*
X01143Y00161*
X01139Y00162*
X01135Y00163*
X01131Y00164*
X01127Y00165*
X01123Y00165*
X01119*
X01114Y00165*
X0111Y00164*
X01106Y00163*
X01102Y00162*
X01098Y00161*
X01095Y00159*
X01091Y00157*
X01088Y00155*
X01084Y00152*
X01081Y0015*
X01078Y00147*
X01075Y00144*
X01073Y00141*
X0107Y00137*
X01068Y00134*
X01067Y0013*
X01065Y00126*
X01064Y00122*
X01063Y00118*
X01062Y00114*
X01062Y0011*
X01062Y00106*
X01062Y00102*
X01062Y00098*
X01063Y00094*
X01064Y0009*
X01065Y00086*
X01067Y00082*
X01068Y00078*
X0107Y00075*
X01073Y00071*
X01075Y00068*
X01078Y00065*
X01081Y00062*
X01084Y00059*
X01088Y00057*
X01091Y00055*
X01095Y00053*
X01098Y00051*
X01102Y0005*
X01106Y00049*
X0111Y00048*
X01114Y00047*
X01119Y00047*
X01123*
X01127Y00047*
X01131Y00048*
X01135Y00049*
X01139Y0005*
X01143Y00051*
X01146Y00053*
X0115Y00055*
X01154Y00057*
X01157Y00059*
X0116Y00062*
X01163Y00065*
X01166Y00068*
X01168Y00071*
X01171Y00075*
X01173Y00078*
X01175Y00082*
X01176Y00086*
X01177Y0009*
X01178Y00094*
X01179Y00098*
X01179Y00102*
X0118Y00106*
X00155D02*
D01*
X00155Y0011*
X00154Y00114*
X00154Y00118*
X00153Y00122*
X00151Y00126*
X0015Y0013*
X00148Y00134*
X00146Y00137*
X00144Y00141*
X00141Y00144*
X00138Y00147*
X00135Y0015*
X00132Y00152*
X00129Y00155*
X00126Y00157*
X00122Y00159*
X00118Y00161*
X00114Y00162*
X0011Y00163*
X00106Y00164*
X00102Y00165*
X00098Y00165*
X00094*
X0009Y00165*
X00086Y00164*
X00082Y00163*
X00078Y00162*
X00074Y00161*
X0007Y00159*
X00066Y00157*
X00063Y00155*
X0006Y00152*
X00056Y0015*
X00053Y00147*
X00051Y00144*
X00048Y00141*
X00046Y00137*
X00044Y00134*
X00042Y0013*
X0004Y00126*
X00039Y00122*
X00038Y00118*
X00037Y00114*
X00037Y0011*
X00037Y00106*
X00037Y00102*
X00037Y00098*
X00038Y00094*
X00039Y0009*
X0004Y00086*
X00042Y00082*
X00044Y00078*
X00046Y00075*
X00048Y00071*
X00051Y00068*
X00053Y00065*
X00056Y00062*
X0006Y00059*
X00063Y00057*
X00066Y00055*
X0007Y00053*
X00074Y00051*
X00078Y0005*
X00082Y00049*
X00086Y00048*
X0009Y00047*
X00094Y00047*
X00098*
X00102Y00047*
X00106Y00048*
X0011Y00049*
X00114Y0005*
X00118Y00051*
X00122Y00053*
X00126Y00055*
X00129Y00057*
X00132Y00059*
X00135Y00062*
X00138Y00065*
X00141Y00068*
X00144Y00071*
X00146Y00075*
X00148Y00078*
X0015Y00082*
X00151Y00086*
X00153Y0009*
X00154Y00094*
X00154Y00098*
X00155Y00102*
X00155Y00106*
X00156Y00895D02*
D01*
X00156Y00899*
X00155Y00903*
X00155Y00907*
X00154Y00911*
X00152Y00915*
X00151Y00919*
X00149Y00923*
X00147Y00926*
X00145Y0093*
X00142Y00933*
X00139Y00936*
X00136Y00939*
X00133Y00942*
X0013Y00944*
X00126Y00946*
X00123Y00948*
X00119Y0095*
X00115Y00951*
X00111Y00952*
X00107Y00953*
X00103Y00954*
X00099Y00954*
X00095*
X00091Y00954*
X00087Y00953*
X00083Y00952*
X00079Y00951*
X00075Y0095*
X00071Y00948*
X00067Y00946*
X00064Y00944*
X00061Y00942*
X00057Y00939*
X00054Y00936*
X00052Y00933*
X00049Y0093*
X00047Y00926*
X00045Y00923*
X00043Y00919*
X00041Y00915*
X0004Y00911*
X00039Y00907*
X00038Y00903*
X00038Y00899*
X00038Y00895*
X00038Y00891*
X00038Y00887*
X00039Y00883*
X0004Y00879*
X00041Y00875*
X00043Y00871*
X00045Y00867*
X00047Y00864*
X00049Y0086*
X00052Y00857*
X00054Y00854*
X00057Y00851*
X00061Y00849*
X00064Y00846*
X00067Y00844*
X00071Y00842*
X00075Y0084*
X00079Y00839*
X00083Y00838*
X00087Y00837*
X00091Y00836*
X00095Y00836*
X00099*
X00103Y00836*
X00107Y00837*
X00111Y00838*
X00115Y00839*
X00119Y0084*
X00123Y00842*
X00126Y00844*
X0013Y00846*
X00133Y00849*
X00136Y00851*
X00139Y00854*
X00142Y00857*
X00145Y0086*
X00147Y00864*
X00149Y00867*
X00151Y00871*
X00152Y00875*
X00154Y00879*
X00155Y00883*
X00155Y00887*
X00156Y00891*
X00156Y00895*
X00398Y00194D02*
X00432D01*
X004Y00021D02*
Y00041D01*
X00398Y00186D02*
Y00194D01*
X00823D02*
X00858D01*
Y00186D02*
Y00194D01*
X004Y00021D02*
X00855D01*
Y00044*
X01013Y00546D02*
Y00513D01*
X0102Y00506*
X01033*
X0104Y00513*
Y00546*
X01079Y00506D02*
X01053D01*
X01079Y00533*
Y00539*
X01072Y00546*
X01059*
X01053Y00539*
X0013Y00413D02*
X00163D01*
X00169Y0042*
Y00433*
X00163Y0044*
X0013*
X00137Y00453D02*
X0013Y00459D01*
Y00472*
X00137Y00479*
X00143*
X0015Y00472*
Y00466*
Y00472*
X00156Y00479*
X00163*
X00169Y00472*
Y00459*
X00163Y00453*
X01162Y00445D02*
X01156Y00438D01*
Y00425*
X01162Y00419*
X01188*
X01195Y00425*
Y00438*
X01188Y00445*
X01195Y00484D02*
Y00458D01*
X01169Y00484*
X01162*
X01156Y00478*
Y00465*
X01162Y00458*
X0015Y00793D02*
X00143Y008D01*
X0013*
X00124Y00793*
Y00767*
X0013Y0076*
X00143*
X0015Y00767*
X00163Y00793D02*
X00169Y008D01*
X00183*
X00189Y00793*
Y00787*
X00183Y0078*
X00176*
X00183*
X00189Y00773*
Y00767*
X00183Y0076*
X00169*
X00163Y00767*
X00228Y00793D02*
X00222Y008D01*
X00209*
X00202Y00793*
Y00767*
X00209Y0076*
X00222*
X00228Y00767*
X00261Y0076D02*
Y008D01*
X00242Y0078*
X00268*
X01115Y00704D02*
Y00743D01*
X01135*
X01141Y00737*
Y00723*
X01135Y00717*
X01115*
X01128D02*
X01141Y00704D01*
X01154Y00743D02*
X01181D01*
Y00737*
X01154Y0071*
Y00704*
X01115Y00779D02*
Y00818D01*
X01135*
X01141Y00812*
Y00798*
X01135Y00792*
X01115*
X01128D02*
X01141Y00779D01*
X01154Y00812D02*
X01161Y00818D01*
X01174*
X01181Y00812*
Y00805*
X01174Y00798*
X01181Y00792*
Y00785*
X01174Y00779*
X01161*
X01154Y00785*
Y00792*
X01161Y00798*
X01154Y00805*
Y00812*
X01161Y00798D02*
X01174D01*
X00717Y00532D02*
Y00572D01*
X00736*
X00743Y00565*
Y00552*
X00736Y00546*
X00717*
X0073D02*
X00743Y00532D01*
X00756D02*
X00769D01*
X00763*
Y00572*
X00756Y00565*
X00562Y00291D02*
Y0033D01*
X00581*
X00588Y00324*
Y00311*
X00581Y00304*
X00562*
X00575D02*
X00588Y00291D01*
X00621D02*
Y0033D01*
X00601Y00311*
X00627*
X006Y00349D02*
X00561D01*
Y00368*
X00567Y00375*
X0058*
X00587Y00368*
Y00349*
Y00362D02*
X006Y00375D01*
X00561Y00414D02*
X00567Y00401D01*
X0058Y00388*
X00593*
X006Y00395*
Y00408*
X00593Y00414*
X00587*
X0058Y00408*
Y00388*
X00605Y00449D02*
X00566D01*
Y00468*
X00572Y00475*
X00585*
X00592Y00468*
Y00449*
Y00462D02*
X00605Y00475D01*
X00566Y00514D02*
Y00488D01*
X00585*
X00579Y00501*
Y00508*
X00585Y00514*
X00598*
X00605Y00508*
Y00495*
X00598Y00488*
X00215Y00953D02*
Y0092D01*
X00222Y00914*
X00235*
X00241Y0092*
Y00953*
X00254Y00914D02*
X00268D01*
X00261*
Y00953*
X00254Y00947*
X00875Y00289D02*
Y00328D01*
X00894*
X00901Y00322*
Y00308*
X00894Y00302*
X00875*
X00888D02*
X00901Y00289D01*
X0094D02*
X00914D01*
X0094Y00315*
Y00322*
X00934Y00328*
X0092*
X00914Y00322*
X00917Y00562D02*
Y00588D01*
X00911Y00594*
X00897*
X00891Y00588*
Y00562*
X00897Y00555*
X00911*
X00904Y00568D02*
X00917Y00555D01*
X00911D02*
X00917Y00562D01*
X00956Y00555D02*
X0093D01*
X00956Y00581*
Y00588*
X0095Y00594*
X00937*
X0093Y00588*
X00806Y00409D02*
Y00448D01*
X00825*
X00832Y00442*
Y00429*
X00825Y00422*
X00806*
X00819D02*
X00832Y00409D01*
X00845Y00442D02*
X00852Y00448D01*
X00865*
X00871Y00442*
Y00435*
X00865Y00429*
X00858*
X00865*
X00871Y00422*
Y00416*
X00865Y00409*
X00852*
X00845Y00416*
X01044Y00195D02*
X01038Y00201D01*
X01025*
X01018Y00195*
Y00168*
X01025Y00162*
X01038*
X01044Y00168*
X01058Y00162D02*
X01071D01*
X01064*
Y00201*
X01058Y00195*
X0098Y00683D02*
Y00643D01*
X00999*
X01006Y0065*
Y00676*
X00999Y00683*
X0098*
X01045Y00643D02*
X01019D01*
X01045Y00669*
Y00676*
X01039Y00683*
X01026*
X01019Y00676*
X00747Y00286D02*
Y00312D01*
X00741Y00319*
X00728*
X00721Y00312*
Y00286*
X00728Y00279*
X00741*
X00734Y00292D02*
X00747Y00279D01*
X00741D02*
X00747Y00286D01*
X00761Y00279D02*
X00774D01*
X00767*
Y00319*
X00761Y00312*
X00237Y00238D02*
Y00198D01*
X00256*
X00263Y00205*
Y00231*
X00256Y00238*
X00237*
X00276Y00198D02*
X00289D01*
X00283*
Y00238*
X00276Y00231*
G54D44*
X01103Y00504D02*
D01*
X01103Y00504*
X01103Y00505*
X01103Y00505*
X01103Y00505*
X01103Y00505*
X01103Y00506*
X01103Y00506*
X01102Y00506*
X01102Y00506*
X01102Y00507*
X01102Y00507*
X01102Y00507*
X01102Y00507*
X01101Y00507*
X01101Y00507*
X01101Y00508*
X01101Y00508*
X011Y00508*
X011Y00508*
X011Y00508*
X011Y00508*
X01099Y00508*
X01099*
X01099Y00508*
X01098Y00508*
X01098Y00508*
X01098Y00508*
X01098Y00508*
X01097Y00508*
X01097Y00507*
X01097Y00507*
X01097Y00507*
X01096Y00507*
X01096Y00507*
X01096Y00507*
X01096Y00506*
X01096Y00506*
X01096Y00506*
X01096Y00506*
X01095Y00505*
X01095Y00505*
X01095Y00505*
X01095Y00505*
X01095Y00504*
X01095Y00504*
X01095Y00504*
X01095Y00503*
X01095Y00503*
X01095Y00503*
X01095Y00503*
X01096Y00502*
X01096Y00502*
X01096Y00502*
X01096Y00502*
X01096Y00501*
X01096Y00501*
X01096Y00501*
X01097Y00501*
X01097Y00501*
X01097Y00501*
X01097Y005*
X01098Y005*
X01098Y005*
X01098Y005*
X01098Y005*
X01099Y005*
X01099Y005*
X01099*
X011Y005*
X011Y005*
X011Y005*
X011Y005*
X01101Y005*
X01101Y005*
X01101Y00501*
X01101Y00501*
X01102Y00501*
X01102Y00501*
X01102Y00501*
X01102Y00501*
X01102Y00502*
X01102Y00502*
X01103Y00502*
X01103Y00502*
X01103Y00503*
X01103Y00503*
X01103Y00503*
X01103Y00503*
X01103Y00504*
X01103Y00504*
X00377Y00607D02*
D01*
X00377Y00608*
X00377Y00608*
X00377Y00608*
X00377Y00609*
X00377Y00609*
X00377Y00609*
X00377Y00609*
X00377Y0061*
X00376Y0061*
X00376Y0061*
X00376Y0061*
X00376Y0061*
X00376Y00611*
X00375Y00611*
X00375Y00611*
X00375Y00611*
X00375Y00611*
X00374Y00611*
X00374Y00611*
X00374Y00611*
X00374Y00611*
X00373Y00611*
X00373*
X00373Y00611*
X00373Y00611*
X00372Y00611*
X00372Y00611*
X00372Y00611*
X00372Y00611*
X00371Y00611*
X00371Y00611*
X00371Y00611*
X00371Y0061*
X0037Y0061*
X0037Y0061*
X0037Y0061*
X0037Y0061*
X0037Y00609*
X0037Y00609*
X0037Y00609*
X00369Y00609*
X00369Y00608*
X00369Y00608*
X00369Y00608*
X00369Y00607*
X00369Y00607*
X00369Y00607*
X00369Y00607*
X00369Y00606*
X0037Y00606*
X0037Y00606*
X0037Y00606*
X0037Y00605*
X0037Y00605*
X0037Y00605*
X0037Y00605*
X00371Y00605*
X00371Y00604*
X00371Y00604*
X00371Y00604*
X00372Y00604*
X00372Y00604*
X00372Y00604*
X00372Y00604*
X00373Y00604*
X00373Y00604*
X00373Y00604*
X00373*
X00374Y00604*
X00374Y00604*
X00374Y00604*
X00374Y00604*
X00375Y00604*
X00375Y00604*
X00375Y00604*
X00375Y00604*
X00376Y00604*
X00376Y00605*
X00376Y00605*
X00376Y00605*
X00376Y00605*
X00377Y00605*
X00377Y00606*
X00377Y00606*
X00377Y00606*
X00377Y00606*
X00377Y00607*
X00377Y00607*
X00377Y00607*
X00377Y00607*
X00304Y00943D02*
D01*
X00304Y00943*
X00304Y00944*
X00303Y00944*
X00303Y00944*
X00303Y00944*
X00303Y00945*
X00303Y00945*
X00303Y00945*
X00303Y00945*
X00303Y00946*
X00302Y00946*
X00302Y00946*
X00302Y00946*
X00302Y00946*
X00302Y00947*
X00301Y00947*
X00301Y00947*
X00301Y00947*
X00301Y00947*
X003Y00947*
X003Y00947*
X003Y00947*
X00299*
X00299Y00947*
X00299Y00947*
X00299Y00947*
X00298Y00947*
X00298Y00947*
X00298Y00947*
X00298Y00947*
X00297Y00946*
X00297Y00946*
X00297Y00946*
X00297Y00946*
X00297Y00946*
X00296Y00945*
X00296Y00945*
X00296Y00945*
X00296Y00945*
X00296Y00944*
X00296Y00944*
X00296Y00944*
X00296Y00944*
X00296Y00943*
X00296Y00943*
X00296Y00943*
X00296Y00943*
X00296Y00942*
X00296Y00942*
X00296Y00942*
X00296Y00942*
X00296Y00941*
X00296Y00941*
X00296Y00941*
X00297Y00941*
X00297Y0094*
X00297Y0094*
X00297Y0094*
X00297Y0094*
X00298Y0094*
X00298Y0094*
X00298Y00939*
X00298Y00939*
X00299Y00939*
X00299Y00939*
X00299Y00939*
X00299Y00939*
X003*
X003Y00939*
X003Y00939*
X00301Y00939*
X00301Y00939*
X00301Y00939*
X00301Y0094*
X00302Y0094*
X00302Y0094*
X00302Y0094*
X00302Y0094*
X00302Y0094*
X00303Y00941*
X00303Y00941*
X00303Y00941*
X00303Y00941*
X00303Y00942*
X00303Y00942*
X00303Y00942*
X00303Y00942*
X00304Y00943*
X00304Y00943*
X00304Y00943*
X00842Y00577D02*
D01*
X00842Y00577*
X00841Y00577*
X00841Y00578*
X00841Y00578*
X00841Y00578*
X00841Y00578*
X00841Y00579*
X00841Y00579*
X00841Y00579*
X00841Y00579*
X0084Y0058*
X0084Y0058*
X0084Y0058*
X0084Y0058*
X0084Y0058*
X00839Y0058*
X00839Y0058*
X00839Y00581*
X00839Y00581*
X00838Y00581*
X00838Y00581*
X00838Y00581*
X00837*
X00837Y00581*
X00837Y00581*
X00837Y00581*
X00836Y00581*
X00836Y0058*
X00836Y0058*
X00836Y0058*
X00835Y0058*
X00835Y0058*
X00835Y0058*
X00835Y0058*
X00835Y00579*
X00834Y00579*
X00834Y00579*
X00834Y00579*
X00834Y00578*
X00834Y00578*
X00834Y00578*
X00834Y00578*
X00834Y00577*
X00834Y00577*
X00834Y00577*
X00834Y00577*
X00834Y00576*
X00834Y00576*
X00834Y00576*
X00834Y00575*
X00834Y00575*
X00834Y00575*
X00834Y00575*
X00834Y00575*
X00835Y00574*
X00835Y00574*
X00835Y00574*
X00835Y00574*
X00835Y00574*
X00836Y00573*
X00836Y00573*
X00836Y00573*
X00836Y00573*
X00837Y00573*
X00837Y00573*
X00837Y00573*
X00837Y00573*
X00838*
X00838Y00573*
X00838Y00573*
X00839Y00573*
X00839Y00573*
X00839Y00573*
X00839Y00573*
X0084Y00573*
X0084Y00574*
X0084Y00574*
X0084Y00574*
X0084Y00574*
X00841Y00574*
X00841Y00575*
X00841Y00575*
X00841Y00575*
X00841Y00575*
X00841Y00575*
X00841Y00576*
X00841Y00576*
X00841Y00576*
X00842Y00577*
X00842Y00577*
X00414Y00249D02*
D01*
X00414Y00249*
X00414Y00249*
X00414Y00249*
X00414Y0025*
X00414Y0025*
X00414Y0025*
X00414Y0025*
X00414Y00251*
X00414Y00251*
X00413Y00251*
X00413Y00251*
X00413Y00251*
X00413Y00252*
X00413Y00252*
X00412Y00252*
X00412Y00252*
X00412Y00252*
X00412Y00252*
X00411Y00252*
X00411Y00252*
X00411Y00252*
X0041Y00252*
X0041*
X0041Y00252*
X0041Y00252*
X00409Y00252*
X00409Y00252*
X00409Y00252*
X00409Y00252*
X00408Y00252*
X00408Y00252*
X00408Y00252*
X00408Y00251*
X00407Y00251*
X00407Y00251*
X00407Y00251*
X00407Y00251*
X00407Y0025*
X00407Y0025*
X00407Y0025*
X00407Y0025*
X00406Y00249*
X00406Y00249*
X00406Y00249*
X00406Y00249*
X00406Y00248*
X00406Y00248*
X00406Y00248*
X00407Y00247*
X00407Y00247*
X00407Y00247*
X00407Y00247*
X00407Y00246*
X00407Y00246*
X00407Y00246*
X00407Y00246*
X00408Y00246*
X00408Y00245*
X00408Y00245*
X00408Y00245*
X00409Y00245*
X00409Y00245*
X00409Y00245*
X00409Y00245*
X0041Y00245*
X0041Y00245*
X0041Y00245*
X0041*
X00411Y00245*
X00411Y00245*
X00411Y00245*
X00412Y00245*
X00412Y00245*
X00412Y00245*
X00412Y00245*
X00413Y00245*
X00413Y00245*
X00413Y00246*
X00413Y00246*
X00413Y00246*
X00414Y00246*
X00414Y00246*
X00414Y00247*
X00414Y00247*
X00414Y00247*
X00414Y00247*
X00414Y00248*
X00414Y00248*
X00414Y00248*
X00414Y00249*
X00813Y00344D02*
Y00395D01*
X00888D02*
X00932D01*
X00888Y00344D02*
X00932D01*
Y00395*
X00813Y00344D02*
X00857D01*
X00813Y00395D02*
X00857D01*
X00678Y00524D02*
X00722D01*
X00678Y00473D02*
X00722D01*
X00797D02*
Y00524D01*
X00753Y00473D02*
X00797D01*
X00753Y00524D02*
X00797D01*
X00678Y00473D02*
Y00524D01*
X00219Y00612D02*
Y00655D01*
X00271Y00612D02*
Y00655D01*
X00219Y0073D02*
X00271D01*
Y00687D02*
Y0073D01*
X00219Y00687D02*
Y0073D01*
Y00612D02*
X00271D01*
X01149Y00282D02*
Y00325D01*
X01201Y00282D02*
Y00325D01*
X01149Y004D02*
X01201D01*
Y00357D02*
Y004D01*
X01149Y00357D02*
Y004D01*
Y00282D02*
X01201D01*
X00134Y00612D02*
Y00655D01*
X00186Y00612D02*
Y00655D01*
X00134Y0073D02*
X00186D01*
Y00687D02*
Y0073D01*
X00134Y00687D02*
Y0073D01*
Y00612D02*
X00186D01*
X01038Y00778D02*
X01082D01*
X01038Y00829D02*
X01082D01*
X00964Y00778D02*
Y00829D01*
X01007*
X00964Y00778D02*
X01007D01*
X01082D02*
Y00829D01*
X00963Y00749D02*
X01007D01*
X00963Y00698D02*
X01007D01*
X01082D02*
Y00749D01*
X01038Y00698D02*
X01082D01*
X01038Y00749D02*
X01082D01*
X00963Y00698D02*
Y00749D01*
X00508Y00363D02*
X00552D01*
X00508Y00414D02*
X00552D01*
X00434Y00363D02*
Y00414D01*
X00477*
X00434Y00363D02*
X00477D01*
X00552D02*
Y00414D01*
X00508Y00293D02*
X00552D01*
X00508Y00344D02*
X00552D01*
X00434Y00293D02*
Y00344D01*
X00477*
X00434Y00293D02*
X00477D01*
X00552D02*
Y00344D01*
X00508Y00458D02*
X00552D01*
X00508Y00509D02*
X00552D01*
X00434Y00458D02*
Y00509D01*
X00477*
X00434Y00458D02*
X00477D01*
X00552D02*
Y00509D01*
X00744Y0045D02*
X00796D01*
Y00332D02*
Y00376D01*
X00744Y00332D02*
Y00376D01*
Y00332D02*
X00796D01*
X00744Y00407D02*
Y0045D01*
X00796Y00407D02*
Y0045D01*
X00994Y00215D02*
Y00266D01*
X01068D02*
X01112D01*
X01068Y00215D02*
X01112D01*
Y00266*
X00994Y00215D02*
X01037D01*
X00994Y00266D02*
X01037D01*
X00012Y008D02*
X00112D01*
X00012Y005D02*
X00112D01*
X00012D02*
Y00798D01*
X00112Y005D02*
Y008D01*
X00012Y002D02*
X00112D01*
X00012D02*
Y006D01*
X00112Y002D02*
Y006D01*
X00012D02*
X00112D01*
X00609Y00343D02*
X0064D01*
X00609D02*
Y00374D01*
X00695Y00343D02*
X00727D01*
Y00374*
G54D45*
X00706Y00317D02*
D01*
X00706Y00318*
X00706Y00318*
X00706Y00318*
X00706Y00319*
X00706Y00319*
X00706Y00319*
X00706Y00319*
X00705Y0032*
X00705Y0032*
X00705Y0032*
X00705Y00321*
X00704Y00321*
X00704Y00321*
X00704Y00321*
X00704Y00321*
X00703Y00322*
X00703Y00322*
X00703Y00322*
X00702Y00322*
X00702Y00322*
X00702Y00322*
X00701Y00322*
X00701*
X00701Y00322*
X007Y00322*
X007Y00322*
X007Y00322*
X00699Y00322*
X00699Y00322*
X00699Y00321*
X00698Y00321*
X00698Y00321*
X00698Y00321*
X00698Y00321*
X00697Y0032*
X00697Y0032*
X00697Y0032*
X00697Y00319*
X00697Y00319*
X00697Y00319*
X00696Y00319*
X00696Y00318*
X00696Y00318*
X00696Y00318*
X00696Y00317*
X00696Y00317*
X00696Y00316*
X00696Y00316*
X00696Y00316*
X00697Y00315*
X00697Y00315*
X00697Y00315*
X00697Y00315*
X00697Y00314*
X00697Y00314*
X00698Y00314*
X00698Y00314*
X00698Y00313*
X00698Y00313*
X00699Y00313*
X00699Y00313*
X00699Y00313*
X007Y00313*
X007Y00312*
X007Y00312*
X00701Y00312*
X00701Y00312*
X00701*
X00702Y00312*
X00702Y00312*
X00702Y00312*
X00703Y00313*
X00703Y00313*
X00703Y00313*
X00704Y00313*
X00704Y00313*
X00704Y00313*
X00704Y00314*
X00705Y00314*
X00705Y00314*
X00705Y00314*
X00705Y00315*
X00706Y00315*
X00706Y00315*
X00706Y00315*
X00706Y00316*
X00706Y00316*
X00706Y00316*
X00706Y00317*
X00706Y00317*
G54D46*
X01125Y00343D02*
X01131D01*
Y00445*
X01125D02*
X01131D01*
X0095D02*
X00955D01*
X0095Y00343D02*
Y00445D01*
Y00343D02*
X00955D01*
X00374Y0036D02*
Y00517D01*
X00176Y0036D02*
Y00517D01*
X00339Y00618D02*
Y00675D01*
Y00618D02*
X00405D01*
X00765D02*
X00831D01*
Y00675*
X0081Y00512D02*
Y00546D01*
X00925Y00512D02*
Y00546D01*
X00892D02*
X00925D01*
X0081D02*
X00843D01*
X00396Y00197D02*
X00425D01*
X0083D02*
X00859D01*
G54D47*
X0087Y00234D02*
X00866Y00238D01*
X00859*
X00856Y00234*
Y0022*
X00859Y00217*
X00866*
X0087Y0022*
X00887Y00238D02*
X0088D01*
X00876Y00234*
Y0022*
X0088Y00217*
X00887*
X0089Y0022*
Y00234*
X00887Y00238*
X00897Y00217D02*
Y00238D01*
X00911Y00217*
Y00238*
X00918Y00217D02*
X00925D01*
X00921*
Y00238*
X00918Y00234*
M02*