%FSTAX23Y23*%
%MOIN*%
%SFA1B1*%

%IPPOS*%
%AMD16*
4,1,8,0.011600,-0.029800,0.011600,0.029800,0.008700,0.032700,-0.008700,0.032700,-0.011600,0.029800,-0.011600,-0.029800,-0.008700,-0.032700,0.008700,-0.032700,0.011600,-0.029800,0.0*
1,1,0.005800,0.008700,-0.029800*
1,1,0.005800,0.008700,0.029800*
1,1,0.005800,-0.008700,0.029800*
1,1,0.005800,-0.008700,-0.029800*
%
%AMD20*
4,1,8,-0.012000,0.018500,-0.012000,-0.018500,-0.009000,-0.021500,0.009000,-0.021500,0.012000,-0.018500,0.012000,0.018500,0.009000,0.021500,-0.009000,0.021500,-0.012000,0.018500,0.0*
1,1,0.006000,-0.009000,0.018500*
1,1,0.006000,-0.009000,-0.018500*
1,1,0.006000,0.009000,-0.018500*
1,1,0.006000,0.009000,0.018500*
%
%ADD10R,0.041340X0.023620*%
%ADD11R,0.039370X0.031500*%
%ADD12R,0.003940X0.003940*%
%ADD13O,0.078740X0.039370*%
%ADD14C,0.060000*%
%ADD15R,0.026770X0.059060*%
G04~CAMADD=16~8~0.0~0.0~653.5~232.3~29.0~0.0~15~0.0~0.0~0.0~0.0~0~0.0~0.0~0.0~0.0~0~0.0~0.0~0.0~270.0~233.0~654.0*
%ADD16D16*%
%ADD17R,0.031500X0.039370*%
%ADD18O,0.039370X0.078740*%
%ADD19R,0.078740X0.039370*%
G04~CAMADD=20~8~0.0~0.0~429.1~240.2~30.0~0.0~15~0.0~0.0~0.0~0.0~0~0.0~0.0~0.0~0.0~0~0.0~0.0~0.0~90.0~242.0~429.0*
%ADD20D20*%
%ADD21R,0.023620X0.057090*%
%ADD22R,0.023620X0.041340*%
%ADD23R,0.122050X0.118110*%
%ADD24R,0.031500X0.062990*%
%ADD25R,0.082680X0.118110*%
%ADD26C,0.010000*%
%ADD27C,0.011810*%
%ADD28R,0.020000X0.028500*%
%ADD29R,0.015750X0.033470*%
%ADD30R,0.039370X0.109250*%
%ADD31R,0.088580X0.227360*%
%ADD32R,0.056100X0.124920*%
%ADD33R,0.026610X0.067090*%
%ADD34R,0.040350X0.083660*%
%ADD35R,0.049210X0.055120*%
%ADD36R,0.074800X0.043310*%
%ADD37R,0.041690X0.070870*%
%ADD38R,0.075010X0.260280*%
%ADD39C,0.059060*%
%ADD40R,0.059060X0.059060*%
%ADD41C,0.019690*%
%LNsrt-wren-25-22-v103-1*%
%LPD*%
G36*
X01074Y00443D02*
X01061D01*
Y00482*
X01061Y00485*
X01059Y00488*
X01057Y0049*
X01053Y0049*
X01027*
X01024Y0049*
X01021Y00488*
X01019Y00485*
X01019Y00482*
Y00443*
X01002*
Y00496*
X01002Y00497*
X00924*
Y00504*
X00921*
X0092Y00505*
X00918Y00507*
Y00518*
X00951Y00551*
X01074*
Y00443*
G37*
G36*
X00867Y00619D02*
X00842Y00644D01*
X00892*
X00867Y00619*
G37*
G36*
X00376Y00369D02*
D01*
X00377Y00369*
Y00312*
X00378Y00307*
X00381Y00302*
X00412Y00271*
X00417Y00268*
X00422Y00267*
X00432*
Y002*
X00362*
X00313Y00248*
Y00286*
X0032Y00292*
Y00346*
Y00369*
X00376*
G37*
G36*
X01053Y00435D02*
X01078D01*
Y00315*
X01002*
Y00435*
X01027*
Y00482*
X01053*
Y00435*
G37*
G36*
X0121Y00018D02*
X00013D01*
Y00971*
X00399*
Y00813*
Y00748*
X00319*
Y00726*
X00315Y00721*
X00312Y00714*
X00311Y00707*
X00312Y007*
X00315Y00693*
X00319Y00688*
X00317Y00684*
X00148*
X00143Y00688*
X00143Y00688*
X00062*
X00052Y00687*
X00043Y00683*
X00035Y00677*
X00029Y00669*
X00025Y0066*
X00024Y0065*
X00025Y00641*
X00029Y00632*
X00035Y00624*
X00043Y00618*
X00052Y00614*
X00062Y00613*
Y00488*
X00052Y00487*
X00043Y00483*
X00035Y00477*
X00029Y00469*
X00025Y0046*
X00024Y0045*
X00025Y00441*
X00029Y00432*
X00035Y00424*
X00043Y00418*
X00052Y00414*
X00062Y00413*
Y00388*
X00052Y00387*
X00043Y00383*
X00035Y00377*
X00029Y00369*
X00025Y0036*
X00024Y0035*
X00025Y00341*
X00029Y00332*
X00035Y00324*
X00043Y00318*
X00052Y00314*
X00062Y00313*
Y00288*
X00024*
Y00213*
X00099*
Y00236*
X00112*
X00117Y00238*
X00122Y00241*
X00145Y00264*
X00148Y00268*
X00149Y00274*
Y00287*
X00232*
X00233Y00282*
X00237Y00276*
X00243Y00272*
X0025Y00271*
X00257Y00272*
X00263Y00276*
X00267Y00282*
X00268Y00287*
X00287*
Y00243*
X00288Y00238*
X00291Y00233*
X00338Y00186*
X00336Y00182*
X00306*
Y00173*
X00247*
Y00039*
X00384*
Y00048*
X00404*
Y00173*
X00427*
X00442Y00158*
X00447Y00155*
X00452Y00154*
X00496*
X00501Y00155*
X00505Y00158*
X00514Y00166*
X00517Y00171*
X00518Y00176*
Y00189*
X00528*
X0053*
X00532*
X0054*
Y00154*
X00537Y0015*
X00536Y00143*
X00537Y00136*
X00541Y0013*
X00547Y00127*
X00554Y00125*
X00561Y00127*
X00566Y0013*
X0057Y00136*
X00572Y00143*
X0057Y0015*
X00568Y00154*
Y00189*
X00577*
Y00268*
X00532*
X0053*
X00529*
X00528*
X00526*
X00481*
X00479*
X00468*
X00467Y0027*
X00464Y00275*
X0045Y00289*
X00445Y00292*
X0044Y00293*
X00442Y00295*
X00548*
Y00305*
X00575*
X00576Y00303*
X00577Y00299*
X00581Y00293*
X00587Y00289*
X00592Y00288*
X00608Y00272*
X00612Y00269*
X00618Y00268*
X00628*
Y00189*
X00628*
X0063Y00185*
X00629Y00185*
X00626Y00179*
X00624Y00172*
X00626Y00165*
X00629Y00159*
X00635Y00155*
X00642Y00154*
X00649Y00155*
X00655Y00159*
X00659Y00165*
X0066Y00171*
X0066Y00171*
X00663Y00176*
X00664Y00181*
Y00189*
X00676*
Y00268*
X00685*
X00686Y00268*
X00727*
Y00189*
X00737*
Y00184*
X00737Y00184*
X00733Y00178*
X00731Y00171*
X00733Y00164*
X00737Y00158*
X00743Y00154*
X0075Y00153*
X00756Y00154*
X00762Y00158*
X00766Y00164*
X00768Y00171*
X00766Y00178*
X00764Y00182*
Y00189*
X00774*
Y00268*
X00921*
X00927Y00262*
X00928Y00257*
X00932Y00251*
X00938Y00247*
X00945Y00246*
X00952Y00247*
X00958Y00251*
X00962Y00257*
X00963Y00264*
X00962Y00271*
X00958Y00277*
X00952Y0028*
X00947Y00281*
X00937Y00292*
X00932Y00295*
X00927Y00296*
X00687*
Y00314*
X00824*
X00829Y00315*
X00833Y00318*
X00854Y00339*
X00857Y00344*
X00858Y00346*
X00924*
X00928Y00342*
Y00333*
X00929Y00328*
X00932Y00323*
X00939Y00316*
X00944Y00313*
X00949Y00312*
X0096*
Y00291*
X00967*
Y00285*
X00968Y00279*
X00971Y00275*
X00998Y00248*
Y0022*
X00862*
X00856Y00219*
X00852Y00216*
X00841Y00205*
X00836Y00204*
X0083Y002*
X00826Y00194*
X00825Y00187*
X00826Y00181*
X0083Y00175*
X00836Y00171*
X00843Y00169*
X00847Y0017*
X00851Y00167*
Y00048*
X00872*
Y00039*
X01009*
Y00173*
X00949*
Y00182*
X00864*
X00863Y00182*
X00862Y00186*
X00868Y00192*
X0101*
X01016Y00193*
X0102Y00196*
X01035Y00211*
X01038Y00216*
X01038Y00217*
X01053*
Y00264*
X01021*
X01005Y00281*
Y00283*
X01006Y00284*
X01008Y00286*
X0101Y00288*
X0101Y00291*
Y00307*
X01078*
Y00291*
X01146*
X01151Y00286*
X01161*
Y00275*
X01158Y00271*
X01157Y00264*
X01158Y00257*
X01162Y00251*
X01168Y00247*
X01175Y00246*
X01182Y00247*
X01188Y00251*
X01192Y00257*
X01193Y00264*
X01192Y00271*
X01189Y00275*
Y00286*
X01199*
Y00341*
X01151*
X01149Y00343*
Y00398*
X0114Y00408*
X01125*
Y00511*
X01125Y00512*
X01131Y00513*
X01135Y00516*
X01139Y0052*
X01142Y00524*
X01143Y0053*
Y00586*
X01158*
Y00625*
X01101*
Y00586*
X01115*
Y00556*
X01111Y00554*
X0109Y00575*
X01085Y00578*
X0108Y00579*
X00945*
X00939Y00578*
X00935Y00575*
X00894Y00534*
X00891Y00529*
X00889Y00524*
Y00507*
X00887Y00505*
X00886Y00504*
X00849*
X00848Y00505*
X00845Y00507*
X0084Y00508*
X00822*
X00818Y00507*
X00815Y00505*
X00812Y00501*
X00811Y00497*
Y0046*
X00812Y00456*
X00815Y00452*
X00818Y0045*
X00817Y00449*
Y00393*
Y00346*
X00818Y00345*
X00815Y0034*
X00687*
Y0036*
X00648*
Y00296*
X00624*
X00612Y00308*
X00611Y00313*
X00607Y00318*
X00601Y00322*
X00596Y00323*
X00591Y00329*
X00586Y00332*
X00581Y00333*
X00548*
Y00342*
Y00365*
Y00387*
X00632Y00472*
X00637Y00471*
X00637Y0047*
X00641Y00464*
X00647Y0046*
X00652Y00459*
Y00445*
X00685*
Y00445*
Y0038*
X00725*
X00728Y00384*
X00762*
X00762Y00383*
X0077Y00391*
X00794*
Y00393*
Y00446*
X00793Y00447*
Y00475*
Y00522*
X00796Y00526*
X00808*
X00813Y00522*
X0082Y00521*
X00827Y00522*
X00833Y00526*
X00837Y00532*
X00838Y00539*
X00837Y00546*
X00833Y00552*
X00827Y00555*
X0082Y00557*
X00813Y00555*
X00808Y00552*
X00775*
X0077Y00551*
X00768Y0055*
X00766Y00548*
X00761Y00543*
X00717*
X00714Y00546*
X0072Y00586*
X00715Y00664*
X00719Y00668*
X00751*
X00752Y00642*
Y00631*
X00754Y00629*
Y00597*
X00836*
X00848Y00585*
X00847Y00581*
Y00544*
X00848Y0054*
X00851Y00536*
X00854Y00534*
X00858Y00533*
X00877*
X00881Y00534*
X00884Y00536*
X00887Y0054*
X00888Y00544*
Y00581*
X00887Y00585*
X00884Y00589*
X00882Y00591*
Y00621*
X0089Y0063*
X01015*
X0102Y00631*
X01025Y00634*
X0106Y00669*
X0109Y00699*
Y00827*
X01023*
Y00827*
X00967*
Y00827*
X00959*
Y00868*
X00961Y0087*
X00965Y00875*
X00966Y00882*
X00965Y00889*
X00961Y00895*
X00959Y00897*
Y00971*
X0121*
Y00018*
G37*
G36*
X00998Y00741D02*
X00973Y00766D01*
X00998Y00791*
Y00741*
G37*
%LNsrt-wren-25-22-v103-2*%
%LPC*%
G36*
X00097Y00948D02*
X00083Y00946D01*
X00071Y00941*
X0006Y00932*
X00051Y00922*
X00046Y00909*
X00044Y00895*
X00046Y00882*
X00051Y00869*
X0006Y00858*
X00071Y0085*
X00083Y00844*
X00097Y00842*
X00111Y00844*
X00123Y0085*
X00134Y00858*
X00143Y00869*
X00148Y00882*
X0015Y00895*
X00148Y00909*
X00143Y00922*
X00134Y00932*
X00123Y00941*
X00111Y00946*
X00097Y00948*
G37*
G36*
X01121Y00159D02*
X01107Y00157D01*
X01094Y00151*
X01083Y00143*
X01075Y00132*
X0107Y00119*
X01068Y00106*
X0107Y00092*
X01075Y00079*
X01083Y00069*
X01094Y0006*
X01107Y00055*
X01121Y00053*
X01134Y00055*
X01147Y0006*
X01158Y00069*
X01166Y00079*
X01171Y00092*
X01173Y00106*
X01171Y00119*
X01166Y00132*
X01158Y00143*
X01147Y00151*
X01134Y00157*
X01121Y00159*
G37*
G36*
X00096D02*
X00082Y00157D01*
X0007Y00151*
X00059Y00143*
X0005Y00132*
X00045Y00119*
X00043Y00106*
X00045Y00092*
X0005Y00079*
X00059Y00069*
X0007Y0006*
X00082Y00055*
X00096Y00053*
X0011Y00055*
X00122Y0006*
X00133Y00069*
X00142Y00079*
X00147Y00092*
X00149Y00106*
X00147Y00119*
X00142Y00132*
X00133Y00143*
X00122Y00151*
X0011Y00157*
X00096Y00159*
G37*
G36*
X00217Y00221D02*
X00178D01*
Y00207*
X00159*
X00154Y0021*
X00147Y00211*
X0014Y0021*
X00134Y00206*
X0013Y002*
X00129Y00193*
X0013Y00186*
X00134Y00181*
X0014Y00177*
X00147Y00175*
X00154Y00177*
X00157Y00178*
X00178*
Y00164*
X00186*
X00187Y00159*
X00186Y00158*
X00182Y00152*
X0018Y00145*
X00182Y00138*
X00184Y00135*
Y00111*
X00178*
Y00054*
X00217*
Y00111*
X00212*
Y00134*
X00215Y00138*
X00216Y00145*
X00215Y00152*
X00211Y00158*
X00209Y00159*
X00211Y00164*
X00217*
Y00221*
G37*
G36*
X00062Y00788D02*
X00052Y00787D01*
X00043Y00783*
X00035Y00777*
X00029Y00769*
X00025Y0076*
X00024Y0075*
X00025Y00741*
X00029Y00732*
X00035Y00724*
X00043Y00718*
X00052Y00714*
X00062Y00713*
X00071Y00714*
X0008Y00718*
X00088Y00724*
X00094Y00732*
X00098Y00741*
X00099Y0075*
X00098Y0076*
X00094Y00769*
X00088Y00777*
X0008Y00783*
X00071Y00787*
X00062Y00788*
G37*
G36*
X0064Y00449D02*
X00625D01*
Y00434*
X0064Y00449*
G37*
G36*
X0112Y00946D02*
X01106Y00945D01*
X01094Y00939*
X01083Y00931*
X01074Y0092*
X01069Y00907*
X01067Y00894*
X01069Y0088*
X01074Y00867*
X01083Y00856*
X01094Y00848*
X01106Y00843*
X0112Y00841*
X01134Y00843*
X01146Y00848*
X01157Y00856*
X01166Y00867*
X01171Y0088*
X01173Y00894*
X01171Y00907*
X01166Y0092*
X01157Y00931*
X01146Y00939*
X01134Y00945*
X0112Y00946*
G37*
%LNsrt-wren-25-22-v103-3*%
%LPD*%
G54D10*
X01019Y00605D03*
X01129D03*
G54D11*
X00845Y0037D03*
X009D03*
X00765Y00499D03*
X0071D03*
X00995Y00804D03*
X0105D03*
Y00724D03*
X00995D03*
X00465Y00389D03*
X0052D03*
X00465Y00319D03*
X0052D03*
X00465Y00484D03*
X0052D03*
X01025Y00241D03*
X0108D03*
G54D12*
X00811Y00707D03*
Y00943D03*
Y00884D03*
Y00825D03*
Y00766D03*
X00733Y00638D03*
X00674D03*
X00615D03*
X00556D03*
X00496D03*
X00437D03*
X00359Y00707D03*
Y00766D03*
Y00825D03*
Y00884D03*
Y00943D03*
G54D13*
X00811Y00707D03*
Y00766D03*
Y00825D03*
Y00884D03*
Y00943D03*
X00359Y00707D03*
Y00766D03*
Y00825D03*
Y00884D03*
G54D14*
X0104Y00382D03*
G54D15*
X01099Y00459D03*
X0104D03*
X00981D03*
Y00329D03*
X01099D03*
G54D16*
X0035Y00542D03*
X003D03*
X0025D03*
X002D03*
Y00335D03*
X0025D03*
X003D03*
X0035D03*
G54D17*
X00245Y00699D03*
Y00644D03*
X01175Y00369D03*
Y00314D03*
X0016Y00699D03*
Y00644D03*
X0077Y00419D03*
Y00364D03*
G54D18*
X00733Y00638D03*
X00674D03*
X00615D03*
X00556D03*
X00496D03*
X00437D03*
G54D19*
X00359Y00943D03*
G54D20*
X00867Y00563D03*
X00904Y00478D03*
X00831D03*
G54D21*
X00668Y00324D03*
X0063Y00417D03*
X00705D03*
G54D22*
X00198Y00192D03*
Y00082D03*
G54D23*
X0094Y00106D03*
X00315D03*
G54D24*
X00554Y00229D03*
X00603D03*
X00504D03*
X00455D03*
X00652D03*
X00701D03*
X0075D03*
X008D03*
G54D25*
X00355Y00115D03*
X009D03*
G54D26*
X00496Y00167D02*
X00504Y00176D01*
X00452Y00167D02*
X00496D01*
X00504Y00176D02*
Y00228D01*
X00432Y00187D02*
X00452Y00167D01*
X00356Y00187D02*
X00432D01*
X003Y00243D02*
X00356Y00187D01*
X00671Y0053D02*
X00766D01*
X00775Y00539*
X0082*
X0073Y00559D02*
X00733Y00561D01*
X00531Y00389D02*
X00671Y0053D01*
X008Y00364D02*
Y00378D01*
X00674Y00557D02*
Y00638D01*
X0054Y00424D02*
X00674Y00557D01*
X00415Y00424D02*
X0054D01*
X00416Y00453D02*
X00544D01*
X00615Y00524*
Y00637*
X0052Y00389D02*
X00531D01*
X00556Y00578D02*
Y00638D01*
X00421Y00549D02*
X00591D01*
X00359Y00611D02*
X00421Y00549D01*
X00359Y00611D02*
Y00707D01*
X00415Y00496D02*
X00428Y00484D01*
X00465*
X00615Y00638D02*
X00615Y00637D01*
X00638Y0042D02*
X00642Y00424D01*
X00665*
X01175Y00384D02*
Y00439D01*
X0042Y00389D02*
X00465D01*
X00425Y00319D02*
X00465D01*
X00372Y00542D02*
X0039Y00524D01*
X0035Y00542D02*
X00372D01*
X00415Y00454D02*
X00416Y00453D01*
X0025Y00289D02*
Y00335D01*
X00245Y00699D02*
Y00744D01*
X0016Y00699D02*
Y00744D01*
X0073Y00559D02*
Y00635D01*
X00356Y00764D02*
X00359Y00766D01*
X0028Y00764D02*
X00356D01*
X00357Y00824D02*
X00359Y00825D01*
X0028Y00824D02*
X00357D01*
X00358Y00884D02*
X00359Y00884D01*
X0028Y00884D02*
X00358D01*
X00993Y00766D02*
X00995Y00764D01*
Y00804*
Y00724D02*
Y00764D01*
X00811Y00766D02*
X00993D01*
X002Y00335D02*
X00202Y00337D01*
X0052Y00484D02*
Y00524D01*
X00675Y00327D02*
X00824D01*
X00845Y00349*
Y0037*
X00831Y00412D02*
Y00478D01*
Y00412D02*
X00845Y00399D01*
Y0037D02*
Y00399D01*
X00995Y00524D02*
X0104D01*
X00245Y00644D02*
X00285D01*
X003Y00629*
Y00542D02*
Y00629D01*
X00165Y00539D02*
Y00544D01*
Y00539D02*
X00197D01*
X00165Y00334D02*
X00198D01*
X0077Y00364D02*
X008D01*
X0035Y00269D02*
Y00335D01*
X0095Y00605D02*
X00951Y00604D01*
X00669Y00494D02*
X007D01*
X00654Y00479D02*
X00669Y00494D01*
X00654Y00477D02*
Y00479D01*
X00811Y00825D02*
X00812Y00824D01*
X00947Y00884D02*
X00948Y00882D01*
X00811Y00884D02*
X00947D01*
X00811Y00943D02*
X00901D01*
X01101Y00804D02*
X01102Y00803D01*
X0105Y00804D02*
X01101D01*
X00443Y00597D02*
X00444Y00596D01*
X00443Y00597D02*
Y00632D01*
X0044Y0028D02*
X00455Y00265D01*
Y00228D02*
Y00265D01*
X00422Y0028D02*
X0044D01*
X0039Y00312D02*
Y00524D01*
Y00312D02*
X00422Y0028D01*
X003Y00243D02*
Y00335D01*
X00642Y00172D02*
X00651Y00181D01*
Y00227*
X00652Y00228*
X0075Y00172D02*
Y00228D01*
X0075Y00171D02*
X0075Y00172D01*
X00812Y00824D02*
X00875D01*
X00925*
X00601Y0018D02*
Y00226D01*
X00437Y00638D02*
X00443Y00632D01*
X00701Y0018D02*
Y00228D01*
X00797Y00181D02*
Y00225D01*
X00441Y00593D02*
X00444Y00596D01*
X00441Y00579D02*
Y00593D01*
G54D27*
X01025Y00221D02*
Y00241D01*
X00981Y00285D02*
X01025Y00241D01*
X00981Y00285D02*
Y00329D01*
X00581Y00319D02*
X00618Y00282D01*
X00685*
X00685Y00282D02*
X00927D01*
X00685Y00282D02*
X00685Y00282D01*
X00927D02*
X00945Y00264D01*
X01116Y00526D02*
X01119D01*
X0025Y00542D02*
Y00589D01*
X0023Y00609D02*
X0025Y00589D01*
X0016Y00609D02*
X0023D01*
X00945Y00565D02*
X0108D01*
X00904Y00524D02*
X00945Y00565D01*
X00904Y00478D02*
Y00524D01*
X00496Y00578D02*
Y00638D01*
X00496Y00638*
X0105Y00679D02*
Y00724D01*
X00904Y00373D02*
Y00478D01*
X009Y0037D02*
X00904Y00373D01*
X01175Y00264D02*
Y00304D01*
X01099Y00314D02*
X01175D01*
X01099Y00314D02*
X01099Y00314D01*
X00765Y00464D02*
Y00499D01*
Y00464D02*
X0077Y00459D01*
Y00429D02*
Y00459D01*
X01015Y00644D02*
X0105Y00679D01*
X00712Y0042D02*
X00769D01*
X00205Y00644D02*
X00245D01*
X00785D02*
X00867D01*
X01015*
X00867Y00563D02*
Y00644D01*
X0016Y00609D02*
Y00644D01*
X0092Y0037D02*
X00942Y00347D01*
Y00333D02*
X00949Y00326D01*
X00978*
X00942Y00333D02*
Y00347D01*
X00978Y00326D02*
X00981Y00329D01*
X009Y0037D02*
X0092D01*
X01087Y00259D02*
X01088Y0026D01*
X01074Y00285D02*
X01081D01*
X01088Y00279*
Y0026D02*
Y00279D01*
X0104Y00319D02*
X01074Y00285D01*
X0104Y00319D02*
Y00382D01*
X00142Y00591D02*
X0016Y00609D01*
X0108Y00565D02*
X01119Y00526D01*
X01099Y00509D02*
X01116Y00526D01*
X01119D02*
X01125D01*
X01129Y0053*
Y00605*
X0052Y00319D02*
X00581D01*
X00554Y00143D02*
Y00228D01*
X01099Y00444D02*
Y00459D01*
Y00509*
X0104Y00382D02*
Y00394D01*
X00198Y00082D02*
Y00145D01*
X00148Y00192D02*
X00198D01*
X00097Y003D02*
X00098D01*
X00135Y00274D02*
Y00578D01*
X00141Y00585*
X00062Y0065D02*
X00115Y00597D01*
X00062Y0025D02*
X00112D01*
X00098Y003D02*
X00115Y00316D01*
Y00597*
X00112Y0025D02*
X00135Y00274D01*
X00862Y00206D02*
X0101D01*
X01025Y00221*
X00843Y00187D02*
X00862Y00206D01*
G54D28*
X00632Y00438D03*
G54D29*
X01102Y00528D03*
G54D30*
X00441Y00623D03*
G54D31*
X00353Y00857D03*
G54D32*
X00348Y00314D03*
G54D33*
X0104Y00501D03*
G54D34*
X00733Y00588D03*
G54D35*
X01174Y00442D03*
G54D36*
X00775Y00362D03*
G54D37*
X00405Y00642D03*
G54D38*
X0104Y00416D03*
G54D39*
X00062Y0075D03*
Y0065D03*
Y0055D03*
Y0045D03*
Y0035D03*
G54D40*
X00062Y0025D03*
G54D41*
X00496Y00578D03*
X00556D03*
X00415Y00496D03*
X00144Y00592D03*
X00593Y00547D03*
X00945Y00264D03*
X01175Y00439D03*
X00415Y00389D03*
Y00319D03*
Y00454D03*
Y00424D03*
X0025Y00289D03*
X00205Y00644D03*
X00245Y00744D03*
X0028Y00764D03*
Y00824D03*
Y00884D03*
X0016Y00744D03*
X0052Y00524D03*
X0073Y00559D03*
X00665Y00424D03*
X0082Y00539D03*
X01175Y00264D03*
X00995Y00524D03*
X008Y00364D03*
X00785Y00644D03*
X00165Y00334D03*
Y00539D03*
X0035Y00269D03*
X0095Y00605D03*
X00654Y00477D03*
X00925Y00824D03*
X00948Y00882D03*
X00875Y00824D03*
X00843Y00187D03*
X01102Y00803D03*
X0104Y00393D03*
X00594Y00306D03*
X00642Y00172D03*
X0075Y00171D03*
X00554Y00143D03*
X00601Y0018D03*
X00701D03*
X00797Y00181D03*
X00198Y00145D03*
X00147Y00193D03*
X00097Y003D03*
X00441Y00579D03*
X00901Y00944D03*
M02*