%FSTAX23Y23*%
%MOIN*%
%SFA1B1*%

%IPPOS*%
%ADD63C,0.067060*%
%ADD64R,0.067060X0.067060*%
%ADD65C,0.027690*%
%LNsrt-wren-25-22-v103-1*%
%LPD*%
G54D63*
X00062Y0075D03*
Y0065D03*
Y0055D03*
Y0045D03*
Y0035D03*
G54D64*
X00062Y0025D03*
G54D65*
X00496Y00578D03*
X00556D03*
X00415Y00496D03*
X00144Y00592D03*
X00593Y00547D03*
X00945Y00264D03*
X01175Y00439D03*
X00415Y00389D03*
Y00319D03*
Y00454D03*
Y00424D03*
X0025Y00289D03*
X00205Y00644D03*
X00245Y00744D03*
X0028Y00764D03*
Y00824D03*
Y00884D03*
X0016Y00744D03*
X0052Y00524D03*
X0073Y00559D03*
X00665Y00424D03*
X0082Y00539D03*
X01175Y00264D03*
X00995Y00524D03*
X008Y00364D03*
X00785Y00644D03*
X00165Y00334D03*
Y00539D03*
X0035Y00269D03*
X0095Y00605D03*
X00654Y00477D03*
X00925Y00824D03*
X00948Y00882D03*
X00875Y00824D03*
X00843Y00187D03*
X01102Y00803D03*
X0104Y00393D03*
X00594Y00306D03*
X00642Y00172D03*
X0075Y00171D03*
X00554Y00143D03*
X00601Y0018D03*
X00701D03*
X00797Y00181D03*
X00198Y00145D03*
X00147Y00193D03*
X00097Y003D03*
X00441Y00579D03*
X00901Y00944D03*
M02*