%FSTAX23Y23*%
%MOIN*%
%SFA1B1*%

%IPPOS*%
%ADD10C,0.007870*%
%ADD11C,0.010000*%
%ADD12C,0.009840*%
%ADD13C,0.005000*%
%ADD14C,0.003940*%
%LNsrt-wren-25-22-v103-1*%
%LPD*%
G36*
X00222Y00129D02*
Y00113D01*
X00173*
Y00129*
X00222*
G37*
G36*
X01082Y0063D02*
X01099D01*
Y00581*
X01082*
Y0063*
G37*
G54D10*
X01103Y00504D02*
X01095D01*
X01103*
X00377Y00607D02*
X00369D01*
X00377*
X00304Y00943D02*
X00296D01*
X00304*
X00842Y00577D02*
X00834D01*
X00842*
X00414Y00249D02*
X00406D01*
X00414*
X00813Y00344D02*
Y00395D01*
X00888D02*
X00932D01*
X00888Y00344D02*
X00932D01*
Y00395*
X00813Y00344D02*
X00857D01*
X00813Y00395D02*
X00857D01*
X00678Y00524D02*
X00722D01*
X00678Y00473D02*
X00722D01*
X00797D02*
Y00524D01*
X00753Y00473D02*
X00797D01*
X00753Y00524D02*
X00797D01*
X00678Y00473D02*
Y00524D01*
X00219Y00612D02*
Y00655D01*
X00271Y00612D02*
Y00655D01*
X00219Y0073D02*
X00271D01*
Y00687D02*
Y0073D01*
X00219Y00687D02*
Y0073D01*
Y00612D02*
X00271D01*
X01149Y00282D02*
Y00325D01*
X01201Y00282D02*
Y00325D01*
X01149Y004D02*
X01201D01*
Y00357D02*
Y004D01*
X01149Y00357D02*
Y004D01*
Y00282D02*
X01201D01*
X00134Y00612D02*
Y00655D01*
X00186Y00612D02*
Y00655D01*
X00134Y0073D02*
X00186D01*
Y00687D02*
Y0073D01*
X00134Y00687D02*
Y0073D01*
Y00612D02*
X00186D01*
X01038Y00778D02*
X01082D01*
X01038Y00829D02*
X01082D01*
X00964Y00778D02*
Y00829D01*
X01007*
X00964Y00778D02*
X01007D01*
X01082D02*
Y00829D01*
X00963Y00749D02*
X01007D01*
X00963Y00698D02*
X01007D01*
X01082D02*
Y00749D01*
X01038Y00698D02*
X01082D01*
X01038Y00749D02*
X01082D01*
X00963Y00698D02*
Y00749D01*
X00508Y00363D02*
X00552D01*
X00508Y00414D02*
X00552D01*
X00434Y00363D02*
Y00414D01*
X00477*
X00434Y00363D02*
X00477D01*
X00552D02*
Y00414D01*
X00508Y00293D02*
X00552D01*
X00508Y00344D02*
X00552D01*
X00434Y00293D02*
Y00344D01*
X00477*
X00434Y00293D02*
X00477D01*
X00552D02*
Y00344D01*
X00508Y00458D02*
X00552D01*
X00508Y00509D02*
X00552D01*
X00434Y00458D02*
Y00509D01*
X00477*
X00434Y00458D02*
X00477D01*
X00552D02*
Y00509D01*
X00744Y0045D02*
X00796D01*
Y00332D02*
Y00376D01*
X00744Y00332D02*
Y00376D01*
Y00332D02*
X00796D01*
X00744Y00407D02*
Y0045D01*
X00796Y00407D02*
Y0045D01*
X00994Y00215D02*
Y00266D01*
X01068D02*
X01112D01*
X01068Y00215D02*
X01112D01*
Y00266*
X00994Y00215D02*
X01037D01*
X00994Y00266D02*
X01037D01*
X00012Y008D02*
X00112D01*
X00012Y005D02*
X00112D01*
X00012D02*
Y00798D01*
X00112Y005D02*
Y008D01*
X00012Y002D02*
X00112D01*
X00012D02*
Y006D01*
X00112Y002D02*
Y006D01*
X00012D02*
X00112D01*
X00609Y00343D02*
X0064D01*
X00609D02*
Y00374D01*
X00695Y00343D02*
X00727D01*
Y00374*
G54D11*
X01179Y00894D02*
X01178Y00904D01*
X01176Y00913*
X01172Y00923*
X01166Y00931*
X01159Y00938*
X01151Y00944*
X01142Y00949*
X01132Y00951*
X01123Y00953*
X01113Y00952*
X01103Y0095*
X01093Y00946*
X01085Y00941*
X01077Y00935*
X01071Y00927*
X01066Y00918*
X01063Y00909*
X01061Y00899*
Y00889*
X01063Y00879*
X01066Y00869*
X01071Y00861*
X01077Y00853*
X01085Y00846*
X01093Y00841*
X01103Y00837*
X01113Y00835*
X01123Y00835*
X01132Y00836*
X01142Y00839*
X01151Y00843*
X01159Y00849*
X01166Y00857*
X01172Y00865*
X01176Y00874*
X01178Y00884*
X01179Y00894*
X0118Y00106D02*
X01179Y00116D01*
X01176Y00125*
X01172Y00135*
X01167Y00143*
X0116Y0015*
X01152Y00156*
X01143Y00161*
X01133Y00164*
X01123Y00165*
X01113Y00164*
X01103Y00162*
X01094Y00159*
X01085Y00153*
X01078Y00147*
X01072Y00139*
X01067Y0013*
X01063Y00121*
X01062Y00111*
Y00101*
X01063Y00091*
X01067Y00082*
X01072Y00073*
X01078Y00065*
X01085Y00058*
X01094Y00053*
X01103Y00049*
X01113Y00047*
X01123Y00047*
X01133Y00048*
X01143Y00051*
X01152Y00056*
X0116Y00061*
X01167Y00069*
X01172Y00077*
X01176Y00086*
X01179Y00096*
X0118Y00106*
X00155D02*
X00154Y00116D01*
X00152Y00125*
X00148Y00135*
X00142Y00143*
X00135Y0015*
X00127Y00156*
X00118Y00161*
X00108Y00164*
X00098Y00165*
X00088Y00164*
X00079Y00162*
X00069Y00159*
X00061Y00153*
X00053Y00147*
X00047Y00139*
X00042Y0013*
X00039Y00121*
X00037Y00111*
Y00101*
X00039Y00091*
X00042Y00082*
X00047Y00073*
X00053Y00065*
X00061Y00058*
X00069Y00053*
X00079Y00049*
X00088Y00047*
X00098Y00047*
X00108Y00048*
X00118Y00051*
X00127Y00056*
X00135Y00061*
X00142Y00069*
X00148Y00077*
X00152Y00086*
X00154Y00096*
X00155Y00106*
X00156Y00895D02*
X00155Y00905D01*
X00153Y00915*
X00149Y00924*
X00143Y00932*
X00136Y0094*
X00128Y00945*
X00119Y0095*
X00109Y00953*
X00099Y00954*
X00089Y00954*
X0008Y00952*
X0007Y00948*
X00062Y00943*
X00054Y00936*
X00048Y00928*
X00043Y0092*
X0004Y0091*
X00038Y009*
Y0089*
X0004Y0088*
X00043Y00871*
X00048Y00862*
X00054Y00854*
X00062Y00848*
X0007Y00842*
X0008Y00839*
X00089Y00837*
X00099Y00836*
X00109Y00837*
X00119Y0084*
X00128Y00845*
X00136Y00851*
X00143Y00858*
X00149Y00866*
X00153Y00876*
X00155Y00885*
X00156Y00895*
X00398Y00194D02*
X00432D01*
X004Y00021D02*
Y00041D01*
X00398Y00186D02*
Y00194D01*
X00823D02*
X00858D01*
Y00186D02*
Y00194D01*
X004Y00021D02*
X00855D01*
Y00044*
X01013Y00546D02*
Y00513D01*
X0102Y00506*
X01033*
X0104Y00513*
Y00546*
X01079Y00506D02*
X01053D01*
X01079Y00533*
Y00539*
X01072Y00546*
X01059*
X01053Y00539*
X0013Y00413D02*
X00163D01*
X00169Y0042*
Y00433*
X00163Y0044*
X0013*
X00137Y00453D02*
X0013Y00459D01*
Y00472*
X00137Y00479*
X00143*
X0015Y00472*
Y00466*
Y00472*
X00156Y00479*
X00163*
X00169Y00472*
Y00459*
X00163Y00453*
X01162Y00445D02*
X01156Y00438D01*
Y00425*
X01162Y00419*
X01188*
X01195Y00425*
Y00438*
X01188Y00445*
X01195Y00484D02*
Y00458D01*
X01169Y00484*
X01162*
X01156Y00478*
Y00465*
X01162Y00458*
X0015Y00793D02*
X00143Y008D01*
X0013*
X00124Y00793*
Y00767*
X0013Y0076*
X00143*
X0015Y00767*
X00163Y00793D02*
X00169Y008D01*
X00183*
X00189Y00793*
Y00787*
X00183Y0078*
X00176*
X00183*
X00189Y00773*
Y00767*
X00183Y0076*
X00169*
X00163Y00767*
X00228Y00793D02*
X00222Y008D01*
X00209*
X00202Y00793*
Y00767*
X00209Y0076*
X00222*
X00228Y00767*
X00261Y0076D02*
Y008D01*
X00242Y0078*
X00268*
X01115Y00704D02*
Y00743D01*
X01135*
X01141Y00737*
Y00723*
X01135Y00717*
X01115*
X01128D02*
X01141Y00704D01*
X01154Y00743D02*
X01181D01*
Y00737*
X01154Y0071*
Y00704*
X01115Y00779D02*
Y00818D01*
X01135*
X01141Y00812*
Y00798*
X01135Y00792*
X01115*
X01128D02*
X01141Y00779D01*
X01154Y00812D02*
X01161Y00818D01*
X01174*
X01181Y00812*
Y00805*
X01174Y00798*
X01181Y00792*
Y00785*
X01174Y00779*
X01161*
X01154Y00785*
Y00792*
X01161Y00798*
X01154Y00805*
Y00812*
X01161Y00798D02*
X01174D01*
X00717Y00532D02*
Y00572D01*
X00736*
X00743Y00565*
Y00552*
X00736Y00546*
X00717*
X0073D02*
X00743Y00532D01*
X00756D02*
X00769D01*
X00763*
Y00572*
X00756Y00565*
X00562Y00291D02*
Y0033D01*
X00581*
X00588Y00324*
Y00311*
X00581Y00304*
X00562*
X00575D02*
X00588Y00291D01*
X00621D02*
Y0033D01*
X00601Y00311*
X00627*
X006Y00349D02*
X00561D01*
Y00368*
X00567Y00375*
X0058*
X00587Y00368*
Y00349*
Y00362D02*
X006Y00375D01*
X00561Y00414D02*
X00567Y00401D01*
X0058Y00388*
X00593*
X006Y00395*
Y00408*
X00593Y00414*
X00587*
X0058Y00408*
Y00388*
X00605Y00449D02*
X00566D01*
Y00468*
X00572Y00475*
X00585*
X00592Y00468*
Y00449*
Y00462D02*
X00605Y00475D01*
X00566Y00514D02*
Y00488D01*
X00585*
X00579Y00501*
Y00508*
X00585Y00514*
X00598*
X00605Y00508*
Y00495*
X00598Y00488*
X00215Y00953D02*
Y0092D01*
X00222Y00914*
X00235*
X00241Y0092*
Y00953*
X00254Y00914D02*
X00268D01*
X00261*
Y00953*
X00254Y00947*
X00875Y00289D02*
Y00328D01*
X00894*
X00901Y00322*
Y00308*
X00894Y00302*
X00875*
X00888D02*
X00901Y00289D01*
X0094D02*
X00914D01*
X0094Y00315*
Y00322*
X00934Y00328*
X0092*
X00914Y00322*
X00917Y00562D02*
Y00588D01*
X00911Y00594*
X00897*
X00891Y00588*
Y00562*
X00897Y00555*
X00911*
X00904Y00568D02*
X00917Y00555D01*
X00911D02*
X00917Y00562D01*
X00956Y00555D02*
X0093D01*
X00956Y00581*
Y00588*
X0095Y00594*
X00937*
X0093Y00588*
X00806Y00409D02*
Y00448D01*
X00825*
X00832Y00442*
Y00429*
X00825Y00422*
X00806*
X00819D02*
X00832Y00409D01*
X00845Y00442D02*
X00852Y00448D01*
X00865*
X00871Y00442*
Y00435*
X00865Y00429*
X00858*
X00865*
X00871Y00422*
Y00416*
X00865Y00409*
X00852*
X00845Y00416*
X01044Y00195D02*
X01038Y00201D01*
X01025*
X01018Y00195*
Y00168*
X01025Y00162*
X01038*
X01044Y00168*
X01058Y00162D02*
X01071D01*
X01064*
Y00201*
X01058Y00195*
X0098Y00683D02*
Y00643D01*
X00999*
X01006Y0065*
Y00676*
X00999Y00683*
X0098*
X01045Y00643D02*
X01019D01*
X01045Y00669*
Y00676*
X01039Y00683*
X01026*
X01019Y00676*
X00747Y00286D02*
Y00312D01*
X00741Y00319*
X00728*
X00721Y00312*
Y00286*
X00728Y00279*
X00741*
X00734Y00292D02*
X00747Y00279D01*
X00741D02*
X00747Y00286D01*
X00761Y00279D02*
X00774D01*
X00767*
Y00319*
X00761Y00312*
X00237Y00238D02*
Y00198D01*
X00256*
X00263Y00205*
Y00231*
X00256Y00238*
X00237*
X00276Y00198D02*
X00289D01*
X00283*
Y00238*
X00276Y00231*
G54D12*
X00706Y00317D02*
X00699Y00321D01*
Y00313*
X00706Y00317*
G54D13*
X01125Y00343D02*
X01131D01*
Y00445*
X01125D02*
X01131D01*
X0095D02*
X00955D01*
X0095Y00343D02*
Y00445D01*
Y00343D02*
X00955D01*
X00374Y0036D02*
Y00517D01*
X00176Y0036D02*
Y00517D01*
X00339Y00618D02*
Y00675D01*
Y00618D02*
X00405D01*
X00765D02*
X00831D01*
Y00675*
X0081Y00512D02*
Y00546D01*
X00925Y00512D02*
Y00546D01*
X00892D02*
X00925D01*
X0081D02*
X00843D01*
X00396Y00197D02*
X00425D01*
X0083D02*
X00859D01*
G54D14*
X0087Y00234D02*
X00866Y00238D01*
X00859*
X00856Y00234*
Y0022*
X00859Y00217*
X00866*
X0087Y0022*
X00887Y00238D02*
X0088D01*
X00876Y00234*
Y0022*
X0088Y00217*
X00887*
X0089Y0022*
Y00234*
X00887Y00238*
X00897Y00217D02*
Y00238D01*
X00911Y00217*
Y00238*
X00918Y00217D02*
X00925D01*
X00921*
Y00238*
X00918Y00234*
M02*