%FSTAX23Y23*%
%MOIN*%
%SFA1B1*%

%IPPOS*%
%ADD66C,0.002000*%
%ADD67C,0.002670*%
%LNsrt-wren-25-22-v103-1*%
%LPD*%
G54D66*
X00054Y00742D02*
Y00758D01*
X0007*
Y00742*
X00054*
Y00642D02*
Y00658D01*
X0007*
Y00642*
X00054*
Y00542D02*
Y00558D01*
X0007*
Y00542*
X00054*
Y00442D02*
Y00458D01*
X0007*
Y00442*
X00054*
Y00342D02*
Y00358D01*
X0007*
Y00342*
X00054*
Y00242D02*
Y00258D01*
X0007*
Y00242*
X00054*
G54D67*
X00504Y00578D02*
X00499Y00585D01*
X0049Y00582*
Y00573*
X00499Y0057*
X00504Y00578*
X00564D02*
X00559Y00585D01*
X0055Y00582*
Y00573*
X00559Y0057*
X00564Y00578*
X00423Y00496D02*
X00418Y00504D01*
X00409Y00501*
Y00491*
X00418Y00488*
X00423Y00496*
X00152Y00592D02*
X00146Y006D01*
X00137Y00597*
Y00588*
X00146Y00585*
X00152Y00592*
X00601Y00547D02*
X00595Y00555D01*
X00586Y00552*
Y00543*
X00595Y0054*
X00601Y00547*
X00953Y00264D02*
X00948Y00271D01*
X00939Y00268*
Y00259*
X00948Y00256*
X00953Y00264*
X01183Y00439D02*
X01178Y00446D01*
X01169Y00443*
Y00434*
X01178Y00431*
X01183Y00439*
X00423Y00389D02*
X00418Y00396D01*
X00409Y00393*
Y00384*
X00418Y00381*
X00423Y00389*
Y00319D02*
X00418Y00326D01*
X00409Y00323*
Y00314*
X00418Y00311*
X00423Y00319*
Y00454D02*
X00418Y00461D01*
X00409Y00458*
Y00449*
X00418Y00446*
X00423Y00454*
Y00424D02*
X00418Y00431D01*
X00409Y00428*
Y00419*
X00418Y00416*
X00423Y00424*
X00258Y00289D02*
X00253Y00296D01*
X00244Y00293*
Y00284*
X00253Y00281*
X00258Y00289*
X00213Y00644D02*
X00208Y00651D01*
X00199Y00648*
Y00639*
X00208Y00636*
X00213Y00644*
X00253Y00744D02*
X00248Y00751D01*
X00239Y00748*
Y00739*
X00248Y00736*
X00253Y00744*
X00288Y00764D02*
X00283Y00771D01*
X00274Y00768*
Y00759*
X00283Y00756*
X00288Y00764*
Y00824D02*
X00283Y00831D01*
X00274Y00828*
Y00819*
X00283Y00816*
X00288Y00824*
Y00884D02*
X00283Y00891D01*
X00274Y00888*
Y00879*
X00283Y00876*
X00288Y00884*
X00168Y00744D02*
X00163Y00751D01*
X00154Y00748*
Y00739*
X00163Y00736*
X00168Y00744*
X00528Y00524D02*
X00523Y00531D01*
X00514Y00528*
Y00519*
X00523Y00516*
X00528Y00524*
X00738Y00559D02*
X00733Y00566D01*
X00724Y00563*
Y00554*
X00733Y00551*
X00738Y00559*
X00673Y00424D02*
X00668Y00431D01*
X00659Y00428*
Y00419*
X00668Y00416*
X00673Y00424*
X00828Y00539D02*
X00823Y00546D01*
X00814Y00543*
Y00534*
X00823Y00531*
X00828Y00539*
X01183Y00264D02*
X01178Y00271D01*
X01169Y00268*
Y00259*
X01178Y00256*
X01183Y00264*
X01003Y00524D02*
X00998Y00531D01*
X00989Y00528*
Y00519*
X00998Y00516*
X01003Y00524*
X00808Y00364D02*
X00803Y00371D01*
X00794Y00368*
Y00359*
X00803Y00356*
X00808Y00364*
X00793Y00644D02*
X00788Y00651D01*
X00779Y00648*
Y00639*
X00788Y00636*
X00793Y00644*
X00173Y00334D02*
X00168Y00341D01*
X00159Y00338*
Y00329*
X00168Y00326*
X00173Y00334*
Y00539D02*
X00168Y00546D01*
X00159Y00543*
Y00534*
X00168Y00531*
X00173Y00539*
X00358Y00269D02*
X00353Y00276D01*
X00344Y00273*
Y00264*
X00353Y00261*
X00358Y00269*
X00958Y00605D02*
X00952Y00613D01*
X00943Y0061*
Y00601*
X00952Y00598*
X00958Y00605*
X00662Y00477D02*
X00657Y00484D01*
X00648Y00482*
Y00472*
X00657Y00469*
X00662Y00477*
X00933Y00824D02*
X00927Y00832D01*
X00918Y00829*
Y0082*
X00927Y00817*
X00933Y00824*
X00956Y00882D02*
X00951Y0089D01*
X00942Y00887*
Y00878*
X00951Y00875*
X00956Y00882*
X00883Y00824D02*
X00877Y00832D01*
X00868Y00829*
Y0082*
X00877Y00817*
X00883Y00824*
X00851Y00187D02*
X00845Y00195D01*
X00837Y00192*
Y00183*
X00845Y0018*
X00851Y00187*
X0111Y00803D02*
X01104Y0081D01*
X01095Y00807*
Y00798*
X01104Y00795*
X0111Y00803*
X01048Y00393D02*
X01042Y00401D01*
X01033Y00398*
Y00389*
X01042Y00386*
X01048Y00393*
X00602Y00306D02*
X00596Y00313D01*
X00588Y0031*
Y00301*
X00596Y00298*
X00602Y00306*
X0065Y00172D02*
X00645Y00179D01*
X00636Y00176*
Y00167*
X00645Y00164*
X0065Y00172*
X00758Y00171D02*
X00752Y00178D01*
X00743Y00175*
Y00166*
X00752Y00163*
X00758Y00171*
X00562Y00143D02*
X00556Y00151D01*
X00547Y00148*
Y00139*
X00556Y00136*
X00562Y00143*
X00609Y0018D02*
X00603Y00187D01*
X00594Y00184*
Y00175*
X00603Y00172*
X00609Y0018*
X00709D02*
X00704Y00187D01*
X00695Y00184*
Y00175*
X00704Y00172*
X00709Y0018*
X00805Y00181D02*
X00799Y00188D01*
X0079Y00185*
Y00176*
X00799Y00173*
X00805Y00181*
X00206Y00145D02*
X00201Y00153D01*
X00192Y0015*
Y0014*
X00201Y00138*
X00206Y00145*
X00155Y00193D02*
X0015Y00201D01*
X00141Y00198*
Y00189*
X0015Y00186*
X00155Y00193*
X00105Y003D02*
X00099Y00307D01*
X0009Y00304*
Y00295*
X00099Y00292*
X00105Y003*
X00449Y00579D02*
X00444Y00587D01*
X00435Y00584*
Y00575*
X00444Y00572*
X00449Y00579*
X00909Y00944D02*
X00904Y00952D01*
X00895Y00949*
Y0094*
X00904Y00937*
X00909Y00944*
M02*