G04*
G04 #@! TF.GenerationSoftware,Altium Limited,Altium Designer,21.7.2 (23)*
G04*
G04 Layer_Color=8388736*
%FSLAX25Y25*%
%MOIN*%
G70*
G04*
G04 #@! TF.SameCoordinates,468C8543-70E2-46C5-B46D-702049A88486*
G04*
G04*
G04 #@! TF.FilePolarity,Negative*
G04*
G01*
G75*
%ADD30R,0.04934X0.03162*%
%ADD31R,0.04737X0.03950*%
%ADD32R,0.00394X0.00394*%
%ADD33O,0.08674X0.04737*%
%ADD34C,0.06800*%
%ADD35R,0.03477X0.06706*%
G04:AMPARAMS|DCode=36|XSize=73.35mil|YSize=31.23mil|CornerRadius=6.9mil|HoleSize=0mil|Usage=FLASHONLY|Rotation=270.000|XOffset=0mil|YOffset=0mil|HoleType=Round|Shape=RoundedRectangle|*
%AMROUNDEDRECTD36*
21,1,0.07335,0.01742,0,0,270.0*
21,1,0.05955,0.03123,0,0,270.0*
1,1,0.01381,-0.00871,-0.02977*
1,1,0.01381,-0.00871,0.02977*
1,1,0.01381,0.00871,0.02977*
1,1,0.01381,0.00871,-0.02977*
%
%ADD36ROUNDEDRECTD36*%
%ADD37R,0.03950X0.04737*%
%ADD38O,0.04737X0.08674*%
%ADD39R,0.08674X0.04737*%
G04:AMPARAMS|DCode=40|XSize=50.91mil|YSize=32.02mil|CornerRadius=7mil|HoleSize=0mil|Usage=FLASHONLY|Rotation=90.000|XOffset=0mil|YOffset=0mil|HoleType=Round|Shape=RoundedRectangle|*
%AMROUNDEDRECTD40*
21,1,0.05091,0.01801,0,0,90.0*
21,1,0.03691,0.03202,0,0,90.0*
1,1,0.01400,0.00901,0.01846*
1,1,0.01400,0.00901,-0.01846*
1,1,0.01400,-0.00901,-0.01846*
1,1,0.01400,-0.00901,0.01846*
%
%ADD40ROUNDEDRECTD40*%
%ADD41R,0.03162X0.06509*%
%ADD42R,0.03162X0.04934*%
%ADD43R,0.13005X0.12611*%
%ADD44R,0.03950X0.07099*%
%ADD45R,0.09068X0.12611*%
%ADD46C,0.06706*%
%ADD47R,0.06706X0.06706*%
%ADD48C,0.02769*%
G36*
X99862Y31157D02*
Y43953D01*
X102323D01*
Y48677D01*
X105787D01*
Y43953D01*
X108248D01*
Y31157D01*
X99862D01*
D02*
G37*
G54D30*
X101965Y60579D02*
D03*
X112988D02*
D03*
G54D31*
X84555Y37020D02*
D03*
X90055D02*
D03*
X76555Y49925D02*
D03*
X71055D02*
D03*
X99555Y80425D02*
D03*
X105055D02*
D03*
Y72425D02*
D03*
X99555D02*
D03*
X46555Y38925D02*
D03*
X52055D02*
D03*
X46555Y31925D02*
D03*
X52055D02*
D03*
X46555Y48425D02*
D03*
X52055D02*
D03*
X102571Y24114D02*
D03*
X108071D02*
D03*
G54D32*
X81193Y70740D02*
D03*
G54D33*
D03*
Y76646D02*
D03*
Y82551D02*
D03*
Y88457D02*
D03*
Y94362D02*
D03*
X35917Y70740D02*
D03*
Y76646D02*
D03*
Y82551D02*
D03*
Y88457D02*
D03*
G54D34*
X104055Y38244D02*
D03*
G54D35*
X109961Y45921D02*
D03*
X98150D02*
D03*
Y32929D02*
D03*
X109961D02*
D03*
G54D36*
X35055Y54260D02*
D03*
X30055D02*
D03*
X25055D02*
D03*
X20055D02*
D03*
Y33591D02*
D03*
X25055D02*
D03*
X30055D02*
D03*
X35055D02*
D03*
G54D37*
X24555Y69925D02*
D03*
Y64425D02*
D03*
X117555Y36925D02*
D03*
Y31425D02*
D03*
X16055Y69925D02*
D03*
Y64425D02*
D03*
X77055Y41925D02*
D03*
Y36425D02*
D03*
G54D38*
X73319Y63850D02*
D03*
X67413D02*
D03*
X61508D02*
D03*
X55602D02*
D03*
X49697D02*
D03*
X43791D02*
D03*
G54D39*
X35917Y94362D02*
D03*
G54D40*
X86799Y56315D02*
D03*
X90402Y47890D02*
D03*
X83197D02*
D03*
G54D41*
X66823Y32457D02*
D03*
X63083Y41709D02*
D03*
X70563D02*
D03*
G54D42*
X19831Y19295D02*
D03*
Y8272D02*
D03*
G54D43*
X94097Y10630D02*
D03*
X31594D02*
D03*
G54D44*
X55413Y22933D02*
D03*
X60335D02*
D03*
X50492D02*
D03*
X45571D02*
D03*
X65256D02*
D03*
X70177D02*
D03*
X75098D02*
D03*
X80020D02*
D03*
G54D45*
X35531Y11516D02*
D03*
X90059D02*
D03*
G54D46*
X6201Y75098D02*
D03*
Y65098D02*
D03*
Y55098D02*
D03*
Y45098D02*
D03*
Y35098D02*
D03*
G54D47*
Y25098D02*
D03*
G54D48*
X49669Y57823D02*
D03*
X55673D02*
D03*
X41555Y49654D02*
D03*
X14429Y59299D02*
D03*
X59315Y54772D02*
D03*
X94555Y26425D02*
D03*
X117555Y43925D02*
D03*
X41555Y38925D02*
D03*
Y31925D02*
D03*
Y45425D02*
D03*
Y42425D02*
D03*
X25055Y28925D02*
D03*
X20555Y64425D02*
D03*
X24555Y74425D02*
D03*
X28055Y76425D02*
D03*
Y82425D02*
D03*
Y88425D02*
D03*
X16055Y74425D02*
D03*
X52055Y52425D02*
D03*
X73055Y55925D02*
D03*
X66555Y42425D02*
D03*
X82055Y53925D02*
D03*
X117555Y26425D02*
D03*
X99555Y52425D02*
D03*
X80055Y36425D02*
D03*
X78555Y64425D02*
D03*
X16555Y33425D02*
D03*
Y53925D02*
D03*
X35055Y26925D02*
D03*
X95043Y60579D02*
D03*
X65453Y47736D02*
D03*
X92512Y82480D02*
D03*
X94882Y88287D02*
D03*
X87500Y82480D02*
D03*
X84350Y18799D02*
D03*
X110236Y80315D02*
D03*
X104035Y39370D02*
D03*
X59449Y30610D02*
D03*
X64272Y17224D02*
D03*
X75000Y17126D02*
D03*
X55413Y14370D02*
D03*
X60138Y18012D02*
D03*
X70177D02*
D03*
X79724Y18110D02*
D03*
X19882Y14567D02*
D03*
X14764Y19390D02*
D03*
X9744Y30020D02*
D03*
X44193Y57972D02*
D03*
X90158Y94488D02*
D03*
M02*
